<svg preserveAspectRatio="none" width="100%" height="100%" overflow="visible" style="display: block;" viewBox="0 0 20 18.4792" fill="none" xmlns="http://www.w3.org/2000/svg">
<path id="Union" fill-rule="evenodd" clip-rule="evenodd" d="M1.77148 16.5537L4.60742 14.0684L4.62012 14.0576C4.91663 13.808 5.29209 13.671 5.67969 13.6709H18.2275V1.77148H1.77148V16.5537ZM20 13.7969C20 14.2333 19.8262 14.6523 19.5176 14.9609C19.2091 15.2693 18.7907 15.4423 18.3545 15.4424H5.72852L2.71875 18.0811C2.71626 18.0832 2.71347 18.0854 2.7107 18.0875L2.7041 18.0928C2.46448 18.2943 2.17269 18.4235 1.8623 18.4648C1.5519 18.5061 1.23614 18.4581 0.952148 18.3262C0.668101 18.1942 0.427454 17.9836 0.258789 17.7197C0.0902058 17.4559 0.000464986 17.1491 0 16.8359V1.64551C0 1.20907 0.172842 0.790049 0.481445 0.481445L0.602539 0.37207C0.895321 0.132272 1.26374 0 1.64551 0H18.3545C18.7363 9.17824e-05 19.1047 0.132148 19.3975 0.37207L19.5176 0.481445L19.627 0.602539C19.8668 0.895347 20 1.26367 20 1.64551V13.7969ZM13.0384 5.31647C13.5276 5.31659 13.9241 5.71292 13.9241 6.20221C13.9241 6.6915 13.5276 7.08783 13.0384 7.08795H6.96219C6.47282 7.08795 6.07644 6.69157 6.07644 6.20221C6.07644 5.71284 6.47282 5.31647 6.96219 5.31647H13.0384ZM13.9241 9.24044C13.9241 8.75114 13.5276 8.35481 13.0384 8.35469H6.96219C6.47282 8.35469 6.07644 8.75107 6.07644 9.24044C6.07644 9.7298 6.47282 10.1262 6.96219 10.1262H13.0384C13.5276 10.1261 13.9241 9.72973 13.9241 9.24044Z" fill="var(--fill-0, #212121)"/>
</svg>
