<svg preserveAspectRatio="none" width="100%" height="100%" overflow="visible" style="display: block;" viewBox="0 0 19.95 19.9502" fill="none" xmlns="http://www.w3.org/2000/svg">
<path id="Vector" d="M19.075 9.97524C19.075 15.001 15.0008 19.0752 9.975 19.0752M19.075 9.97524C19.075 4.94945 15.0008 0.875244 9.975 0.875244C4.94921 0.875244 0.875 4.94945 0.875 9.97524M19.075 9.97524H0.875M9.975 19.0752C4.94921 19.0752 0.875 15.001 0.875 9.97524M9.975 19.0752C9.87307 19.0752 9.77324 19.0541 9.67991 19.0131C9.58658 18.9721 9.50277 18.9122 9.43378 18.8372C7.4479 16.6977 6.18433 13.526 6.18433 9.97512C6.18433 6.42422 7.4479 3.25249 9.43378 1.11304C9.50277 1.03801 9.58658 0.978107 9.67991 0.937132C9.77324 0.896157 9.87406 0.875 9.97599 0.875C10.0779 0.875 10.1787 0.896157 10.2721 0.937132C10.3654 0.978107 10.4492 1.03801 10.5182 1.11304C12.5041 3.25249 13.7677 6.42422 13.7677 9.97512C13.7677 13.526 12.5041 16.6977 10.5182 18.8372C10.4492 18.9122 10.3654 18.9721 10.2721 19.0131C10.1787 19.0541 10.0769 19.0752 9.975 19.0752Z" stroke="var(--stroke-0, #212121)" stroke-width="1.75" stroke-linecap="round" stroke-linejoin="round"/>
</svg>
