<svg preserveAspectRatio="none" width="100%" height="100%" overflow="visible" style="display: block;" viewBox="0 0 19.8678 20" fill="none" xmlns="http://www.w3.org/2000/svg">
<path id="Union" fill-rule="evenodd" clip-rule="evenodd" d="M11.6216 2.17693C11.4978 2.30269 11.3542 2.55007 11.2239 2.94146C11.098 3.31941 11.0085 3.7578 10.9467 4.18969C10.914 4.41809 10.8899 4.63866 10.8722 4.83951C11.0731 4.8218 11.2936 4.79772 11.522 4.76505C11.9539 4.70327 12.3923 4.61371 12.7703 4.48786C13.1631 4.35706 13.4109 4.21286 13.5362 4.08874L14.1619 4.72053L13.5408 4.08421C13.7899 3.84106 13.9333 3.49403 13.9333 3.13516C13.9333 2.78552 13.7859 2.43129 13.5332 2.17857L13.5256 2.171C13.2824 1.92192 12.9354 1.77845 12.5766 1.77845C12.2277 1.77845 11.8742 1.92522 11.6216 2.17693ZM14.7854 5.35462C14.764 5.37569 14.7423 5.39635 14.7202 5.41661H18.2266C19.1343 5.41661 19.8678 6.1501 19.8678 7.05787V10.0762C19.8678 10.9379 19.2068 11.6426 18.3632 11.7118V18.3587C18.3632 18.789 18.1939 19.2179 17.8677 19.5274C17.5661 19.8231 17.1544 20 16.722 20H3.1448C2.71458 20 2.28565 19.8307 1.97618 19.5045C1.68047 19.2029 1.50354 18.7912 1.50354 18.3587V11.7117C0.660443 11.642 0 10.9375 0 10.0762V7.05787C0 6.1501 0.733485 5.41661 1.64125 5.41661H5.14783C5.12574 5.39634 5.10401 5.37566 5.08266 5.35457C4.47957 4.76458 4.15633 3.9541 4.15633 3.13516C4.15633 2.30774 4.49526 1.50512 5.07357 0.924799C5.66344 0.322688 6.47324 0 7.29148 0C8.1207 0 8.92501 0.340404 9.50562 0.921016L9.50863 0.924025C9.67452 1.09151 9.81479 1.28243 9.93403 1.48389C10.0533 1.28243 10.1936 1.09151 10.3594 0.924032L10.3624 0.921009C10.943 0.340397 11.7474 0 12.5766 0C13.3948 0 14.2046 0.32268 14.7945 0.924777C15.3728 1.5051 15.7117 2.30773 15.7117 3.13516C15.7117 3.95412 15.3885 4.76462 14.7854 5.35462ZM3.28199 11.7174V18.2215H9.04508V11.7174H3.28199ZM10.8235 18.2215H16.5848V11.7174H10.8235V18.2215ZM1.77845 7.19506H9.04508V9.93896H1.77845V7.19506ZM10.8235 7.19506V9.93896H18.0894V7.19506H10.8235ZM6.33189 4.08874L5.70612 4.72053L6.32728 4.08421C6.0782 3.84106 5.93478 3.49403 5.93478 3.13516C5.93478 2.78552 6.08223 2.43134 6.33495 2.17862L6.34243 2.17095C6.58558 1.92187 6.93261 1.77845 7.29148 1.77845C7.64037 1.77845 7.99382 1.92522 8.24643 2.17693C8.37024 2.30269 8.51386 2.55007 8.64419 2.94146C8.77003 3.31941 8.85959 3.7578 8.92138 4.18969C8.95405 4.41809 8.97812 4.63866 8.99584 4.83951C8.79499 4.8218 8.57442 4.79772 8.34601 4.76505C7.91412 4.70327 7.47574 4.61371 7.09779 4.48786C6.70496 4.35706 6.4572 4.21286 6.33189 4.08874Z" fill="var(--fill-0, #212121)"/>
</svg>
