<svg preserveAspectRatio="none" width="100%" height="100%" overflow="visible" style="display: block;" viewBox="0 0 20 20" fill="none" xmlns="http://www.w3.org/2000/svg">
<path id="Union" d="M7.51758 0C8.01438 0 8.41777 0.40266 8.41797 0.899414C8.41797 1.39634 8.0145 1.79883 7.51758 1.79883H1.79883V18.2002H7.51758C8.01438 18.2002 8.41777 18.6038 8.41797 19.1006C8.41774 19.5973 8.01436 20 7.51758 20H1.72656C1.2688 19.9999 0.829609 19.8178 0.505859 19.4941C0.182193 19.1703 0 18.7303 0 18.2725V1.72656C0.000137707 1.26871 0.182096 0.829624 0.505859 0.505859C0.829627 0.182097 1.2687 0.000131207 1.72656 0H7.51758ZM14.3281 5.22754C14.6795 4.87621 15.2482 4.87618 15.5996 5.22754L19.7363 9.36328C19.7488 9.37576 19.7599 9.38934 19.7715 9.40234C19.7799 9.4118 19.7888 9.42085 19.7969 9.43066C19.8244 9.46425 19.8482 9.49981 19.8701 9.53613C19.9521 9.67168 20 9.83002 20 10C20 10.2484 19.8993 10.473 19.7363 10.6357L15.5996 14.7725C15.2483 15.1236 14.6795 15.1235 14.3281 14.7725C13.9767 14.4211 13.9767 13.8514 14.3281 13.5L16.9277 10.8994H7.51758C7.0208 10.8992 6.61817 10.4968 6.61816 10C6.61816 9.50318 7.0208 9.10075 7.51758 9.10059H16.9287L14.3281 6.49902C13.9767 6.14765 13.9767 5.57891 14.3281 5.22754Z" fill="var(--fill-0, #212121)"/>
</svg>
