<svg preserveAspectRatio="none" width="100%" height="100%" overflow="visible" style="display: block;" viewBox="0 0 20.0003 17.8941" fill="none" xmlns="http://www.w3.org/2000/svg">
<path id="Union" d="M6.48926 0C6.97129 0 7.3623 0.39101 7.3623 0.873047V2.10547H12.1064C12.5883 2.10559 12.9793 2.49672 12.9795 2.97852C12.9795 3.46048 12.5884 3.85144 12.1064 3.85156H10.1289C9.94249 5.82878 9.12538 7.69679 7.7959 9.18066C8.91546 9.9585 10.222 10.4176 11.5762 10.5127L13.4316 6.80176L13.4941 6.69629C13.6556 6.46246 13.9236 6.31934 14.2129 6.31934C14.5432 6.31955 14.8454 6.50637 14.9932 6.80176L19.9082 16.6309C20.1234 17.0619 19.9484 17.5862 19.5176 17.8018C19.0867 18.0172 18.5625 17.8427 18.3467 17.4121L17.1826 15.085H11.2412L10.0781 17.4121C9.86239 17.8426 9.33808 18.017 8.90723 17.8018C8.47646 17.5861 8.3023 17.0618 8.51758 16.6309L10.7441 12.1758C9.30749 11.9634 7.93353 11.4178 6.7373 10.5723C6.65228 10.5122 6.56908 10.4495 6.48633 10.3867C4.87971 11.6044 2.91191 12.2763 0.873047 12.2764C0.39101 12.2764 0 11.8854 0 11.4033C0.000269998 10.9215 0.391177 10.5303 0.873047 10.5303C2.42259 10.5302 3.92119 10.052 5.17676 9.18066C4.37179 8.28149 3.74461 7.22932 3.33789 6.0791C3.17726 5.6247 3.41576 5.12558 3.87012 4.96484C4.32457 4.80419 4.8237 5.04262 4.98438 5.49707C5.31631 6.43576 5.82911 7.29378 6.4873 8.02637C7.53562 6.86055 8.19258 5.40118 8.37305 3.85156H6.50684C6.50108 3.85167 6.49504 3.85254 6.48926 3.85254C6.48338 3.85254 6.47753 3.85168 6.47168 3.85156H0.873047C0.39101 3.85156 0 3.46055 0 2.97852C0.000192228 2.49664 0.391129 2.10547 0.873047 2.10547H5.61621V0.873047C5.61621 0.391106 6.00735 0.000156006 6.48926 0ZM12.1143 13.3389H16.3096L14.2119 9.14355L12.1143 13.3389Z" fill="var(--fill-0, #212121)"/>
</svg>
