<?xml version="1.0" encoding="UTF-8"?>
<!--
  Breadfast Design System — Icon Sprite
  ======================================
  28 icons extracted from Figma exports.

  Usage:
    <svg class="icon" aria-hidden="true">
      <use href="icons.svg#icon-home-outline"></use>
    </svg>

  All fills normalised to currentColor so icons inherit the
  parent element's CSS `color` property.

  Generated: 2026-02-23
-->
<svg xmlns="http://www.w3.org/2000/svg" xmlns:xlink="http://www.w3.org/1999/xlink">
<defs>

<!-- ============================================================ -->
<!-- icon-activity-history                                        -->
<!-- ============================================================ -->
<symbol id="icon-activity-history" viewBox="0 0 19.9207 19.1525">
  <path fill-rule="evenodd" clip-rule="evenodd" d="M3.62 2.79251C7.35 -0.937495 13.42 -0.927495 17.15 2.8025C18.96 4.61251 19.95 7.01251 19.92 9.59251C19.91 12.1425 18.92 14.5425 17.11 16.3525C15.31 18.1625 12.9 19.1525 10.35 19.1525C7.8 19.1425 5.4 18.1525 3.59 16.3425C3.25 16.0025 3.25 15.4425 3.59 15.1025C3.93 14.7625 4.49 14.7625 4.83 15.1025C7.88 18.1425 12.84 18.1525 15.89 15.1025C18.93 12.0525 18.94 7.09251 15.89 4.04251C12.85 1.00251 7.9 0.992505 4.85 4.02251C4.85 4.03251 4.84 4.04251 4.83 4.05251L2.97 5.90251H4.8C5.29 5.90251 5.68 6.29251 5.68 6.78251C5.68 7.27251 5.28 7.66251 4.8 7.66251H0.849998C0.739998 7.66251 0.629997 7.63251 0.519997 7.59251C0.429997 7.55251 0.349997 7.49251 0.269997 7.42251C0.264997 7.41751 0.259997 7.41501 0.254997 7.41251C0.249997 7.41001 0.244998 7.40751 0.239998 7.40251C0.229998 7.39251 0.224998 7.38001 0.219997 7.36751C0.214997 7.35501 0.209997 7.34251 0.199997 7.33251C0.189458 7.31775 0.178475 7.303 0.167423 7.28815C0.126037 7.23255 0.0836744 7.17564 0.0599976 7.11251C0.0199976 7.01251 0 6.90251 0 6.79251V6.77251V2.8225C0 2.3325 0.380003 1.9425 0.870003 1.9425C1.36 1.9425 1.75 2.3425 1.75 2.8225V4.65251L3.6 2.8125C3.60618 2.8125 3.60854 2.80868 3.61181 2.80341C3.61382 2.80014 3.61618 2.79632 3.62 2.79251ZM9.5 4.83251C9.5 4.34251 9.9 3.95251 10.38 3.95251C10.86 3.95251 11.25 4.34251 11.24 4.82251V9.06251L14.91 11.1825C15.33 11.4325 15.47 11.9625 15.23 12.3825C15.07 12.6625 14.77 12.8225 14.47 12.8225C14.32 12.8225 14.17 12.7825 14.03 12.7025L9.92 10.3325C9.905 10.3225 9.8925 10.31 9.88 10.2975C9.8675 10.285 9.855 10.2725 9.84 10.2625C9.8243 10.2468 9.80707 10.2327 9.78951 10.2182C9.76231 10.1959 9.73431 10.1729 9.71 10.1425C9.67912 10.1039 9.66017 10.0713 9.63933 10.0354C9.63317 10.0248 9.62685 10.0139 9.62 10.0025C9.59 9.95252 9.57001 9.90252 9.55001 9.85252L9.55 9.85251C9.54 9.80251 9.53 9.74252 9.52 9.68251C9.52 9.66251 9.515 9.64501 9.51 9.62751C9.505 9.61001 9.5 9.59251 9.5 9.57251V4.83251Z" fill="currentColor"/>
</symbol>

<!-- ============================================================ -->
<!-- icon-add                                                     -->
<!-- ============================================================ -->
<symbol id="icon-add" viewBox="0 0 20.02 20.02">
  <path d="M19.13 9.12H10.88V0.88C10.88 0.4 10.49 0 10 0C9.51 0 9.13 0.39 9.13 0.88V9.13H0.879997C0.399997 9.13 0 9.52 0 10.01C0 10.5 0.389997 10.89 0.879997 10.89H9.13V19.14C9.13 19.62 9.52 20.02 10.01 20.02C10.5 20.02 10.89 19.63 10.89 19.14V10.89H19.14C19.62 10.89 20.02 10.5 20.02 10.01C20.02 9.52 19.61 9.12 19.13 9.12Z" fill="currentColor"/>
</symbol>

<!-- ============================================================ -->
<!-- icon-alert-circle                                            -->
<!-- ============================================================ -->
<symbol id="icon-alert-circle" viewBox="0 0 20 19.9999">
  <path fill-rule="evenodd" clip-rule="evenodd" d="M10 1.75194C5.44472 1.75194 1.75194 5.44471 1.75194 9.99997C1.75194 14.5552 5.44472 18.248 10 18.248C14.5553 18.248 18.2481 14.5552 18.2481 9.99997C18.2481 5.44471 14.5553 1.75194 10 1.75194ZM0 9.99997C0 4.47714 4.47715 0 10 0C15.5228 0 20 4.47714 20 9.99997C20 15.5228 15.5228 19.9999 10 19.9999C4.47715 19.9999 0 15.5228 0 9.99997ZM10 8.36367C10.4838 8.36367 10.876 8.75585 10.876 9.23964V14.562C10.876 15.0458 10.4838 15.4379 10 15.4379C9.51622 15.4379 9.12403 15.0458 9.12403 14.562V9.23964C9.12403 8.75585 9.51622 8.36367 10 8.36367ZM11.1428 5.81813C11.1428 6.44802 10.6322 6.95864 10.0023 6.95864C9.37241 6.95864 8.86179 6.44802 8.86179 5.81813C8.86179 5.18825 9.37241 4.67763 10.0023 4.67763C10.6322 4.67763 11.1428 5.18825 11.1428 5.81813Z" fill="currentColor"/>
</symbol>

<!-- ============================================================ -->
<!-- icon-alert                                                   -->
<!-- ============================================================ -->
<symbol id="icon-alert" viewBox="0 0 19.9471 17.8479">
  <path fill-rule="evenodd" clip-rule="evenodd" d="M2.26707 17.8479C1.86707 17.8479 1.47706 17.7379 1.13706 17.5479C0.0470639 16.9179 -0.322938 15.5279 0.307062 14.4379L8.00707 1.13793C8.20707 0.787926 8.49706 0.497926 8.84706 0.297926C9.92706 -0.322074 11.3171 0.0579258 11.9371 1.13793L19.6371 14.4379C19.8371 14.7879 19.9471 15.1779 19.9471 15.5679C19.9471 16.8179 18.9371 17.8479 17.6771 17.8479H2.26707ZM9.96707 1.74793C9.87707 1.74793 9.78706 1.76793 9.70706 1.81793C9.62706 1.86793 9.55707 1.92793 9.51707 2.00793L1.81706 15.3179C1.74706 15.4379 1.72707 15.5779 1.76707 15.7179C1.80707 15.8579 1.88707 15.9679 2.01707 16.0379C2.09707 16.0879 2.18706 16.1079 2.27706 16.1079H17.6771C17.9671 16.1079 18.1971 15.8679 18.1971 15.5779C18.1971 15.4879 18.1771 15.3979 18.1271 15.3179L10.4271 2.01793C10.3571 1.89793 10.2471 1.80793 10.1071 1.76793C10.0571 1.74793 10.0171 1.74793 9.96707 1.74793ZM9.9674 11.548C9.4874 11.548 9.0874 11.158 9.0874 10.668V7.16796C9.0874 6.68796 9.4774 6.28796 9.9674 6.28796C10.4574 6.28796 10.8474 6.67796 10.8474 7.16796V10.668C10.8474 11.158 10.4474 11.548 9.9674 11.548ZM11.0175 13.828C11.0175 14.4079 10.5474 14.878 9.96748 14.878C9.38758 14.878 8.91748 14.4079 8.91748 13.828C8.91748 13.2481 9.38758 12.778 9.96748 12.778C10.5474 12.778 11.0175 13.2481 11.0175 13.828Z" fill="currentColor"/>
</symbol>

<!-- ============================================================ -->
<!-- icon-bell                                                    -->
<!-- ============================================================ -->
<symbol id="icon-bell" viewBox="0 0 17.5763 19.96">
  <path d="M17.36 13.91C16.83 12.99 16.2 11.25 16.2 8.16V7.51C16.2 3.4 12.9 0.03 8.79 0C6.81 0 4.95 0.78 3.55 2.18C2.15 3.58 1.38 5.45 1.38 7.43V8.16C1.38 11.25 0.749999 12.99 0.209999 13.91C0.0699991 14.15 0 14.43 0 14.71C0 15.14 0.159999 15.54 0.459999 15.85C0.759999 16.15 1.16 16.32 1.59 16.32H5.01C5.09 18.34 6.74 19.96 8.78 19.96C10.82 19.96 12.47 18.34 12.55 16.32H15.97C16.25 16.32 16.52 16.25 16.77 16.11C17.14 15.9 17.4 15.55 17.52 15.14C17.63 14.71 17.58 14.28 17.36 13.91ZM8.79 18.2C7.72 18.2 6.84 17.36 6.77 16.31H10.81C10.73 17.37 9.86 18.2 8.79 18.2ZM1.85 14.56C2.46 13.41 3.13 11.41 3.13 8.15V7.43C3.13 5.92 3.72 4.49 4.79 3.42C5.86 2.35 7.28 1.76 8.83 1.75C11.93 1.77 14.45 4.36 14.45 7.51V8.16C14.45 11.42 15.12 13.42 15.73 14.57H1.85V14.56Z" fill="currentColor"/>
</symbol>

<!-- ============================================================ -->
<!-- icon-cart-default                                            -->
<!-- ============================================================ -->
<symbol id="icon-cart-default" viewBox="0 0 20.1048 20.1459">
  <path fill-rule="evenodd" clip-rule="evenodd" d="M0 0.875C0 0.391751 0.391751 0 0.875 0H2.50269C3.27809 0 3.95326 0.552995 4.09072 1.32418L4.09121 1.32692L4.51699 3.66617L19.2315 3.69544C19.4903 3.69596 19.7356 3.81099 19.9014 4.00963C20.0673 4.20826 20.1367 4.47012 20.0911 4.72484L19.0497 10.534C18.8693 11.7793 17.8695 12.8027 16.5732 12.816L16.5579 12.8161L6.17865 12.7955L6.52724 14.7106H16.4657H16.4657C17.9625 14.7106 19.1732 15.9213 19.1732 17.418C19.1732 18.3129 18.7339 19.1088 18.0759 19.6024C18.0329 19.6346 17.9879 19.6623 17.9415 19.6855C17.5188 19.9612 17.0167 20.1254 16.4657 20.1254C14.969 20.1254 13.7583 18.9147 13.7583 17.418C13.7583 17.0808 13.8197 16.7582 13.9321 16.4606H9.24596C9.36325 16.7638 9.42756 17.0936 9.42756 17.4385C9.42756 18.3334 8.98829 19.1294 8.33025 19.6229C8.28727 19.6551 8.24229 19.6828 8.19588 19.706C7.77323 19.9817 7.27112 20.1459 6.72013 20.1459C5.22341 20.1459 4.0127 18.9352 4.0127 17.4385C4.0127 16.6513 4.34759 15.9433 4.88286 15.4488L2.38947 1.75H0.875C0.391751 1.75 0 1.35825 0 0.875ZM16.4657 16.4606C15.9355 16.4606 15.5083 16.8878 15.5083 17.418C15.5083 17.9482 15.9355 18.3754 16.4657 18.3754C16.6775 18.3754 16.8667 18.3088 17.0334 18.1865C17.0539 18.1715 17.0748 18.1576 17.096 18.1446C17.298 17.9622 17.4232 17.6997 17.4232 17.418C17.4232 16.8878 16.996 16.4606 16.4657 16.4606ZM6.72013 16.4811C6.18991 16.4811 5.7627 16.9083 5.7627 17.4385C5.7627 17.9687 6.18991 18.3959 6.72013 18.3959C6.9319 18.3959 7.12114 18.3293 7.28781 18.207C7.30826 18.192 7.32915 18.1781 7.35041 18.1651C7.55244 17.9827 7.67756 17.7202 7.67756 17.4385C7.67756 16.9083 7.25035 16.4811 6.72013 16.4811ZM18.1844 5.44337L4.84126 5.41682L5.86389 11.0374L16.5523 11.0661C16.8739 11.0635 17.2476 10.7924 17.3188 10.2758C17.3204 10.2641 17.3223 10.2525 17.3243 10.2409L18.1844 5.44337Z" fill="currentColor"/>
</symbol>

<!-- ============================================================ -->
<!-- icon-cart-filled                                             -->
<!-- ============================================================ -->
<symbol id="icon-cart-filled" viewBox="0 0 20.1048 20.1459">
  <path fill-rule="evenodd" clip-rule="evenodd" d="M0 0.875C0 0.391751 0.391751 0 0.875 0H2.50269C3.27809 0 3.95326 0.552995 4.09072 1.32418L4.09121 1.32692L4.51699 3.66617L19.2315 3.69544C19.4903 3.69596 19.7356 3.81099 19.9014 4.00963C20.0673 4.20826 20.1367 4.47012 20.0911 4.72484L19.0497 10.534C18.8693 11.7793 17.8695 12.8027 16.5732 12.816L16.5579 12.8161L6.17865 12.7955L6.52724 14.7106H16.4657C17.9624 14.7106 19.1732 15.9213 19.1732 17.418C19.1732 18.3129 18.7339 19.1088 18.0759 19.6024C18.0329 19.6346 17.9879 19.6623 17.9415 19.6855C17.5188 19.9612 17.0167 20.1254 16.4657 20.1254C14.969 20.1254 13.7583 18.9147 13.7583 17.418C13.7583 17.0808 13.8197 16.7582 13.9321 16.4606H9.24596C9.36325 16.7638 9.42756 17.0936 9.42756 17.4385C9.42756 18.3334 8.98829 19.1294 8.33025 19.6229C8.28727 19.6551 8.24229 19.6828 8.19588 19.706C7.77323 19.9817 7.27112 20.1459 6.72013 20.1459C5.22341 20.1459 4.0127 18.9352 4.0127 17.4385C4.0127 16.6513 4.34759 15.9433 4.88286 15.4488L2.38947 1.75H0.875C0.391751 1.75 0 1.35825 0 0.875Z" fill="currentColor"/>
</symbol>

<!-- ============================================================ -->
<!-- icon-checkmark-circle-filled                                 -->
<!-- ============================================================ -->
<symbol id="icon-checkmark-circle-filled" viewBox="0 0 20 20">
  <path d="M10 0C15.5228 0 20 4.47715 20 10C20 15.5228 15.5228 20 10 20C4.47715 20 0 15.5228 0 10C0 4.47715 4.47715 0 10 0ZM13.2197 6.96967L8.75 11.4393L6.78033 9.46967C6.48744 9.17678 6.01256 9.17678 5.71967 9.46967C5.42678 9.76256 5.42678 10.2374 5.71967 10.5303L8.21967 13.0303C8.51256 13.3232 8.98744 13.3232 9.28033 13.0303L14.2803 8.03033C14.5732 7.73744 14.5732 7.26256 14.2803 6.96967C13.9874 6.67678 13.5126 6.67678 13.2197 6.96967Z" fill="currentColor"/>
</symbol>

<!-- ============================================================ -->
<!-- icon-checkmark-circle                                        -->
<!-- ============================================================ -->
<symbol id="icon-checkmark-circle" viewBox="0 0 20 20">
  <path d="M10 0C15.5228 0 20 4.47715 20 10C20 15.5228 15.5228 20 10 20C4.47715 20 0 15.5228 0 10C0 4.47715 4.47715 0 10 0ZM10 1.5C5.30558 1.5 1.5 5.30558 1.5 10C1.5 14.6944 5.30558 18.5 10 18.5C14.6944 18.5 18.5 14.6944 18.5 10C18.5 5.30558 14.6944 1.5 10 1.5ZM8.75 11.4393L13.2197 6.96967C13.5126 6.67678 13.9874 6.67678 14.2803 6.96967C14.5466 7.23594 14.5708 7.6526 14.3529 7.94621L14.2803 8.03033L9.28033 13.0303C9.01406 13.2966 8.5974 13.3208 8.30379 13.1029L8.21967 13.0303L5.71967 10.5303C5.42678 10.2374 5.42678 9.76256 5.71967 9.46967C5.98594 9.2034 6.4026 9.1792 6.69621 9.39705L6.78033 9.46967L8.75 11.4393L13.2197 6.96967L8.75 11.4393Z" fill="currentColor"/>
</symbol>

<!-- ============================================================ -->
<!-- icon-chevron-left                                            -->
<!-- ============================================================ -->
<symbol id="icon-chevron-left" viewBox="0 0 8.75 15.75">
  <path fill-rule="evenodd" clip-rule="evenodd" d="M8.49372 0.256282C8.83543 0.59799 8.83543 1.15201 8.49372 1.49372L2.11244 7.875L8.49372 14.2563C8.83543 14.598 8.83543 15.152 8.49372 15.4937C8.15201 15.8354 7.59799 15.8354 7.25628 15.4937L0.256282 8.49372C-0.0854272 8.15201 -0.0854272 7.59799 0.256282 7.25628L7.25628 0.256282C7.59799 -0.0854272 8.15201 -0.0854272 8.49372 0.256282Z" fill="currentColor"/>
</symbol>

<!-- ============================================================ -->
<!-- icon-chevron-right                                           -->
<!-- ============================================================ -->
<symbol id="icon-chevron-right" viewBox="0 0 8.75 15.75">
  <path fill-rule="evenodd" clip-rule="evenodd" d="M0.256282 0.256282C-0.0854272 0.59799 -0.0854272 1.15201 0.256282 1.49372L6.63756 7.875L0.256282 14.2563C-0.0854272 14.598 -0.0854272 15.152 0.256282 15.4937C0.59799 15.8354 1.15201 15.8354 1.49372 15.4937L8.49372 8.49372C8.83543 8.15201 8.83543 7.59799 8.49372 7.25628L1.49372 0.256282C1.15201 -0.0854272 0.59799 -0.0854272 0.256282 0.256282Z" fill="currentColor"/>
</symbol>

<!-- ============================================================ -->
<!-- icon-close-outline                                           -->
<!-- ============================================================ -->
<symbol id="icon-close-outline" viewBox="0 0 15.7508 15.7508">
  <path fill-rule="evenodd" clip-rule="evenodd" d="M15.4946 0.256282C15.1529 -0.0854272 14.598 -0.0854272 14.2563 0.256282L7.87542 6.63714L1.49456 0.256282C1.15285 -0.0854272 0.59799 -0.0854272 0.256282 0.256282C-0.0854272 0.59799 -0.0854272 1.15285 0.256282 1.49456L6.63714 7.87542L0.256282 14.2563C-0.0854272 14.598 -0.0854272 15.1529 0.256282 15.4946C0.59799 15.8363 1.15285 15.8363 1.49456 15.4946L7.87542 9.1137L14.2563 15.4946C14.598 15.8363 15.1529 15.8363 15.4946 15.4946C15.8363 15.1529 15.8363 14.598 15.4946 14.2563L9.1137 7.87542L15.4946 1.49456C15.8363 1.15285 15.8363 0.59799 15.4946 0.256282Z" fill="currentColor"/>
</symbol>

<!-- ============================================================ -->
<!-- icon-delete                                                  -->
<!-- ============================================================ -->
<symbol id="icon-delete" viewBox="0 0 18.4795 20">
  <path d="M6.9594 7.60231C7.44386 7.60231 7.83659 7.99505 7.83659 8.47951V14.5614C7.83659 15.0458 7.44386 15.4386 6.9594 15.4386C6.47494 15.4386 6.08221 15.0458 6.08221 14.5614V8.47951C6.08221 7.99505 6.47494 7.60231 6.9594 7.60231Z" fill="currentColor"/>
  <path d="M12.398 8.47951C12.398 7.99505 12.0053 7.60231 11.5208 7.60231C11.0364 7.60231 10.6437 7.99505 10.6437 8.47951V14.5614C10.6437 15.0458 11.0364 15.4386 11.5208 15.4386C12.0053 15.4386 12.398 15.0458 12.398 14.5614V8.47951Z" fill="currentColor"/>
  <path fill-rule="evenodd" clip-rule="evenodd" d="M6.9591 0C6.3232 0 5.71335 0.252611 5.2637 0.70226C4.81405 1.15191 4.56144 1.76176 4.56144 2.39766V3.04093H0.877192C0.392733 3.04093 0 3.43366 0 3.91812C0 4.40258 0.392733 4.79531 0.877192 4.79531H1.52077V18.3626C1.52077 18.7968 1.69328 19.2133 2.00036 19.5204C2.30744 19.8275 2.72392 20 3.15819 20H15.3219C15.7562 20 16.1727 19.8275 16.4798 19.5204C16.7869 19.2133 16.9594 18.7968 16.9594 18.3626V4.79531H17.6023C18.0868 4.79531 18.4795 4.40258 18.4795 3.91812C18.4795 3.43366 18.0868 3.04093 17.6023 3.04093H13.9182V2.39766C13.9182 1.76176 13.6656 1.15191 13.2159 0.70226C12.7663 0.252611 12.1564 0 11.5205 0H6.9591ZM13.0457 4.79531L13.041 4.79532L13.0363 4.79531H5.44335L5.43864 4.79532L5.43392 4.79531H3.27515V18.2456H15.205V4.79531H13.0457ZM6.31583 3.04093H12.1638V2.39766C12.1638 2.22706 12.096 2.06343 11.9754 1.9428C11.8547 1.82216 11.6911 1.75439 11.5205 1.75439H6.9591C6.7885 1.75439 6.62488 1.82216 6.50424 1.9428C6.3836 2.06343 6.31583 2.22706 6.31583 2.39766V3.04093Z" fill="currentColor"/>
</symbol>

<!-- ============================================================ -->
<!-- icon-dropdown                                                -->
<!-- ============================================================ -->
<symbol id="icon-dropdown" viewBox="0 0 14.33 8.04">
  <path fill-rule="evenodd" clip-rule="evenodd" d="M0.256282 0.256282C0.59799 -0.0854272 1.15201 -0.0854272 1.49372 0.256282L7.165 5.92756L12.8363 0.256282C13.178 -0.0854272 13.732 -0.0854272 14.0737 0.256282C14.4154 0.59799 14.4154 1.15201 14.0737 1.49372L7.78372 7.78372C7.44201 8.12543 6.88799 8.12543 6.54628 7.78372L0.256282 1.49372C-0.0854272 1.15201 -0.0854272 0.59799 0.256282 0.256282Z" fill="currentColor"/>
</symbol>

<!-- ============================================================ -->
<!-- icon-heart                                                   -->
<!-- ============================================================ -->
<symbol id="icon-heart" viewBox="0 0 20.05 17.8506">
  <path d="M10.03 17.8506C9.88 17.8506 9.74 17.8106 9.6 17.7406C9.21 17.5106 0 12.2806 0 5.63058C0 2.52058 2.53 0.000576255 5.63 0.000576255C7.37 0.000576255 8.97 0.790576 10.02 2.10058C11.55 0.200576 14.21 -0.549424 16.58 0.430576C18.69 1.31058 20.05 3.35058 20.05 5.63058C20.05 12.2906 10.84 17.5206 10.45 17.7406C10.32 17.8106 10.17 17.8506 10.03 17.8506ZM5.63 1.74058C3.49 1.74058 1.75 3.48058 1.75 5.62058C1.75 10.5306 8.27 14.8706 10.03 15.9506C11.78 14.8706 18.31 10.5206 18.31 5.62058C18.31 4.05058 17.37 2.64058 15.92 2.04058C13.94 1.22058 11.67 2.16058 10.84 4.13058C10.7 4.46058 10.39 4.67058 10.03 4.67058C9.67 4.67058 9.36 4.46058 9.22 4.13058C8.61 2.68058 7.21 1.74058 5.63 1.74058Z" fill="currentColor"/>
</symbol>

<!-- ============================================================ -->
<!-- icon-heart-filled                                            -->
<!-- ============================================================ -->
<symbol id="icon-heart-filled" viewBox="0 0 20.05 17.8506">
  <path d="M10.03 17.8506C9.88 17.8506 9.74 17.8106 9.6 17.7406C9.21 17.5106 0 12.2806 0 5.63058C0 2.52058 2.53 0.000576255 5.63 0.000576255C7.37 0.000576255 8.97 0.790576 10.02 2.10058C11.55 0.200576 14.21 -0.549424 16.58 0.430576C18.69 1.31058 20.05 3.35058 20.05 5.63058C20.05 12.2906 10.84 17.5206 10.45 17.7406C10.32 17.8106 10.17 17.8506 10.03 17.8506Z" fill="currentColor"/>
</symbol>

<!-- ============================================================ -->
<!-- icon-home-filled                                             -->
<!-- ============================================================ -->
<symbol id="icon-home-filled" viewBox="0 0 20.1515 20.0388">
  <path fill-rule="evenodd" clip-rule="evenodd" d="M11.2668 0.440823C10.616 -0.146941 9.62771 -0.146941 8.97697 0.440823L0.56249 8.27097C0.206301 8.59047 0 9.05067 0 9.53273V17.9036C0 19.1403 1.01283 20.0388 2.17622 20.0388H6.01841C6.93378 20.0388 7.72332 19.3271 7.72332 18.3544V12.8258H12.0901V18.3463C12.0744 19.3321 12.8772 20.0388 13.7848 20.0388H17.9753C19.1575 20.0388 20.1515 19.1016 20.1515 17.8831V9.51224C20.1515 9.03091 19.9458 8.57135 19.5906 8.25191L11.273 0.446409L11.2668 0.440823Z" fill="currentColor"/>
</symbol>

<!-- ============================================================ -->
<!-- icon-home-outline                                            -->
<!-- ============================================================ -->
<symbol id="icon-home-outline" viewBox="0 0 20.1514 20.037">
  <path fill-rule="evenodd" clip-rule="evenodd" d="M8.93056 0.462362C9.59209 -0.154351 10.6227 -0.15412 11.284 0.463053L19.5849 8.22372C19.9653 8.56565 20.1514 9.04567 20.1514 9.50902V17.8587C20.1514 19.0826 19.1576 20.037 17.9522 20.037H13.2315C12.3103 20.037 11.4842 19.3114 11.5002 18.3076V12.8416H8.65118V18.3162C8.65118 19.306 7.83915 20.037 6.90951 20.037H2.19919C1.02399 20.037 0 19.1227 0 17.8691V9.52982C0 9.06606 0.186497 8.58561 0.567523 8.24362L8.93056 0.462362C8.93081 0.462131 8.93031 0.462592 8.93056 0.462362ZM10.1068 1.85348L1.81966 9.56408V17.8691C1.81966 18.0504 1.96025 18.2174 2.19919 18.2174H6.83152V12.7533L6.83176 12.7429C6.85312 11.8032 7.6197 11.0219 8.58359 11.0219H11.5782C12.5382 11.0219 13.3199 11.8036 13.3199 12.7636V18.2174H17.9522C18.1818 18.2174 18.3318 18.0488 18.3318 17.8587V9.5432L10.1068 1.85348Z" fill="currentColor"/>
</symbol>

<!-- ============================================================ -->
<!-- icon-info                                                    -->
<!-- ============================================================ -->
<symbol id="icon-info" viewBox="0 0 20 19.9999">
  <path fill-rule="evenodd" clip-rule="evenodd" d="M10 1.75194C5.44472 1.75194 1.75194 5.44471 1.75194 9.99997C1.75194 14.5552 5.44472 18.248 10 18.248C14.5553 18.248 18.2481 14.5552 18.2481 9.99997C18.2481 5.44471 14.5553 1.75194 10 1.75194ZM0 9.99997C0 4.47714 4.47715 0 10 0C15.5228 0 20 4.47714 20 9.99997C20 15.5228 15.5228 19.9999 10 19.9999C4.47715 19.9999 0 15.5228 0 9.99997ZM10 8.36367C10.4838 8.36367 10.876 8.75585 10.876 9.23964V14.562C10.876 15.0458 10.4838 15.4379 10 15.4379C9.51622 15.4379 9.12403 15.0458 9.12403 14.562V9.23964C9.12403 8.75585 9.51622 8.36367 10 8.36367ZM11.1428 5.81813C11.1428 6.44802 10.6322 6.95864 10.0023 6.95864C9.37241 6.95864 8.86179 6.44802 8.86179 5.81813C8.86179 5.18825 9.37241 4.67763 10.0023 4.67763C10.6322 4.67763 11.1428 5.18825 11.1428 5.81813Z" fill="currentColor"/>
</symbol>

<!-- ============================================================ -->
<!-- icon-loading                                                 -->
<!-- ============================================================ -->
<symbol id="icon-loading" viewBox="0 0 19.5702 19.97">
  <path fill-rule="evenodd" clip-rule="evenodd" d="M9.98502 1.75C5.43826 1.75 1.75 5.43825 1.75 9.985C1.75 14.5317 5.43826 18.22 9.98502 18.22C13.6888 18.22 16.8186 15.7721 17.859 12.4066C18.0018 11.9449 18.4917 11.6863 18.9534 11.829C19.4151 11.9718 19.6737 12.4617 19.531 12.9234C18.2714 16.9979 14.4812 19.97 9.98502 19.97C4.47177 19.97 0 15.4983 0 9.985C0 4.47175 4.47177 0 9.98502 0C13.4065 0 16.4198 1.72294 18.2251 4.33788C18.4996 4.73556 18.3998 5.28052 18.0021 5.55507C17.6044 5.82962 17.0595 5.7298 16.7849 5.33212C15.2902 3.16706 12.8036 1.75 9.98502 1.75Z" fill="currentColor"/>
</symbol>

<!-- ============================================================ -->
<!-- icon-location-pin                                            -->
<!-- ============================================================ -->
<symbol id="icon-location-pin" viewBox="0 0 15.75 19.9498">
  <path fill-rule="evenodd" clip-rule="evenodd" d="M3.54397 3.54397C4.69263 2.39531 6.25055 1.75 7.875 1.75C9.49945 1.75 11.0574 2.39531 12.206 3.54397C13.3547 4.69263 14 6.25055 14 7.875C14 10.71 12.4146 13.3084 10.7147 15.2633C9.87545 16.2285 9.03394 17.0071 8.40206 17.5442C8.20256 17.7138 8.0246 17.8588 7.875 17.9774C7.7254 17.8588 7.54744 17.7138 7.34794 17.5442C6.71606 17.0071 5.87455 16.2285 5.03528 15.2633C3.33537 13.3084 1.75 10.71 1.75 7.875C1.75 6.25055 2.39531 4.69263 3.54397 3.54397ZM7.37272 19.7915C7.37298 19.7917 7.37322 19.7918 7.875 19.075L8.37678 19.7918C8.0755 20.0027 7.674 20.0024 7.37272 19.7915ZM7.37272 19.7915L7.875 19.075C8.37678 19.7918 8.37768 19.7912 8.37795 19.791L8.37976 19.7897L8.38527 19.7858L8.40377 19.7727C8.41937 19.7615 8.44143 19.7457 8.46952 19.7252C8.5257 19.6842 8.60605 19.6246 8.70712 19.5474C8.90916 19.3929 9.19452 19.1674 9.53544 18.8776C10.2161 18.2991 11.1245 17.459 12.0353 16.4117C13.8354 14.3416 15.75 11.34 15.75 7.875C15.75 5.78642 14.9203 3.78338 13.4435 2.30653C11.9666 0.829685 9.96358 0 7.875 0C5.78642 0 3.78338 0.829685 2.30653 2.30653C0.829685 3.78338 0 5.78642 0 7.875C0 11.34 1.91463 14.3416 3.71472 16.4117C4.62545 17.459 5.53394 18.2991 6.21456 18.8776C6.55548 19.1674 6.84084 19.3929 7.04288 19.5474C7.14395 19.6246 7.2243 19.6842 7.28048 19.7252C7.30857 19.7457 7.33063 19.7615 7.34623 19.7727L7.36473 19.7858L7.37024 19.7897L7.37272 19.7915ZM5.95001 7.87495C5.95001 6.8118 6.81186 5.94995 7.87501 5.94995C8.93816 5.94995 9.80001 6.8118 9.80001 7.87495C9.80001 8.9381 8.93816 9.79995 7.87501 9.79995C6.81186 9.79995 5.95001 8.9381 5.95001 7.87495ZM7.87501 4.19995C5.84537 4.19995 4.20001 5.8453 4.20001 7.87495C4.20001 9.9046 5.84537 11.55 7.87501 11.55C9.90466 11.55 11.55 9.9046 11.55 7.87495C11.55 5.8453 9.90466 4.19995 7.87501 4.19995Z" fill="currentColor"/>
</symbol>

<!-- ============================================================ -->
<!-- icon-minus                                                   -->
<!-- ============================================================ -->
<symbol id="icon-minus" viewBox="0 0 11.94 1.25">
  <path d="M6.6 1.25H11.32C11.66 1.25 11.94 0.97 11.94 0.63C11.94 0.29 11.67 0 11.32 0H6.6H5.35H0.62C0.28 0 0 0.28 0 0.62C0 0.96 0.28 1.24 0.62 1.24H5.34" fill="currentColor"/>
</symbol>

<!-- ============================================================ -->
<!-- icon-more                                                    -->
<!-- ============================================================ -->
<symbol id="icon-more" viewBox="0 0 20.2703 16.0175">
  <path fill-rule="evenodd" clip-rule="evenodd" d="M0 0.875C0 0.391751 0.391751 0 0.875 0H19.3953C19.8785 0 20.2703 0.391751 20.2703 0.875C20.2703 1.35825 19.8785 1.75 19.3953 1.75H0.875C0.391751 1.75 0 1.35825 0 0.875ZM0 8.00873C0 7.52548 0.391751 7.13373 0.875 7.13373H19.3953C19.8785 7.13373 20.2703 7.52548 20.2703 8.00873C20.2703 8.49198 19.8785 8.88373 19.3953 8.88373H0.875C0.391751 8.88373 0 8.49198 0 8.00873ZM0.875 14.2675C0.391751 14.2675 0 14.6592 0 15.1425C0 15.6257 0.391751 16.0175 0.875 16.0175H19.3953C19.8785 16.0175 20.2703 15.6257 20.2703 15.1425C20.2703 14.6592 19.8785 14.2675 19.3953 14.2675H0.875Z" fill="currentColor"/>
</symbol>

<!-- ============================================================ -->
<!-- icon-navigate                                                -->
<!-- ============================================================ -->
<symbol id="icon-navigate" viewBox="0 0 17.7502 17.7502">
  <path fill-rule="evenodd" clip-rule="evenodd" d="M2.08249 0.0877438C2.08328 0.0880189 2.08406 0.0882947 2.08485 0.0885711L16.6954 5.14572C16.6959 5.14589 16.6964 5.14607 16.6969 5.14624C18.1448 5.64355 18.0735 7.67766 16.6457 8.12144L10.1283 10.132L8.12208 16.6436L8.12144 16.6457C7.67766 18.0735 5.64355 18.1448 5.14624 16.6969C5.14607 16.6964 5.14589 16.6959 5.14572 16.6954L0.0885711 2.08485C0.0882947 2.08406 0.0880189 2.08328 0.0877438 2.08249C-0.00936636 1.80476 -0.0262634 1.50527 0.039018 1.21835C0.104484 0.930618 0.249928 0.667243 0.458586 0.458586C0.667243 0.249928 0.930618 0.104484 1.21835 0.039018C1.50527 -0.0262634 1.80476 -0.00936636 2.08249 0.0877438ZM1.86397 1.86397L15.5912 6.61538L9.53672 8.48315C9.28941 8.55223 9.06346 8.68277 8.88001 8.86276C8.6941 9.04516 8.55813 9.27215 8.48503 9.522L6.61526 15.5908L1.86397 1.86397Z" fill="currentColor"/>
</symbol>

<!-- ============================================================ -->
<!-- icon-pay                                                     -->
<!-- ============================================================ -->
<symbol id="icon-pay" viewBox="0 0 19.9411 18.1178">
  <path fill-rule="evenodd" clip-rule="evenodd" d="M17.5713 1.61601C17.3992 0.497093 16.2844 -0.233527 15.1846 0.0683673L1.38125 3.96397L1.37562 3.9656C0.563961 4.20055 0 4.93523 0 5.79411V6.99142V7.83988V15.7085C0 17.0271 1.05292 18.1178 2.38608 18.1178H17.555C18.8882 18.1178 19.9411 17.0271 19.9411 15.7085V6.99142C19.9411 5.83426 19.1303 4.85267 18.0308 4.62959L17.5715 1.61716L17.5713 1.61601ZM16.2534 4.58209L15.8417 1.88211C15.8277 1.7929 15.7348 1.73316 15.6495 1.7555L5.63409 4.58209H16.2534ZM1.75 6.99142V7.83988V15.7085C1.75 16.0869 2.04543 16.3678 2.38608 16.3678H17.555C17.8957 16.3678 18.1911 16.0869 18.1911 15.7085V6.99142C18.1911 6.61303 17.8957 6.33209 17.555 6.33209H2.38608C2.04543 6.33209 1.75 6.61303 1.75 6.99142ZM15.405 12.5239C16.0533 12.5239 16.5789 11.9983 16.5789 11.3499C16.5789 10.7015 16.0533 10.1759 15.405 10.1759C14.7566 10.1759 14.231 10.7015 14.231 11.3499C14.231 11.9983 14.7566 12.5239 15.405 12.5239Z" fill="currentColor"/>
</symbol>

<!-- ============================================================ -->
<!-- icon-search-filled                                           -->
<!-- ============================================================ -->
<symbol id="icon-search-filled" viewBox="0 0 19.9 19.9">
  <path fill-rule="evenodd" clip-rule="evenodd" d="M2 7.87C2 4.62809 4.62809 2 7.87 2C11.1119 2 13.74 4.62809 13.74 7.87C13.74 11.1119 11.1119 13.74 7.87 13.74C4.62809 13.74 2 11.1119 2 7.87ZM7.87 0C3.52352 0 0 3.52352 0 7.87C0 12.2165 3.52352 15.74 7.87 15.74C9.6828 15.74 11.3525 15.1271 12.683 14.0972L18.1929 19.6071C18.5835 19.9976 19.2166 19.9976 19.6071 19.6071C19.9977 19.2166 19.9977 18.5834 19.6071 18.1929L14.0972 12.683C15.1271 11.3524 15.74 9.68277 15.74 7.87C15.74 3.52352 12.2165 0 7.87 0Z" fill="currentColor"/>
</symbol>

<!-- ============================================================ -->
<!-- icon-search-outline                                          -->
<!-- ============================================================ -->
<symbol id="icon-search-outline" viewBox="0 0 20.0001 20">
  <path fill-rule="evenodd" clip-rule="evenodd" d="M1.78117 7.88296C1.78117 4.51304 4.51304 1.78117 7.88296 1.78117C11.2529 1.78117 13.9847 4.51304 13.9847 7.88296C13.9847 11.2529 11.2529 13.9847 7.88296 13.9847C4.51304 13.9847 1.78117 11.2529 1.78117 7.88296ZM7.88296 0C3.52932 0 0 3.52932 0 7.88296C0 12.2366 3.52932 15.7659 7.88296 15.7659C9.73893 15.7659 11.4451 15.1245 12.7919 14.0513L18.4797 19.7392C18.8275 20.0869 19.3914 20.0869 19.7392 19.7392C20.087 19.3914 20.087 18.8275 19.7392 18.4797L14.0513 12.7918C15.1245 11.445 15.7659 9.7389 15.7659 7.88296C15.7659 3.52932 12.2366 0 7.88296 0Z" fill="currentColor"/>
</symbol>

<!-- ============================================================ -->
<!-- icon-settings                                                -->
<!-- ============================================================ -->
<symbol id="icon-settings" viewBox="0 0 19.9618 19.9462">
  <path d="M9.97087 5.60528C7.56087 5.60528 5.59087 7.56528 5.59087 9.98528C5.59087 12.4053 7.55087 14.3653 9.97087 14.3653C12.3909 14.3653 14.3509 12.3853 14.3509 9.97528C14.3509 7.56528 12.3909 5.60528 9.97087 5.60528ZM9.97087 12.6053C8.52087 12.6053 7.35088 11.4253 7.35088 9.98528C7.35088 8.54528 8.53087 7.36528 9.97087 7.36528C11.4109 7.36528 12.5909 8.54528 12.5909 9.98528C12.5909 11.4253 11.4209 12.6053 9.97087 12.6053Z" fill="currentColor"/>
  <path d="M18.4609 10.1653C18.4609 10.0353 18.4609 9.90528 18.4609 9.79528L19.7809 8.03528C19.9409 7.81528 19.9909 7.54528 19.9209 7.28528C19.6909 6.43528 19.3509 5.61528 18.9109 4.84528C18.7809 4.61528 18.5409 4.45528 18.2809 4.41528L16.1109 4.10528C16.0309 4.01528 15.9409 3.93528 15.8609 3.85528L15.5409 1.67528C15.5009 1.40528 15.3409 1.17528 15.1109 1.04528C14.3409 0.605281 13.5209 0.265281 12.6709 0.0352809C12.4109 -0.0347191 12.1309 0.0152809 11.9209 0.175281L10.1709 1.48528C10.0409 1.48528 9.91088 1.48528 9.78088 1.48528L8.03088 0.175281C7.81088 0.0152809 7.54088 -0.0447191 7.28088 0.0352809C6.43088 0.265281 5.61088 0.605281 4.84088 1.04528C4.61088 1.17528 4.45088 1.40528 4.41088 1.67528L4.10088 3.85528C4.02088 3.93528 3.93088 4.02528 3.85088 4.10528L1.67088 4.41528C1.40088 4.45528 1.17087 4.61528 1.04087 4.84528C0.600872 5.61528 0.260878 6.43528 0.0308779 7.28528C-0.0391221 7.54528 0.0108773 7.82528 0.170877 8.03528L1.49088 9.78528C1.49088 9.91528 1.49088 10.0453 1.49088 10.1553L0.170877 11.9153C0.0108773 12.1353 -0.0391221 12.4053 0.0308779 12.6653C0.260878 13.5153 0.600872 14.3353 1.04087 15.1053C1.17087 15.3353 1.41088 15.4953 1.67088 15.5353L3.85088 15.8453C3.93088 15.9253 4.02088 16.0153 4.10088 16.0953L4.41088 18.2753C4.45088 18.5453 4.61088 18.7753 4.84088 18.9053C5.61088 19.3453 6.43088 19.6853 7.28088 19.9153C7.36088 19.9353 7.43087 19.9453 7.51087 19.9453C7.70087 19.9453 7.88087 19.8853 8.04087 19.7753L9.79087 18.4653C9.92087 18.4653 10.0509 18.4653 10.1809 18.4653L11.9309 19.7753C12.1409 19.9353 12.4209 19.9853 12.6809 19.9153C13.5309 19.6853 14.3509 19.3453 15.1209 18.9053C15.3509 18.7753 15.5109 18.5353 15.5509 18.2753L15.8609 16.0953C15.9409 16.0153 16.0309 15.9253 16.1109 15.8453L18.2909 15.5353C18.5609 15.4953 18.7909 15.3353 18.9209 15.1053C19.3609 14.3353 19.7009 13.5153 19.9309 12.6653C20.0009 12.4053 19.9509 12.1253 19.7909 11.9153L18.4609 10.1653ZM17.5909 13.8653L15.5509 14.1553C15.3609 14.1853 15.1809 14.2753 15.0409 14.4153C15.0409 14.4153 14.6409 14.8353 14.4209 15.0353C14.2709 15.1753 14.1809 15.3553 14.1509 15.5553L13.8609 17.5953C13.4609 17.8053 13.0409 17.9753 12.6109 18.1153L10.9609 16.8753C10.7909 16.7453 10.5709 16.6853 10.3609 16.7053C10.1009 16.7253 9.85088 16.7253 9.59088 16.7053C9.38088 16.6853 9.16088 16.7453 8.99088 16.8753L7.34088 18.1153C6.91088 17.9753 6.49088 17.8053 6.09088 17.5953L5.80087 15.5553C5.77087 15.3553 5.68087 15.1753 5.54087 15.0453C5.33087 14.8453 5.12088 14.6353 4.92088 14.4253C4.78088 14.2853 4.60088 14.1853 4.41088 14.1653L2.37087 13.8753C2.16087 13.4753 1.99088 13.0553 1.85088 12.6253L3.09088 10.9753C3.21088 10.8153 3.27087 10.6153 3.26087 10.4153C3.26087 10.4053 3.23087 9.87528 3.26087 9.60528C3.28087 9.39528 3.22088 9.17528 3.09088 9.00528L1.85088 7.35528C1.99088 6.92528 2.16087 6.50528 2.37087 6.10528L4.41088 5.81528C4.61088 5.78528 4.79088 5.69528 4.92088 5.55528C5.12088 5.34528 5.33087 5.13528 5.54087 4.93528C5.68087 4.79528 5.78087 4.61528 5.80087 4.42528L6.09088 2.38528C6.49088 2.17528 6.91088 2.00528 7.34088 1.86528L8.99088 3.10528C9.16088 3.23528 9.38088 3.30528 9.59088 3.27528C9.85088 3.25528 10.1009 3.25528 10.3609 3.27528C10.5709 3.29528 10.7909 3.23528 10.9609 3.10528L12.6109 1.86528C13.0509 1.97528 13.4609 2.15528 13.8709 2.35528L14.1609 4.39528C14.1909 4.59528 14.2809 4.77528 14.4309 4.91528C14.6409 5.11528 14.8409 5.31528 15.0309 5.51528C15.1709 5.66528 15.3509 5.76528 15.5509 5.78528L17.5909 6.07528C17.8009 6.47528 17.9709 6.89528 18.1109 7.32528L16.8709 8.97528C16.7509 9.13528 16.6909 9.33528 16.7009 9.53528C16.7009 9.54528 16.7309 10.0753 16.7009 10.3453C16.6809 10.5553 16.7409 10.7753 16.8709 10.9453L18.1109 12.5953C17.9709 13.0453 17.8009 13.4653 17.5909 13.8653Z" fill="currentColor"/>
</symbol>

<!-- ============================================================ -->
<!-- icon-star                                                    -->
<!-- ============================================================ -->
<symbol id="icon-star" viewBox="0 0 20.05 19.3246">
  <path d="M10.6704 1.29866L12.713 6.16651C12.7625 6.28465 12.8432 6.38705 12.9466 6.46266C13.0499 6.53828 13.172 6.58425 13.2995 6.59561L18.5279 7.04758C18.6666 7.05873 18.7989 7.11078 18.9081 7.19714C19.0172 7.2835 19.0983 7.4003 19.141 7.53275C19.1837 7.6652 19.1862 7.80735 19.1482 7.94121C19.1101 8.07507 19.0332 8.19463 18.9271 8.28476L14.9606 11.7448C14.8641 11.8295 14.7925 11.9388 14.7531 12.0609C14.7138 12.1831 14.7083 12.3136 14.7372 12.4386L15.926 17.5861C15.9575 17.7205 15.9486 17.8612 15.9006 17.9907C15.8526 18.1202 15.7676 18.2326 15.6561 18.3141C15.5447 18.3956 15.4117 18.4424 15.2738 18.4488C15.1359 18.4553 14.9991 18.421 14.8805 18.3502L10.3873 15.6244C10.2781 15.558 10.1528 15.5229 10.025 15.5229C9.89722 15.5229 9.7719 15.558 9.66272 15.6244L5.16946 18.3502C5.0509 18.421 4.91415 18.4553 4.77623 18.4488C4.63832 18.4424 4.50534 18.3956 4.39387 18.3141C4.2824 18.2326 4.19738 18.1202 4.14938 17.9907C4.10138 17.8612 4.09254 17.7205 4.12396 17.5861L5.31279 12.4386C5.34168 12.3136 5.33618 12.1831 5.29685 12.0609C5.25753 11.9388 5.18585 11.8295 5.08944 11.7448L1.12288 8.28476C1.01684 8.19463 0.93991 8.07507 0.901836 7.94121C0.863762 7.80735 0.866251 7.6652 0.908988 7.53275C0.951726 7.4003 1.03279 7.2835 1.14193 7.19714C1.25106 7.11078 1.38336 7.05873 1.52209 7.04758L6.75046 6.59561C6.87801 6.58425 7.00005 6.53828 7.10341 6.46266C7.20676 6.38705 7.28751 6.28465 7.33695 6.16651L9.37959 1.29866C9.43414 1.17281 9.52431 1.06565 9.63898 0.990377C9.75365 0.915104 9.88783 0.875 10.025 0.875C10.1622 0.875 10.2963 0.915104 10.411 0.990377C10.5257 1.06565 10.6159 1.17281 10.6704 1.29866Z" stroke="currentColor" stroke-width="1.75" stroke-linecap="round" stroke-linejoin="round"/>
</symbol>

</defs>
</svg>
