<svg preserveAspectRatio="none" width="100%" height="100%" overflow="visible" style="display: block;" viewBox="0 0 1.6361 0.540255" fill="none" xmlns="http://www.w3.org/2000/svg">
<path id="Vector" d="M0.138262 0.399172C0.294394 0.423626 0.450524 0.44808 0.606656 0.472535C0.706355 0.487584 0.806055 0.506396 0.907635 0.517682C0.947138 0.521445 0.986642 0.525206 1.02615 0.528969C1.06565 0.532731 1.10515 0.538374 1.14465 0.540255C1.1898 0.540255 1.23307 0.540255 1.27821 0.540255C1.32336 0.540255 1.36474 0.536493 1.40801 0.523325L1.47197 0.504513L1.52464 0.481941L1.56979 0.446199L1.60553 0.401052C1.62246 0.374716 1.62998 0.348383 1.63186 0.318286C1.63751 0.299475 1.63751 0.27878 1.63186 0.259969C1.63186 0.239277 1.62622 0.220468 1.61681 0.203538C1.61117 0.184727 1.60176 0.167795 1.5886 0.154628C1.57355 0.130173 1.55285 0.111362 1.52652 0.098194L1.47573 0.0756216L1.45316 0.0662156C1.43058 0.05681 1.40237 0.0417634 1.38356 0.0361201C1.35722 0.0304767 1.329 0.0285932 1.30267 0.024831L1.18039 0.00978471C1.10139 0.000379187 1.02238 0.00225972 0.943376 0.000378613C0.86437 -0.00150249 0.781599 0.00414059 0.700712 0.0060217L0.463693 0.0154278L0.190933 0.024831C0.143905 0.024831 0.0893525 0.0436426 0.0554925 0.0812647L0.0253941 0.120769C0.0122263 0.143342 0.00470277 0.165914 0.00282166 0.192249C-0.000940555 0.209179 -0.000940555 0.22611 0.00282166 0.24304C0.00282166 0.269375 0.0122263 0.291949 0.0253941 0.314523C0.0498485 0.354026 0.091233 0.39541 0.140142 0.402935L0.138262 0.399172Z" fill="var(--fill-0, #212322)"/>
</svg>
