<svg preserveAspectRatio="none" width="100%" height="100%" overflow="visible" style="display: block;" viewBox="0 0 5.36895 10.5347" fill="none" xmlns="http://www.w3.org/2000/svg">
<path id="Vector" d="M5.01575 0.131222C4.8822 0.588332 4.73547 1.04168 4.57934 1.49314C4.42321 1.94461 4.25767 2.38668 4.08461 2.83062C3.98679 3.08081 3.88709 3.32911 3.78175 3.57554L3.8062 3.51534C3.61433 3.96869 3.41117 4.41827 3.1986 4.86222C2.98604 5.30616 2.76031 5.74258 2.52705 6.17335C2.29379 6.60412 2.04548 7.03114 1.78965 7.45063C1.53382 7.87011 1.26482 8.28772 0.986418 8.69592C0.708014 9.10412 0.431486 9.50856 0.147438 9.90924C0.111697 9.95815 0.0778377 10.0089 0.0420966 10.056C-0.00305009 10.118 -0.00869021 10.229 0.0101209 10.3005C0.028932 10.372 0.0872444 10.4529 0.154964 10.4905C0.228328 10.53 0.316743 10.5488 0.399512 10.5225L0.474756 10.4905C0.521783 10.4623 0.559407 10.4247 0.587623 10.3776L0.593266 10.3701L0.544356 10.4341C0.7889 10.1312 1.0184 9.8133 1.23849 9.49351C1.44541 9.19065 1.64292 8.88403 1.83668 8.57365C2.03043 8.26327 2.21478 7.94724 2.39537 7.62933C2.57596 7.31143 2.74902 6.99352 2.91832 6.66997C3.08762 6.34642 3.25127 6.01722 3.40741 5.68614C3.56354 5.35507 3.71591 5.02211 3.86076 4.68539C4.01313 4.33174 4.15985 3.97621 4.29905 3.6188C4.43825 3.26139 4.55677 2.93596 4.67716 2.58984C4.79755 2.24371 4.90477 1.89759 5.00635 1.54958C5.10793 1.20158 5.20763 0.846047 5.29792 0.492398C5.32049 0.405867 5.34119 0.317452 5.36376 0.230921C5.38633 0.138746 5.33367 0.0277585 5.23585 0.00518516C5.13803 -0.0173882 5.04021 0.0352873 5.01011 0.133105L5.01575 0.131222Z" fill="var(--fill-0, #212322)"/>
</svg>
