<svg preserveAspectRatio="none" width="100%" height="100%" overflow="visible" style="display: block;" viewBox="0 0 7.99808 10.4188" fill="none" xmlns="http://www.w3.org/2000/svg">
<path id="Vector" d="M0.0696837 0.396917C0.248389 0.603839 0.425215 0.812638 0.600158 1.02144C0.686689 1.1249 0.773222 1.23025 0.859753 1.33559C0.946284 1.44093 1.04034 1.54251 1.12875 1.64597C1.4824 2.05605 1.82852 2.47366 2.169 2.89691C2.36088 3.13581 2.55087 3.3766 2.73898 3.61926L2.67691 3.53837C2.81235 3.71331 2.94779 3.88449 3.08323 4.05944L3.01926 3.97667C3.31272 4.35665 3.60053 4.7404 3.8827 5.12979C4.16487 5.51918 4.4395 5.90857 4.7085 6.3036C4.9775 6.69863 5.24274 7.09931 5.49857 7.50375C5.7544 7.90819 6.01399 8.31263 6.26418 8.72083C6.39021 8.92587 6.52566 9.12526 6.65545 9.32842C6.80218 9.55792 6.96584 9.77613 7.13514 9.98869C7.17088 10.0338 7.20474 10.0827 7.24424 10.1241L7.18216 10.0451C7.22167 10.1034 7.2687 10.158 7.31384 10.2125C7.3383 10.2426 7.36275 10.2803 7.39285 10.3066L7.3383 10.2351L7.34394 10.2445C7.38721 10.3217 7.46997 10.3818 7.55462 10.4063C7.63927 10.4308 7.75026 10.4195 7.82551 10.3706C7.90075 10.3217 7.96659 10.2502 7.98728 10.1599C8.00797 10.0696 8.00045 9.97365 7.95154 9.889L7.94589 9.87959L7.98164 9.96424C7.97411 9.92474 7.95342 9.88523 7.94025 9.84761C7.9158 9.78177 7.89134 9.71217 7.85936 9.64821L7.89887 9.74227C7.8857 9.69712 7.86501 9.65198 7.84619 9.60871C7.82738 9.56545 7.81045 9.5203 7.79352 9.47515C7.74462 9.351 7.68818 9.23249 7.62987 9.1121C7.54334 8.93339 7.44364 8.76033 7.34582 8.58915C7.29691 8.5045 7.24988 8.41797 7.19909 8.33332C7.1483 8.24867 7.09375 8.1659 7.04108 8.08313C6.93574 7.91759 6.82852 7.75206 6.72129 7.58652C6.50497 7.25544 6.28111 6.93001 6.05162 6.60646C5.82212 6.28291 5.59263 5.965 5.35749 5.64897C5.10166 5.30473 4.84018 4.96237 4.57682 4.62565C4.33416 4.31715 4.08962 4.01053 3.83943 3.70767C3.58924 3.40481 3.33529 3.10195 3.07382 2.80662C2.81234 2.51128 2.54899 2.22159 2.28187 1.93378C2.01475 1.64597 1.74011 1.35816 1.46547 1.076C1.19083 0.793829 0.899253 0.528591 0.609562 0.263354C0.538079 0.197515 0.4666 0.133562 0.395118 0.0677229C0.349971 0.0263385 0.293539 0 0.231462 0C0.175029 0 0.10731 0.0244574 0.0678065 0.0677229C0.0283032 0.110988 -0.00179754 0.169302 8.35659e-05 0.231379C0.00196468 0.293455 0.0264221 0.346125 0.0678065 0.395034L0.0696837 0.396917Z" fill="var(--fill-0, #212322)"/>
</svg>
