<svg preserveAspectRatio="none" width="100%" height="100%" overflow="visible" style="display: block;" viewBox="0 0 16.7354 22.2581" fill="none" xmlns="http://www.w3.org/2000/svg">
<g id="Group">
<path id="Vector" d="M0.580388 16.9624C0.121397 15.7566 0.407322 14.3891 0.922746 13.2077C1.43817 12.0264 2.17369 10.9485 2.66466 9.7559C3.27602 8.27171 3.48858 6.65959 3.88738 5.1058C4.28617 3.552 4.34261 2.00197 5.57473 0.97488C5.95472 0.656973 6.56796 0.324015 7.50099 0.43312C8.21393 0.51777 8.69737 1.18368 8.89301 1.62574C9.08864 2.0678 9.12815 2.60016 9.14132 3.0836C9.22409 6.08397 8.28165 8.84921 9.23726 11.6934C10.492 15.435 13.9777 18.6818 16.2124 21.7405" fill="var(--fill-0, white)"/>
<path id="Vector_2" d="M0.804277 16.9023C0.785466 16.8139 0.770417 16.7273 0.757249 16.637L0.766658 16.7085C0.761015 16.669 0.757252 16.6295 0.753489 16.59L0.713988 16.7367C0.738442 16.6897 0.761012 16.6351 0.757249 16.5806C0.757249 16.5505 0.749728 16.5166 0.742203 16.4865C0.738441 16.4677 0.734679 16.4508 0.730917 16.432C0.725274 16.3944 0.719631 16.3586 0.713988 16.321L0.725274 16.4019C0.695176 16.1799 0.68577 15.9561 0.695175 15.7341L0.682006 15.8263C0.700817 15.7567 0.695173 15.6833 0.698936 15.6118C0.700817 15.5648 0.70458 15.5197 0.706462 15.4726C0.713986 15.3823 0.72339 15.2902 0.734677 15.1999L0.721514 15.2977C0.738444 15.1773 0.762896 15.0569 0.783588 14.9365C0.80428 14.8161 0.830616 14.6938 0.860714 14.5753C0.919028 14.3346 0.992391 14.0975 1.07704 13.8643C1.12407 13.7326 1.17486 13.6028 1.22941 13.4749L1.18991 13.5689C1.34416 13.2021 1.52474 12.8504 1.71097 12.4986C1.8972 12.1468 2.09096 11.7988 2.28095 11.447C2.47094 11.0953 2.65718 10.7454 2.82459 10.3842C3.00706 9.99107 3.16884 9.58851 3.30616 9.17654C3.43219 8.79468 3.53942 8.40717 3.63724 8.0159C3.73505 7.62463 3.82158 7.2296 3.90623 6.83644C3.99088 6.44329 4.07741 6.04261 4.17147 5.64946C4.25612 5.29205 4.35017 4.93652 4.4273 4.57535C4.49878 4.24427 4.56462 3.9132 4.64175 3.58212C4.71887 3.25105 4.80164 2.9463 4.91451 2.63968C4.94084 2.56632 4.96906 2.49484 5.00104 2.42148L4.95966 2.51929C5.08381 2.22396 5.23994 1.94367 5.43558 1.68972L5.37162 1.77249C5.53528 1.55993 5.72526 1.36805 5.93783 1.20251L5.85506 1.26647C6.0206 1.13856 6.19931 1.03322 6.39118 0.952329L6.29336 0.993711C6.48712 0.912823 6.69028 0.858272 6.89908 0.830055L6.78997 0.845104C7.02699 0.813126 7.26966 0.815007 7.50856 0.845104L7.39946 0.830055C7.51609 0.845104 7.63083 0.877084 7.73805 0.922231L7.63836 0.880846C7.76439 0.933517 7.88102 1.005 7.98824 1.08777L7.90359 1.02193C8.04468 1.13291 8.17071 1.26271 8.28169 1.40379L8.21586 1.31915C8.34377 1.48468 8.451 1.66527 8.53377 1.85714L8.4905 1.75556C8.58644 1.98318 8.63911 2.22396 8.67297 2.46662L8.65791 2.35187C8.70494 2.70364 8.71059 3.06105 8.70871 3.41658C8.70683 3.77211 8.69554 4.15962 8.67297 4.5302C8.65039 4.90078 8.6203 5.25819 8.58644 5.62124C8.55258 5.9843 8.51683 6.34359 8.48297 6.70476C8.44911 7.06594 8.41902 7.41959 8.39644 7.77888C8.37387 8.13817 8.3607 8.48994 8.36258 8.84547C8.36447 9.201 8.37951 9.55653 8.41526 9.91018C8.45476 10.3033 8.51307 10.6946 8.60148 11.0783C8.67861 11.4207 8.78207 11.7555 8.90246 12.0847C9.02285 12.4139 9.15265 12.7243 9.29561 13.0385C9.42541 13.3225 9.5665 13.6028 9.7151 13.8774C9.86371 14.1521 10.0255 14.4305 10.1929 14.6995C10.3603 14.9685 10.5277 15.2431 10.7046 15.5102C10.8814 15.7774 11.0676 16.0482 11.2557 16.3116C11.4438 16.575 11.6414 16.8383 11.8408 17.096C12.0646 17.3857 12.2885 17.6735 12.518 17.9595C12.7211 18.2153 12.928 18.4673 13.135 18.7213C13.3419 18.9752 13.545 19.2217 13.752 19.4719C13.9589 19.722 14.1545 19.9628 14.3558 20.2093C14.5571 20.4557 14.749 20.6965 14.9427 20.941C15.0349 21.0576 15.1271 21.1743 15.2174 21.2928L15.1346 21.1856C15.238 21.3191 15.3396 21.4527 15.4412 21.5881C15.5165 21.6878 15.5936 21.7856 15.6707 21.8834C15.697 21.9154 15.7215 21.9474 15.7478 21.9794C15.7742 22.0114 15.7967 22.049 15.8268 22.0772L15.7459 21.9719C15.7459 21.9719 15.7591 21.9907 15.7666 22.0001C15.7986 22.0603 15.8438 22.1092 15.9002 22.1468C15.951 22.1919 16.0093 22.2239 16.077 22.239C16.1466 22.2616 16.2143 22.2634 16.2839 22.2484C16.3535 22.2446 16.4175 22.2239 16.4777 22.1863C16.5887 22.1148 16.6865 22.0076 16.7166 21.8759L16.7354 21.7386C16.7354 21.6445 16.711 21.558 16.6639 21.4771C16.5417 21.3116 16.4363 21.1329 16.3028 20.9749L16.3855 21.0821C16.1203 20.7378 15.8494 20.3974 15.5748 20.0625C15.3171 19.7484 15.0556 19.438 14.7941 19.1276C14.5326 18.8172 14.258 18.4956 13.9909 18.1795C13.7237 17.8635 13.4472 17.5362 13.1801 17.2108C12.913 16.8853 12.6478 16.558 12.39 16.2269C12.3581 16.1856 12.3261 16.1461 12.2941 16.1047L12.3693 16.2025C12.2903 16.1009 12.2132 15.9993 12.1342 15.8978L12.2095 15.9956C11.852 15.5328 11.5059 15.0588 11.1805 14.5716C10.8551 14.0844 10.5748 13.6009 10.3152 13.093C10.1722 12.8127 10.0368 12.5268 9.9145 12.2371L9.95965 12.3443C9.72451 11.7856 9.53075 11.21 9.41224 10.6137C9.3765 10.435 9.34641 10.2563 9.32195 10.0757L9.337 10.1942C9.28621 9.80672 9.25799 9.41544 9.25235 9.02417C9.2467 8.6329 9.25611 8.24163 9.27868 7.85224C9.30126 7.46285 9.33512 7.06217 9.37086 6.66714C9.4066 6.27211 9.44798 5.87331 9.48184 5.47452C9.5157 5.07572 9.54768 4.6694 9.56649 4.26496C9.58531 3.86052 9.59095 3.44856 9.5759 3.03848C9.56837 2.84849 9.55709 2.65661 9.53451 2.4685C9.5063 2.24277 9.47432 2.01704 9.40848 1.79695C9.31819 1.49221 9.17522 1.19875 8.98335 0.944803C8.87613 0.801839 8.76326 0.664517 8.63158 0.544126C8.4999 0.423735 8.34941 0.308989 8.18764 0.22622C8.02586 0.143451 7.8434 0.0700861 7.66093 0.0418694C7.44084 0.00989053 7.22075 -0.00892 6.99878 0.00424777C6.80126 0.0155344 6.59998 0.0418702 6.40811 0.0926602C6.23505 0.137807 6.06763 0.203647 5.90585 0.278891C5.64062 0.403045 5.39983 0.577988 5.18539 0.775504C5.06123 0.888371 4.94649 1.01064 4.84115 1.14044C4.72075 1.29093 4.60601 1.44706 4.50631 1.6126C4.32572 1.91546 4.1884 2.24277 4.07741 2.57573C3.97207 2.88799 3.89306 3.20966 3.82158 3.52945C3.7501 3.84924 3.6805 4.20289 3.60525 4.53773C3.52249 4.9083 3.42467 5.27512 3.34002 5.6457C3.24972 6.04073 3.16695 6.43765 3.08042 6.83456C2.99389 7.23147 2.90548 7.62651 2.8039 8.01778C2.70232 8.40905 2.58946 8.79656 2.4559 9.17843C2.39006 9.36277 2.32046 9.54712 2.24333 9.72771L2.28472 9.63177C2.11918 10.023 1.92918 10.403 1.72979 10.7792C1.53039 11.1555 1.32158 11.5261 1.12219 11.9023C0.922788 12.2785 0.72339 12.6829 0.552209 13.0874C0.381028 13.4918 0.245587 13.8831 0.145888 14.2969C0.0461896 14.7108 -0.00836054 15.1604 0.00104501 15.5987C0.00104501 15.672 -0.00271606 15.7585 0.0198573 15.8282L0.00668811 15.736C0.021737 15.9128 0.0443094 16.0896 0.0762883 16.2627C0.0894561 16.336 0.106388 16.4075 0.125199 16.4809C0.134605 16.5166 0.144011 16.5524 0.155297 16.5881C0.160941 16.6069 0.166582 16.6239 0.170344 16.6427C0.177868 16.6747 0.183512 16.701 0.206085 16.733C0.236183 16.78 0.271925 16.812 0.318953 16.8439L0.215494 16.7405C0.264403 16.8571 0.320834 16.9719 0.38291 17.0829C0.439344 17.1826 0.567261 17.2221 0.672603 17.1769C0.781707 17.1299 0.830615 17.0189 0.80616 16.9041L0.804277 16.9023Z" fill="var(--fill-0, #212322)"/>
</g>
</svg>
