<svg preserveAspectRatio="none" width="100%" height="100%" overflow="visible" style="display: block;" viewBox="0 0 8.37498 8.15036" fill="none" xmlns="http://www.w3.org/2000/svg">
<path id="Vector" d="M0.0280918 0.176738C0.0224485 0.201192 0.0168019 0.227532 0.0130397 0.251987L0.0431382 0.180504C0.00363484 0.261391 -0.0114127 0.334751 0.00927955 0.423163C0.0111607 0.432568 0.0149245 0.440096 0.0168056 0.449501C0.0224489 0.468312 0.0262086 0.487121 0.031852 0.505932C0.0412575 0.545436 0.0525449 0.583061 0.0619504 0.620683L0.0506642 0.530388C0.0544264 0.564248 0.05819 0.596226 0.0638334 0.630086C0.07512 0.660184 0.0882844 0.690284 0.101452 0.720382L0.0675935 0.637612C0.238775 1.06839 0.426887 1.49164 0.639453 1.90548C0.836969 2.28923 1.0627 2.65981 1.3016 3.0191C1.45585 3.25236 1.61763 3.48185 1.78881 3.70194L1.71733 3.60977C2.03524 4.02173 2.36819 4.41865 2.7256 4.79487C3.05856 5.14476 3.40845 5.47771 3.77714 5.79186C4.17218 6.12858 4.58414 6.44649 5.01304 6.74182C5.40807 7.01458 5.81815 7.27229 6.24328 7.49614C6.70227 7.73881 7.17632 7.97018 7.68422 8.09434C7.77451 8.11691 7.8648 8.13948 7.95886 8.14701L7.84975 8.13196L7.85727 8.13572C7.91183 8.15265 7.96638 8.15453 8.02093 8.14325C8.07548 8.14136 8.12627 8.12443 8.1733 8.09434C8.25795 8.04355 8.34072 7.94573 8.36141 7.84791C8.38587 7.74257 8.38022 7.62406 8.32003 7.53188L8.25607 7.44912C8.20528 7.39833 8.14509 7.36258 8.07548 7.34377L8.06796 7.34001L8.16578 7.3814C8.14132 7.36259 8.10934 7.34754 8.08113 7.33249C8.05291 7.31744 8.02469 7.30051 7.99647 7.28358C7.94004 7.2516 7.88173 7.2215 7.8253 7.18952C7.71055 7.12556 7.5958 7.06725 7.47917 7.00705C7.36254 6.94686 7.24404 6.89231 7.12553 6.83399C7.00702 6.77568 6.89226 6.71549 6.77564 6.65341C6.31476 6.40698 5.86518 6.14363 5.43253 5.85205C5.18798 5.68652 4.94907 5.51345 4.71582 5.33287L4.81364 5.40811C4.42237 5.10525 4.04614 4.7817 3.68873 4.43934C3.33132 4.09697 2.99084 3.73392 2.66917 3.35394C2.49047 3.14137 2.31552 2.92504 2.14434 2.70495L2.21394 2.79525C1.98445 2.49803 1.76624 2.18953 1.5612 1.87538C1.35615 1.56124 1.15864 1.24145 0.976173 0.914136C0.925383 0.823843 0.876473 0.73167 0.827564 0.639495C0.803109 0.592467 0.778652 0.545438 0.754198 0.496529C0.742911 0.472074 0.729743 0.4495 0.718456 0.425046C0.694002 0.374256 0.67143 0.338512 0.631927 0.293366L0.684598 0.362972C0.662024 0.329112 0.641333 0.29525 0.620641 0.26139C0.611235 0.24446 0.599948 0.229409 0.590542 0.212479C0.584899 0.204955 0.581135 0.197431 0.577373 0.189907C0.530345 0.116543 0.470154 0.0732761 0.387385 0.0469405L0.458868 0.077039C0.436294 0.0638712 0.41372 0.048826 0.393028 0.0337771C0.265112 -0.0489918 0.0638308 0.0281335 0.031852 0.180504L0.0280918 0.176738Z" fill="var(--fill-0, #212322)"/>
</svg>
