<svg preserveAspectRatio="none" width="100%" height="100%" overflow="visible" style="display: block;" viewBox="0 0 7.46885 28.943" fill="none" xmlns="http://www.w3.org/2000/svg">
<g id="Group">
<path id="Vector" d="M0.261525 20.3178C0.780711 15.9555 1.30178 7.64289 1.82096 3.28059C1.947 2.23094 2.19907 0.998806 3.16784 0.573675C3.90712 0.250124 4.80629 0.573675 5.36686 1.15682C5.92743 1.73996 6.21148 2.52815 6.43533 3.30317C8.02675 8.80353 5.76377 23.0341 4.22502 28.5496" fill="var(--fill-0, white)"/>
<path id="Vector_2" d="M0.517402 20.3873C0.54938 20.2406 0.581359 20.0957 0.611457 19.949L0.470374 20.1333C0.517402 20.1032 0.558785 20.0656 0.587002 20.0186C0.618981 19.964 0.622742 19.9132 0.630266 19.8531C0.630266 19.8399 0.634029 19.8267 0.634029 19.8135L0.622743 19.8963C0.65096 19.7496 0.681056 19.6029 0.709273 19.4561L0.61898 19.6123C0.632148 19.601 0.643434 19.5878 0.650959 19.5728C0.682938 19.5389 0.703629 19.4975 0.714916 19.4505C0.72244 19.4166 0.724323 19.379 0.728085 19.3452C0.728085 19.332 0.729967 19.3207 0.731848 19.3075L0.718679 19.4016C0.741252 19.253 0.765706 19.1044 0.788279 18.9576L0.750657 19.0479C0.793923 18.9652 0.795806 18.9407 0.805211 18.8485C0.805211 18.841 0.80521 18.8335 0.807091 18.8278C0.807091 18.8166 0.808973 18.8034 0.810854 18.7921C0.814616 18.7658 0.816498 18.7394 0.82026 18.7131C0.825904 18.6604 0.831545 18.6059 0.83907 18.5532C0.850356 18.446 0.863525 18.3406 0.874811 18.2334C0.899266 18.0114 0.92372 17.7876 0.948175 17.5656C0.998964 17.0972 1.04599 16.6269 1.0949 16.1586C1.12312 15.882 1.14945 15.6074 1.17767 15.3309L1.16262 15.4437C1.18519 15.3064 1.19272 15.1653 1.20589 15.0261C1.21529 14.9208 1.2247 14.8154 1.2341 14.7101C1.25292 14.4975 1.27173 14.285 1.29054 14.0724C1.32816 13.6435 1.36578 13.2165 1.40152 12.7876C1.43726 12.3587 1.47677 11.9185 1.51439 11.484C1.55201 11.0495 1.58775 10.6206 1.62349 10.1879C1.65923 9.75525 1.69309 9.33576 1.72883 8.91063C1.76458 8.4855 1.79844 8.08106 1.83418 7.66722C1.86992 7.25337 1.90378 6.87151 1.93952 6.47271C1.97338 6.09649 2.00912 5.72027 2.04486 5.34216C2.07872 4.99228 2.11446 4.64239 2.1502 4.2925C2.18406 3.9746 2.21792 3.65481 2.25555 3.3369C2.26683 3.24849 2.27624 3.16008 2.28941 3.07167L2.27436 3.18829C2.32515 2.80831 2.39287 2.43021 2.51138 2.06339C2.54336 1.96181 2.58098 1.86023 2.62236 1.76241L2.5791 1.86775C2.66187 1.67024 2.76533 1.48213 2.89701 1.31095L2.82929 1.39936C2.92146 1.28085 3.0268 1.17174 3.14531 1.07957L3.0569 1.14729C3.16601 1.06452 3.28451 0.994919 3.41055 0.940367L3.30521 0.983632C3.43124 0.930961 3.56292 0.89522 3.69836 0.876408L3.58173 0.891458C3.73598 0.870765 3.89211 0.872647 4.04824 0.891458L3.93162 0.876408C4.11596 0.900863 4.29467 0.953534 4.46585 1.02502L4.36239 0.981752C4.55238 1.06264 4.73109 1.16798 4.89474 1.29402L4.80633 1.2263C4.97375 1.35609 5.12048 1.50658 5.25027 1.67212L5.18255 1.58371C5.39324 1.85647 5.55877 2.16309 5.69233 2.481L5.64719 2.37377C5.80332 2.74435 5.92183 3.13186 6.02529 3.51937C6.08173 3.73193 6.12875 3.94826 6.17202 4.16459C6.19647 4.29627 6.22093 4.42606 6.24162 4.55774L6.22469 4.43171C6.22845 4.51448 6.24915 4.59913 6.26231 4.68002C6.26984 4.72328 6.27548 4.76466 6.283 4.80793C6.29617 4.89634 6.30934 4.98475 6.32063 5.07128L6.30369 4.94525C6.34884 5.28573 6.38458 5.62809 6.4128 5.97234C6.4429 6.34104 6.46359 6.70973 6.47864 7.07843C6.49369 7.47158 6.50122 7.86473 6.5031 8.25789C6.50498 8.67173 6.50121 9.08558 6.48993 9.49942C6.47864 9.91326 6.46359 10.3666 6.44478 10.8011C6.42597 11.2357 6.39963 11.6909 6.36953 12.1367C6.33944 12.5826 6.3037 13.0472 6.26607 13.5005C6.22845 13.9539 6.18331 14.4242 6.13628 14.885C6.08925 15.3459 6.03846 15.8181 5.98391 16.2846C5.92936 16.7511 5.87292 17.212 5.81084 17.6728C5.79579 17.7838 5.78075 17.8967 5.7657 18.0077L5.78263 17.8798C5.72808 18.2861 5.67165 18.6924 5.61521 19.0987C5.55878 19.505 5.50046 19.8982 5.43838 20.297C5.37631 20.6958 5.31799 21.0758 5.25404 21.4633C5.19008 21.8508 5.128 22.2176 5.06216 22.5938C4.99632 22.9701 4.93237 23.3218 4.86465 23.6849C4.79693 24.0479 4.73297 24.379 4.66337 24.7251C4.59753 25.0524 4.53169 25.3779 4.46209 25.7033C4.39813 26.008 4.33229 26.3128 4.26457 26.6175C4.20062 26.8997 4.13666 27.18 4.06894 27.4603C4.00686 27.7142 3.94478 27.9682 3.88647 28.224C3.88082 28.2522 3.8733 28.2804 3.86766 28.3086C3.8639 28.3218 3.86202 28.3369 3.85825 28.35C3.85825 28.3576 3.85449 28.3651 3.85261 28.3726C3.83192 28.461 3.83568 28.5118 3.85261 28.6021V28.3858C3.84885 28.4008 3.84508 28.4159 3.83944 28.4309C3.81122 28.5325 3.82815 28.6529 3.88083 28.7432C3.92973 28.8278 4.02567 28.9068 4.12349 28.9294C4.22695 28.9539 4.34358 28.9482 4.43575 28.888C4.52793 28.8278 4.59377 28.7488 4.62198 28.6454C4.62575 28.6303 4.62951 28.6153 4.63515 28.6002L4.53169 28.7789C4.58812 28.715 4.61634 28.6679 4.64268 28.587C4.64456 28.5795 4.64832 28.572 4.6502 28.5645C4.65584 28.5494 4.6596 28.5344 4.66525 28.5193C4.67465 28.4892 4.68406 28.4572 4.69347 28.4272C4.71228 28.3651 4.73297 28.3011 4.75178 28.239C4.79128 28.1092 4.82514 27.9776 4.859 27.8478C4.93425 27.5637 5.00573 27.2797 5.07533 26.9937C5.15058 26.6834 5.22394 26.3711 5.29542 26.0588C5.37255 25.724 5.44403 25.3873 5.51551 25.0524C5.59076 24.6969 5.66412 24.3395 5.73372 23.9821C5.80708 23.6077 5.88045 23.2315 5.95005 22.8572C6.01965 22.4828 6.09301 22.0765 6.16073 21.6853C6.22845 21.294 6.29805 20.8783 6.36389 20.4757C6.42973 20.0731 6.49557 19.6499 6.55764 19.236C6.62725 18.7752 6.69121 18.3143 6.75328 17.8534C6.80972 17.4283 6.86426 17.0032 6.91505 16.578C6.96584 16.1529 7.01476 15.7259 7.06179 15.2989C7.10881 14.8719 7.1502 14.4486 7.1897 14.0235C7.2292 13.5984 7.26495 13.1826 7.29693 12.7613C7.3289 12.3399 7.35712 11.9336 7.37969 11.5197C7.40226 11.1059 7.42296 10.7109 7.43801 10.3064C7.45306 9.90198 7.46246 9.52388 7.46622 9.1326C7.46999 8.74133 7.46998 8.38016 7.46434 8.00394C7.4587 7.62772 7.44741 7.28911 7.43048 6.9317C7.41355 6.59498 7.39098 6.25827 7.36276 5.92155C7.33078 5.5679 7.2894 5.21613 7.24237 4.86436C7.20287 4.57655 7.15584 4.29062 7.09752 4.00846C7.04297 3.75075 6.9809 3.49491 6.90753 3.24096C6.75893 2.73306 6.5821 2.22516 6.33568 1.75489C6.20024 1.49529 6.03658 1.25451 5.84847 1.02878C5.66036 0.803046 5.4666 0.628102 5.23711 0.468208C5.13929 0.400488 5.03583 0.338411 4.92861 0.283858C4.79317 0.216138 4.65208 0.155943 4.50724 0.110797C4.39625 0.0750555 4.28338 0.0487207 4.16863 0.0336718C4.01815 0.0129796 3.86766 -0.00583263 3.71529 0.00169182C3.56292 0.00921626 3.41243 0.0299086 3.26758 0.0694119C3.12274 0.108915 2.99106 0.165349 2.86126 0.231188C2.74087 0.293264 2.63365 0.374152 2.52455 0.458802C2.44554 0.520878 2.37218 0.588599 2.30446 0.663844C1.97714 1.0269 1.77022 1.4746 1.63478 1.94112C1.49934 2.40763 1.43915 2.85346 1.38459 3.31433C1.34321 3.66233 1.3037 4.01222 1.26796 4.36211C1.22658 4.74774 1.18708 5.13524 1.14945 5.52087C1.10807 5.93848 1.07045 6.3542 1.03094 6.77181C0.991441 7.21199 0.951936 7.65405 0.912433 8.09423C0.87293 8.53441 0.833428 9.01221 0.793925 9.46932C0.754422 9.92643 0.713035 10.408 0.677294 10.8783C0.641553 11.3486 0.603932 11.8264 0.566309 12.2985C0.528687 12.7707 0.492947 13.2409 0.455325 13.7131C0.417702 14.1853 0.381959 14.6386 0.344337 15.0995C0.306715 15.5604 0.276618 15.993 0.242758 16.4388C0.208898 16.8847 0.176919 17.2872 0.143059 17.7123C0.128011 17.9061 0.111082 18.098 0.0941516 18.2917C0.0866272 18.3858 0.0772207 18.4798 0.0696963 18.5739C0.0659341 18.6209 0.0621705 18.668 0.0565271 18.7169C0.0490027 18.7977 0.0377168 18.8711 0.0602901 18.952L0.0471239 18.8504C0.0433616 18.9388 0.0377169 19.0254 0.0339547 19.1138C0.0320736 19.1552 0.0301938 19.1984 0.0264315 19.2398C0.0264315 19.2624 0.0245496 19.2831 0.0226685 19.3057C0.0226685 19.3169 0.0207866 19.3263 0.0189055 19.3357C0.0189055 19.3395 0.0189055 19.3452 0.0189055 19.3489C0.0189055 19.3978 0.0264306 19.443 0.0490039 19.4862C0.0527662 19.5032 0.0602907 19.5201 0.0696963 19.5333L0.0207884 19.3546C0.0189073 19.443 0.0170236 19.5314 0.0151425 19.6198C0.0151425 19.6612 0.0132634 19.7044 0.0113823 19.7458C0.0113823 19.7684 0.0113805 19.7891 0.00949936 19.8117C9.38069e-05 19.9095 0.0283125 20.0035 0.0997947 20.075L0.00949936 19.8568C0.00761825 20.0073 0.00385832 20.1559 9.61031e-05 20.3064C-0.00366612 20.4381 0.103557 20.5509 0.229592 20.5679C0.355626 20.5848 0.492945 20.5077 0.521162 20.3779L0.517402 20.3873Z" fill="var(--fill-0, #212322)"/>
</g>
</svg>
