<svg preserveAspectRatio="none" width="100%" height="100%" overflow="visible" style="display: block;" viewBox="0 0 8.2045 8.92058" fill="none" xmlns="http://www.w3.org/2000/svg">
<path id="Vector" d="M0.0516426 1.97077C0.0516426 1.97077 0.0648115 1.97829 0.0704548 1.98205C0.074217 1.98205 0.0760958 1.98582 0.0798581 1.9877C0.0930258 1.99522 0.0798606 1.9971 0.0648117 1.98017L0.109957 2.01591C0.136292 2.03284 0.162628 2.04037 0.192726 2.04225C0.243516 2.04978 0.288664 2.04037 0.335692 2.01591L0.343212 2.01215L0.290542 2.03472C0.444793 1.97077 0.599048 1.91057 0.753299 1.85226C0.945172 1.77889 1.13328 1.69048 1.32328 1.60959L1.24991 1.64157C1.33644 1.60583 1.42297 1.56821 1.5095 1.53435C1.62049 1.4892 1.73524 1.44782 1.84622 1.39891L1.76533 1.43277C2.24313 1.23901 2.73222 1.05655 3.23636 0.9418C3.37368 0.909821 3.51288 0.885368 3.65397 0.866556L3.54674 0.881603C3.93237 0.830813 4.32553 0.819527 4.71303 0.870317L4.59828 0.85527C4.88609 0.894774 5.16826 0.966256 5.43726 1.07912L5.33004 1.03397C5.54825 1.12615 5.75329 1.24278 5.93952 1.38762L5.84546 1.31614C6.03733 1.46475 6.20852 1.63969 6.35901 1.83344L6.28376 1.73751C6.49257 2.01027 6.6581 2.31501 6.79166 2.63104L6.74275 2.51253C6.90077 2.88687 7.00799 3.28002 7.08323 3.67881C7.10581 3.80109 7.12462 3.92148 7.14155 4.04563L7.12274 3.91208C7.19046 4.4275 7.20551 4.94856 7.166 5.46587C7.15472 5.6126 7.13967 5.75932 7.11898 5.90605L7.13778 5.76873C7.09452 6.0904 7.03056 6.41019 6.94967 6.72433C6.91017 6.88235 6.86314 7.0366 6.81611 7.19273C6.79354 7.26986 6.76909 7.34698 6.74275 7.42411C6.71642 7.50123 6.68632 7.57648 6.66374 7.6536C6.63929 7.74013 6.61296 7.82667 6.58474 7.9132C6.57157 7.95458 6.55652 7.99597 6.54336 8.03735C6.52831 8.08062 6.50761 8.12388 6.49821 8.16902L6.54147 8.06557C6.52078 8.10695 6.49821 8.1521 6.4888 8.19725C6.48692 8.2123 6.48316 8.22734 6.48128 8.24239C6.46999 8.30071 6.45494 8.3609 6.45494 8.4211L6.50762 8.22358C6.48504 8.27813 6.46435 8.32704 6.44742 8.38347C6.43049 8.43991 6.42296 8.48505 6.41544 8.54713L6.46435 8.36466L6.4587 8.37407C6.41356 8.45872 6.39663 8.5603 6.42296 8.65435C6.44554 8.739 6.51138 8.8293 6.59038 8.87068C6.67503 8.91583 6.77661 8.93652 6.87067 8.90642C6.96472 8.87633 7.04185 8.82366 7.08699 8.73901L7.09264 8.7296L7.03621 8.80296C7.05502 8.78792 7.07006 8.76722 7.08511 8.74841C7.11897 8.70703 7.15659 8.66564 7.18481 8.61861L7.04373 8.7597C7.09264 8.72584 7.13402 8.6901 7.17541 8.64871C7.18481 8.63931 7.19234 8.6299 7.20175 8.6205C7.20551 8.61673 7.21115 8.61109 7.21491 8.60544C7.23936 8.57723 7.27323 8.53772 7.29016 8.50575L7.22243 8.59416C7.30144 8.5001 7.36352 8.39288 7.42559 8.28754C7.47074 8.21229 7.51212 8.13705 7.55539 8.05992C7.61747 7.94706 7.66262 7.82479 7.71152 7.7044C7.74538 7.62351 7.77737 7.54073 7.80746 7.45797C7.92974 7.12501 8.01438 6.77324 8.07458 6.42335C8.1423 6.03208 8.18745 5.63517 8.20061 5.23637C8.2119 4.88084 8.19873 4.52531 8.15923 4.17166C8.11596 3.78604 8.05389 3.40041 7.95419 3.02419C7.86013 2.66866 7.73221 2.32442 7.5742 1.99334C7.41619 1.66226 7.21303 1.37069 6.97601 1.1017C6.87067 0.983185 6.75592 0.870317 6.63177 0.770618C6.47564 0.644583 6.31386 0.526074 6.13891 0.430137C5.96397 0.334201 5.77774 0.255196 5.58775 0.191238C5.43162 0.138567 5.26984 0.0971781 5.10807 0.0689614C4.74125 0.00500367 4.36879 -0.0175684 3.99821 0.0144105C3.88347 0.023816 3.76872 0.0388652 3.65397 0.0557952L3.76308 0.0407459C3.52041 0.0727248 3.28151 0.121637 3.04637 0.191238C2.85826 0.247672 2.67203 0.315387 2.48768 0.38687C2.05314 0.558051 1.62989 0.753689 1.21793 0.971898C1.1107 1.02833 1.00348 1.08664 0.896259 1.14684C0.843588 1.17694 0.789035 1.20704 0.736364 1.23714C0.666763 1.27664 0.591519 1.31238 0.531323 1.36693L0.58776 1.32178C0.504991 1.37633 0.422223 1.42901 0.341335 1.48356C0.303713 1.5099 0.266088 1.53435 0.226584 1.56069C0.187081 1.58702 0.151341 1.61712 0.109957 1.63969C0.0685721 1.66226 0.0365911 1.70365 0.0196612 1.74691C0.00273116 1.79018 -0.00855504 1.84661 0.00837495 1.89176L0.0121408 1.90304L0.00649774 1.8579C0.00649774 1.87107 0.00649774 1.88423 0.00649774 1.8974C0.00649774 1.93126 0.0253049 1.96512 0.0554027 1.98205L0.0516426 1.97077Z" fill="var(--fill-0, #212322)"/>
</svg>
