<svg preserveAspectRatio="none" width="100%" height="100%" overflow="visible" style="display: block;" viewBox="0 0 6.0539 17.4291" fill="none" xmlns="http://www.w3.org/2000/svg">
<g id="Group">
<path id="Vector" d="M0.66086 17.2388C0.66086 13.8961 -0.042675 8.12296 0.93174 3.81521C1.14807 2.86149 1.42459 1.87014 2.10179 1.16285C2.77711 0.455548 3.97914 0.154572 4.74475 0.764051C5.71352 1.53343 5.40126 3.03455 5.15671 4.24599C4.57169 7.13725 4.44001 12.8859 5.67402 15.5665" fill="var(--fill-0, white)"/>
<path id="Vector_2" d="M0.846979 17.239C0.871433 17.0226 0.892127 16.8044 0.912819 16.5881L0.877077 16.7179C0.920343 16.6558 0.9147 16.5768 0.918462 16.5035C0.918462 16.4715 0.922222 16.4395 0.922222 16.4075C0.925985 16.3398 0.927869 16.2721 0.931631 16.2044C0.937275 16.0689 0.942915 15.9316 0.946678 15.7943C0.95044 15.7134 0.952323 15.6325 0.954204 15.5516L0.942918 15.64C0.961729 15.5798 0.956087 15.514 0.956087 15.45C0.956087 15.4143 0.956087 15.3804 0.956087 15.3447C0.956087 15.2713 0.956085 15.198 0.954204 15.1227C0.952323 14.9741 0.950442 14.8236 0.948561 14.675C0.944798 14.3665 0.937277 14.0561 0.927871 13.7476C0.918466 13.4391 0.909055 13.1005 0.89965 12.777C0.890244 12.4534 0.884604 12.1129 0.873317 11.78C0.862031 11.447 0.854505 11.0971 0.848862 10.7567C0.843219 10.4162 0.839459 10.0644 0.839459 9.71829C0.839459 9.37216 0.84322 9.02604 0.850745 8.67992C0.858269 8.33379 0.871434 7.98579 0.888364 7.63966C0.905294 7.29354 0.92787 6.95682 0.956087 6.61634C0.984303 6.27586 1.02004 5.94478 1.06143 5.60994C1.07083 5.52905 1.08212 5.45005 1.09153 5.36916L1.07647 5.48391C1.13103 5.08511 1.19499 4.6882 1.27399 4.29316C1.353 3.89813 1.45082 3.47864 1.56933 3.07985C1.63705 2.85035 1.71606 2.62274 1.80823 2.40265L1.76496 2.50611C1.89664 2.19385 2.0603 1.89475 2.26722 1.62575L2.1995 1.71416C2.33494 1.53922 2.48731 1.37744 2.66413 1.242L2.57572 1.30972C2.74126 1.18181 2.92373 1.07458 3.11748 0.993696L3.01402 1.03696C3.20213 0.957956 3.40153 0.901522 3.60469 0.873305L3.48806 0.888355C3.65548 0.865781 3.82666 0.8639 3.99596 0.886473L3.87933 0.871425C4.02041 0.890236 4.15961 0.927858 4.29129 0.98241L4.18783 0.939144C4.30446 0.988053 4.41357 1.05201 4.51327 1.12914L4.42486 1.06142C4.52832 1.1423 4.62049 1.23448 4.70138 1.33794L4.63366 1.24953C4.72207 1.36239 4.79167 1.48655 4.84811 1.61822L4.80296 1.51288C4.8782 1.69159 4.92523 1.88158 4.95156 2.07534L4.93652 1.95871C4.97602 2.25968 4.96849 2.56443 4.94028 2.86352C4.93087 2.95193 4.92147 3.04223 4.91018 3.13064L4.92523 3.01213C4.87444 3.39211 4.79543 3.76833 4.71831 4.14268C4.65999 4.4286 4.6092 4.71453 4.56594 5.00234C4.53396 5.21867 4.50386 5.43688 4.47564 5.65321L4.49257 5.53094C4.44366 5.86577 4.41356 6.20437 4.38535 6.54297C4.35713 6.859 4.33644 7.17691 4.31951 7.49482C4.30258 7.81272 4.28941 8.15509 4.28001 8.48616C4.2706 8.81724 4.26872 9.16524 4.27249 9.50384C4.27625 9.84244 4.28377 10.1829 4.29694 10.5215C4.3101 10.8601 4.3308 11.1912 4.35902 11.526C4.38723 11.8609 4.41921 12.1788 4.45871 12.5042C4.50198 12.8503 4.55277 13.1965 4.61484 13.5407C4.64118 13.6874 4.6694 13.8323 4.70138 13.9771C4.73336 14.122 4.76157 14.2593 4.80108 14.3985C4.87632 14.6581 4.95909 14.9158 5.05691 15.166C5.06819 15.1942 5.07948 15.2224 5.09076 15.2488C5.09641 15.2638 5.10205 15.2789 5.10958 15.292C5.12839 15.3372 5.14344 15.388 5.16789 15.4293L5.12651 15.3296C5.16225 15.4218 5.20363 15.5046 5.25254 15.5892C5.26759 15.6156 5.28264 15.6419 5.29769 15.6664C5.30521 15.6795 5.31274 15.6927 5.32026 15.704C5.32402 15.7115 5.32779 15.7171 5.33343 15.7247C5.38986 15.8131 5.46511 15.8695 5.56481 15.9015L5.33907 15.7284C5.33907 15.7284 5.3466 15.7472 5.35224 15.7548C5.3767 15.798 5.40867 15.8338 5.45006 15.8601C5.4858 15.894 5.52906 15.9165 5.57797 15.9278C5.66827 15.9523 5.78866 15.941 5.86766 15.8902C5.94667 15.8394 6.01816 15.7604 6.04073 15.6645L6.0539 15.5648C6.0539 15.4971 6.03696 15.4331 6.0031 15.3748C5.99934 15.3654 5.99558 15.356 5.98994 15.3485V15.7284C6.0238 15.6494 6.04261 15.6212 6.04261 15.5328C6.04261 15.45 6.03697 15.4632 6.02756 15.4256C6.02568 15.4162 6.02192 15.4068 6.01816 15.3974C6.01251 15.3767 6.00499 15.356 5.99934 15.3353C5.98806 15.2958 5.97677 15.2563 5.96549 15.2168C5.94291 15.1321 5.9147 15.0512 5.88836 14.9703C5.83193 14.7992 5.78301 14.6242 5.73787 14.4493C5.64005 14.0637 5.55164 13.6743 5.48204 13.283C5.43877 13.046 5.40303 12.8071 5.37105 12.5682L5.38798 12.6886C5.32214 12.2032 5.27699 11.716 5.24313 11.2288C5.20927 10.7416 5.19046 10.2205 5.18482 9.71453C5.17918 9.20851 5.18482 8.70625 5.20175 8.20211C5.21868 7.69797 5.2469 7.23334 5.28452 6.75178C5.32026 6.30783 5.36729 5.86389 5.42373 5.42183C5.42937 5.37104 5.43689 5.32025 5.44441 5.26946L5.42749 5.39173C5.46135 5.13778 5.50085 4.88383 5.546 4.62988C5.59679 4.34208 5.65886 4.05615 5.70965 3.76834C5.77361 3.40528 5.82816 3.03658 5.84698 2.66788C5.8545 2.50799 5.8545 2.34622 5.84509 2.18632C5.83192 1.99633 5.80747 1.80634 5.76421 1.62011C5.72094 1.43388 5.6551 1.26834 5.57609 1.10468C5.49709 0.941026 5.38798 0.792418 5.26759 0.655097C5.2168 0.596783 5.16225 0.542231 5.10393 0.493322C5.01928 0.419958 4.92899 0.350357 4.83305 0.290161C4.73712 0.229966 4.63177 0.184819 4.52643 0.141553C4.45495 0.111456 4.38347 0.0870014 4.30822 0.0681903C4.19724 0.0399736 4.08249 0.0249256 3.96962 0.0117578C3.8925 0.00235229 3.81537 -0.00141091 3.73825 0.000470205C3.66112 0.00235132 3.57835 0.00799539 3.49935 0.0174009C3.3846 0.0324498 3.26985 0.0474983 3.15698 0.0757149C2.96511 0.122743 2.77888 0.194225 2.60018 0.278875C2.45157 0.348476 2.31049 0.433127 2.17881 0.529063C2.01703 0.649454 1.86466 0.777369 1.72922 0.929739C1.58438 1.0934 1.45081 1.27022 1.33419 1.45457C1.11786 1.79881 0.956086 2.1788 0.82629 2.56254C0.704017 2.91995 0.61184 3.28677 0.529071 3.65359C0.450064 3.99783 0.38423 4.34395 0.327796 4.69196C0.263839 5.08511 0.211166 5.48015 0.167901 5.87518C0.126516 6.24388 0.0964167 6.61445 0.0719622 6.98503C0.0475078 7.35561 0.030578 7.73748 0.0192914 8.11558C0.00800469 8.49369 0.00236021 8.87555 0.000479102 9.25553C-0.00140201 9.63552 0.00236366 10.0174 0.0098881 10.3993C0.0174125 10.7811 0.0268188 11.1498 0.0399866 11.5242C0.0531543 11.8985 0.0700823 12.2578 0.0907745 12.6246C0.111467 12.9914 0.134041 13.3357 0.156615 13.6912C0.162258 13.774 0.167899 13.8567 0.171661 13.9395C0.179185 14.0524 0.179186 14.1709 0.201759 14.2819L0.18859 14.1803C0.216807 14.5433 0.245024 14.9045 0.27136 15.2676C0.275122 15.3165 0.278884 15.3654 0.282646 15.4143C0.282646 15.4387 0.286408 15.4632 0.288289 15.4877C0.292051 15.5384 0.28829 15.6005 0.307101 15.6457L0.295815 15.5573C0.325913 15.8319 0.356009 16.1065 0.382344 16.3812C0.386107 16.4188 0.389868 16.4545 0.393631 16.4922C0.393631 16.511 0.397393 16.5298 0.399274 16.5467C0.399274 16.5561 0.399274 16.5655 0.399274 16.5768C0.401155 16.6238 0.410565 16.6822 0.438781 16.7217L0.40304 16.5919C0.431256 16.8082 0.459472 17.0264 0.483926 17.2427C0.489569 17.2935 0.500858 17.3368 0.53848 17.3744C0.570459 17.4064 0.623126 17.4308 0.670154 17.429C0.717182 17.4271 0.767974 17.4102 0.801834 17.3744C0.837575 17.3368 0.850745 17.2954 0.856388 17.2427L0.846979 17.239Z" fill="var(--fill-0, #212322)"/>
</g>
</svg>
