<svg preserveAspectRatio="none" width="100%" height="100%" overflow="visible" style="display: block;" viewBox="0 0 25.4763 30.1034" fill="none" xmlns="http://www.w3.org/2000/svg">
<path id="Vector" d="M1.85582 11.8528C2.70232 13.1847 3.96266 14.3208 4.80916 15.6508C5.03302 16.0026 5.27192 16.5612 5.65755 16.7211C6.43068 17.0409 6.82195 16.3694 7.38064 15.7467C9.05295 13.8825 10.7027 11.9977 12.3298 10.094C13.0936 9.20046 13.8949 8.1809 13.846 7.00708C13.7482 4.72153 10.5842 3.51386 10.4412 1.23019C12.0402 0.0149968 15.0687 -0.592602 16.5153 0.801301C17.9619 2.1952 17.6854 5.87278 18.165 5.22944C20.1553 7.72567 21.9103 10.1203 23.9006 12.6147C24.5985 13.4894 25.3227 14.4262 25.4544 15.5379C25.5917 16.691 25.0631 17.8141 24.4969 18.828C22.0082 23.2881 18.4999 27.1745 14.3182 30.1034C11.5906 27.8818 8.81405 25.6094 6.91789 22.6466C6.53227 22.0447 6.17485 21.4051 5.63309 20.9386C5.09321 20.4758 4.41225 20.22 3.76891 19.9171C2.26214 19.208 0.836258 18.1094 0.241827 16.5556C-0.352604 14.9999 0.159064 12.9533 1.66395 12.2422" fill="var(--fill-0, #A42489)"/>
</svg>
