<svg preserveAspectRatio="none" width="100%" height="100%" overflow="visible" style="display: block;" viewBox="0 0 7.50375 19.4304" fill="none" xmlns="http://www.w3.org/2000/svg">
<g id="Group">
<path id="Vector" d="M0.171588 18.6551C0.924032 15.0641 1.6746 7.52085 2.42704 3.92981C2.61515 3.02688 2.82019 2.09196 3.377 1.36021C3.93569 0.626579 4.95713 0.160064 5.80175 0.528761C6.85517 0.989634 7.06398 2.37225 7.06962 3.52161C7.09407 7.42303 6.52786 15.2804 5.39543 19.0144" fill="var(--fill-0, white)"/>
<path id="Vector_2" d="M0.333605 18.7001C0.39192 18.4763 0.448355 18.2505 0.502907 18.0267C0.563102 17.7784 0.619535 17.5282 0.675969 17.2799C0.709829 17.1294 0.741807 16.9808 0.775667 16.8303L0.749332 16.8943C0.785073 16.8265 0.792597 16.7475 0.807646 16.6723C0.817051 16.6196 0.828339 16.5669 0.837744 16.5124C0.858436 16.4052 0.879129 16.2961 0.899821 16.1888C0.943087 15.9631 0.984471 15.7374 1.02586 15.5116C1.11239 15.0357 1.18387 14.5579 1.25723 14.0801C1.33059 13.6023 1.4096 13.0812 1.48485 12.5809C1.56009 12.0805 1.62593 11.5594 1.69553 11.0478C1.76513 10.5361 1.83473 10.032 1.90621 9.52407C1.9777 9.01617 2.04542 8.54024 2.1169 8.04927C2.18462 7.58464 2.25422 7.12001 2.3257 6.65537C2.39154 6.22836 2.46114 5.80135 2.53639 5.37622C2.60223 4.99999 2.66994 4.62565 2.74707 4.25319C2.85429 3.72648 2.9634 3.19601 3.1327 2.68435C3.17784 2.54891 3.22675 2.41535 3.28319 2.28555L3.24368 2.37772C3.36784 2.08427 3.52209 1.80399 3.71584 1.55004L3.65565 1.62716C3.78921 1.45598 3.94346 1.30173 4.11652 1.16817L4.03751 1.22837C4.20117 1.10233 4.37987 0.998869 4.56987 0.917982L4.47581 0.957485C4.64887 0.886003 4.82946 0.833333 5.01569 0.808878L4.90847 0.823926C5.06084 0.803234 5.21321 0.803234 5.36558 0.823926L5.25647 0.808878C5.39191 0.827689 5.52547 0.86343 5.6515 0.916102L5.55181 0.874717C5.67972 0.929269 5.80199 1.00075 5.91298 1.0854L5.82833 1.01956C5.94308 1.10986 6.04654 1.21332 6.13683 1.32995L6.06911 1.24341C6.19327 1.40519 6.29484 1.5839 6.37385 1.77201L6.33059 1.66854C6.43593 1.91873 6.50741 2.18397 6.55444 2.45109C6.56949 2.53009 6.58077 2.6091 6.59206 2.68811L6.57701 2.57336C6.62592 2.94018 6.63721 3.30887 6.63721 3.67757C6.63721 3.98231 6.63344 4.28517 6.62968 4.58991C6.62404 4.92663 6.61463 5.26523 6.60335 5.60195C6.59018 5.96876 6.57513 6.3337 6.56008 6.70052C6.54315 7.08803 6.52434 7.47365 6.50177 7.85928C6.47919 8.24491 6.45286 8.6644 6.42652 9.06507C6.40019 9.46575 6.36633 9.89276 6.33247 10.3047C6.29861 10.7167 6.26098 11.1362 6.22148 11.5538C6.18198 11.9714 6.13871 12.3834 6.09168 12.7953C6.04466 13.2073 5.99763 13.6117 5.94496 14.018C5.93179 14.114 5.9205 14.2118 5.90734 14.3077L5.92239 14.1949C5.87536 14.5448 5.82457 14.8946 5.7719 15.2426C5.71922 15.5906 5.66655 15.9086 5.60636 16.2415C5.54992 16.5538 5.49161 16.8642 5.42577 17.1745C5.36558 17.4624 5.30162 17.7502 5.23202 18.038C5.16806 18.2976 5.10034 18.5572 5.02321 18.8149C5.01381 18.845 5.00628 18.8751 4.99688 18.9033C4.96678 19.0049 4.98559 19.1328 5.03826 19.225C5.0646 19.2739 5.10034 19.3134 5.14549 19.3416C5.18499 19.3792 5.2339 19.4037 5.28657 19.4168C5.39379 19.4413 5.5123 19.4356 5.60824 19.3754C5.70418 19.3152 5.76813 19.2325 5.80011 19.1271C5.86031 18.9296 5.91486 18.7321 5.96753 18.5327C6.02396 18.3164 6.07664 18.1 6.12555 17.8818C6.17822 17.6486 6.22712 17.4153 6.27415 17.1802C6.32494 16.9319 6.37197 16.6817 6.41524 16.4315C6.4585 16.1813 6.50741 15.9104 6.5488 15.649C6.59018 15.3875 6.63344 15.1053 6.67295 14.8344C6.71809 14.5203 6.76136 14.2061 6.80274 13.8901C6.84037 13.6042 6.87611 13.3164 6.90997 13.0305C6.94383 12.7445 6.97769 12.4492 7.00967 12.1576C7.04165 11.866 7.07174 11.5707 7.09996 11.2773C7.12818 10.9838 7.15639 10.6904 7.18085 10.3969C7.2053 10.1034 7.23164 9.80999 7.25421 9.51654C7.27679 9.22309 7.29748 8.94092 7.31817 8.65311C7.33886 8.3653 7.35579 8.08878 7.37272 7.80661C7.38965 7.52444 7.4047 7.25733 7.41787 6.98457C7.43104 6.7118 7.4442 6.45597 7.45361 6.19262C7.46301 5.92926 7.47242 5.68848 7.47806 5.43641C7.48559 5.19939 7.49123 4.96049 7.49499 4.72159C7.49876 4.49962 7.50064 4.27765 7.50252 4.05567C7.5044 3.8337 7.5044 3.62678 7.50064 3.41234C7.49499 3.13957 7.47806 2.86493 7.44232 2.59405C7.40094 2.28743 7.35015 1.98457 7.25421 1.69112C7.20342 1.53499 7.13946 1.38074 7.06798 1.23213C7.01343 1.11738 6.94947 1.00828 6.87611 0.904814C6.69176 0.645221 6.46226 0.421369 6.18574 0.263356C5.88476 0.0921747 5.54052 0 5.1944 0C5.12291 0 5.05331 0.00376216 4.98183 0.0131677C4.87837 0.0263355 4.77491 0.0395026 4.67145 0.0639571C4.49838 0.10346 4.33473 0.1693 4.17295 0.240782C4.03751 0.300978 3.9096 0.376223 3.78732 0.458992C3.6406 0.55869 3.49763 0.669676 3.36972 0.793829C3.2418 0.917982 3.12705 1.0553 3.01983 1.20015C2.91825 1.33559 2.82984 1.48043 2.74895 1.63092C2.57777 1.95447 2.44609 2.3006 2.34075 2.65048C2.24293 2.9778 2.16957 3.30887 2.09809 3.64371C2.05106 3.86756 2.00591 4.09142 1.96265 4.31715C1.91938 4.54288 1.88364 4.74981 1.84602 4.96425C1.80464 5.19751 1.76701 5.43077 1.72939 5.66591C1.68989 5.91421 1.65038 6.1644 1.61276 6.41459C1.57326 6.67606 1.53376 6.93942 1.49613 7.20277C1.45851 7.46613 1.41713 7.75206 1.37762 8.0267C1.33812 8.30134 1.29862 8.59103 1.26099 8.87132C1.22337 9.15161 1.18199 9.44694 1.14436 9.73475C1.1011 10.0564 1.05783 10.3781 1.01457 10.6979C0.975066 10.9913 0.937442 11.2848 0.897938 11.5782C0.858435 11.8717 0.822696 12.1426 0.785073 12.4266L0.79824 12.3307C0.745569 12.7238 0.700422 13.1207 0.651513 13.5139C0.606367 13.8694 0.563101 14.2231 0.516073 14.5786C0.491619 14.7724 0.465282 14.968 0.438947 15.1618L0.450236 15.0752C0.416376 15.3104 0.3938 15.5474 0.365584 15.7825C0.341129 15.9838 0.316675 16.187 0.29222 16.3882C0.279053 16.4973 0.264004 16.6064 0.250836 16.7156L0.260242 16.6441C0.260242 16.6554 0.25648 16.6648 0.254599 16.676C0.252718 16.6911 0.250838 16.7061 0.247076 16.7231C0.241432 16.7626 0.247075 16.7983 0.252719 16.8378L0.243313 16.7663C0.207572 17.0974 0.168067 17.4304 0.124802 17.7614C0.113515 17.848 0.10223 17.9345 0.0909431 18.021L0.0984663 17.9665C0.0683685 18.1847 0.0382708 18.401 0.00441079 18.6192C-0.00311365 18.6663 -0.00311147 18.7076 0.021343 18.749C0.0420352 18.7848 0.0815372 18.8168 0.122922 18.8262C0.211334 18.8469 0.305391 18.7998 0.329845 18.7076L0.333605 18.7001Z" fill="var(--fill-0, #212322)"/>
</g>
</svg>
