<svg preserveAspectRatio="none" width="100%" height="100%" overflow="visible" style="display: block;" viewBox="0 0 6.41356 17.6787" fill="none" xmlns="http://www.w3.org/2000/svg">
<g id="Group">
<path id="Vector" d="M0.952212 17.3929C0.559059 12.2857 -0.199028 7.28191 1.66327 2.50953C1.87019 1.97906 2.11097 1.44858 2.50789 1.04038C2.9048 0.632181 3.48795 0.366946 4.04476 0.481694C4.7577 0.62842 5.22798 1.35641 5.33332 2.07688C5.43866 2.79734 5.26183 3.52533 5.12827 4.24203C4.49246 7.6412 4.81978 11.2153 6.06131 14.4433" fill="var(--fill-0, white)"/>
<path id="Vector_2" d="M1.2326 17.3927C1.22507 17.0297 1.21567 16.6648 1.20626 16.3017C1.20062 16.123 1.19686 15.9424 1.19309 15.7637C1.18933 15.585 1.17428 15.4044 1.16676 15.2257C1.15923 15.047 1.15359 14.8664 1.13854 14.6877C1.12349 14.509 1.11221 14.3303 1.09904 14.1516C1.0727 13.7961 1.05013 13.4387 1.02756 13.0831C0.984289 12.3721 0.954193 11.6591 0.931619 10.9462C0.909046 10.2332 0.905283 9.54099 0.927856 8.83934C0.95043 8.13768 0.999339 7.43979 1.08399 6.74378C1.09339 6.65913 1.10468 6.57448 1.11597 6.48983L1.09904 6.6121C1.17428 6.04777 1.27586 5.48532 1.4019 4.93039C1.52793 4.37546 1.68782 3.81113 1.87405 3.26373C1.97752 2.96087 2.09038 2.65801 2.21454 2.36267L2.16751 2.47366C2.31235 2.1313 2.47977 1.79646 2.70739 1.50301L2.6359 1.59706C2.75817 1.44093 2.89362 1.29796 3.04975 1.17569L2.95569 1.24718C3.09113 1.14371 3.23786 1.0553 3.39399 0.987582L3.283 1.03461C3.41844 0.978176 3.55765 0.936794 3.70249 0.916101L3.58022 0.933031C3.7025 0.916101 3.82665 0.916101 3.94892 0.933031L3.82665 0.916101C3.94328 0.93115 4.05615 0.963127 4.16337 1.00827L4.05238 0.961246C4.16336 1.00827 4.26683 1.07035 4.36088 1.14371L4.26683 1.07223C4.37781 1.15876 4.47751 1.26034 4.56404 1.37133L4.49068 1.27727C4.60167 1.42024 4.69196 1.58013 4.76156 1.74567L4.71453 1.6328C4.79354 1.81903 4.84621 2.01655 4.87443 2.21783L4.8575 2.0918C4.90265 2.43792 4.88571 2.78592 4.83869 3.13017L4.85562 3.00225C4.80483 3.38412 4.71829 3.75846 4.64869 4.13656C4.57909 4.51467 4.51701 4.92851 4.46622 5.32731C4.42108 5.6866 4.38722 6.04589 4.36277 6.40706C4.33831 6.76823 4.32514 7.12941 4.32138 7.49058C4.31762 7.85176 4.32514 8.21293 4.34207 8.5741C4.359 8.93527 4.38722 9.29645 4.42484 9.65574C4.46622 10.0545 4.52078 10.4533 4.58474 10.8484C4.64305 11.2058 4.70889 11.5613 4.79166 11.9131C4.87443 12.2648 4.96848 12.6147 5.07194 12.9609C5.12273 13.1339 5.17729 13.307 5.23936 13.4763C5.30144 13.6456 5.36728 13.8186 5.435 13.9898C5.45193 14.0293 5.46698 14.0707 5.48391 14.1102C5.51212 14.1817 5.53846 14.2569 5.5742 14.3228L5.53282 14.2231C5.5648 14.3115 5.60618 14.3867 5.65321 14.4657C5.66825 14.4902 5.68142 14.5147 5.69647 14.5391C5.704 14.5504 5.71152 14.5636 5.71905 14.5748C5.73033 14.5937 5.74162 14.6068 5.75479 14.6256C5.783 14.6633 5.82062 14.7028 5.86389 14.7235L5.70023 14.5109C5.704 14.5203 5.70776 14.5316 5.71152 14.541C5.72281 14.588 5.7435 14.6275 5.77548 14.6633C5.79993 14.7028 5.83379 14.7329 5.87517 14.7554C5.9523 14.8006 6.06517 14.8194 6.14982 14.7912C6.23447 14.763 6.31912 14.7103 6.36239 14.6275C6.40565 14.5447 6.43198 14.4413 6.39812 14.3529C6.39436 14.3435 6.3906 14.3322 6.38684 14.3228V14.5128C6.42258 14.4244 6.39248 14.3265 6.37555 14.2381C6.36803 14.2024 6.36239 14.1685 6.35486 14.1328C6.34922 14.0989 6.34545 14.0651 6.33605 14.0331C6.32664 13.9973 6.31347 13.9616 6.30407 13.9259C6.26268 13.7904 6.22318 13.655 6.18556 13.5195C6.14794 13.3841 6.11031 13.2468 6.07457 13.1095C6.03883 12.9721 5.99745 12.8367 5.96171 12.7013C5.81498 12.1539 5.69459 11.597 5.59113 11.0402C5.53282 10.7261 5.48202 10.4119 5.44064 10.0959L5.45757 10.2238C5.37104 9.57109 5.31649 8.91458 5.29768 8.25431C5.27887 7.59404 5.29203 6.94318 5.34094 6.29043C5.36916 5.92362 5.40678 5.5568 5.45569 5.18999L5.43876 5.31978C5.48767 4.96049 5.54599 4.60308 5.61559 4.24755C5.69459 3.8337 5.7736 3.4161 5.8131 2.99661C5.83191 2.8085 5.83944 2.62039 5.83191 2.43228C5.82815 2.33634 5.82063 2.2404 5.80746 2.14447C5.79241 2.02972 5.77736 1.91497 5.7529 1.80399C5.7134 1.62716 5.64756 1.46162 5.57608 1.2942C5.51965 1.16253 5.45004 1.03649 5.36916 0.917981C5.26946 0.773136 5.15847 0.633934 5.02868 0.515424C4.95155 0.443942 4.8669 0.379983 4.78225 0.317907C4.72582 0.276522 4.6675 0.240781 4.60543 0.208802C4.44929 0.127914 4.27999 0.0620767 4.10693 0.03386C3.99407 0.0150489 3.87744 0 3.76269 0C3.64794 0 3.52943 0.016929 3.41468 0.0357401C3.22469 0.0658379 3.04411 0.13732 2.86916 0.218208C2.69422 0.299096 2.53433 0.411962 2.38196 0.532353C2.25404 0.633933 2.13929 0.748682 2.03395 0.874717C1.90415 1.03085 1.78564 1.1945 1.68218 1.36945C1.49219 1.69112 1.34734 2.03912 1.2119 2.38525C1.07646 2.73137 0.956074 3.07373 0.84697 3.42362C0.737866 3.77351 0.641927 4.11963 0.557277 4.4714C0.472627 4.82317 0.399264 5.17117 0.337188 5.52482C0.269468 5.91421 0.213034 6.30548 0.166006 6.69675C0.122741 7.0504 0.0888818 7.40781 0.0644274 7.76334C0.0399729 8.11887 0.0211621 8.47816 0.0117565 8.83558C0.00235096 9.19299 -0.0014108 9.55416 0.000470312 9.91345C0.00235142 10.2727 0.011755 10.6358 0.0249228 10.997C0.0380906 11.3581 0.0606653 11.7231 0.0851197 12.0843C0.109574 12.4454 0.137791 12.8122 0.167889 13.1772C0.197987 13.5421 0.229965 13.9089 0.263825 14.2739C0.271349 14.3623 0.280756 14.4488 0.28828 14.5372C0.292042 14.5805 0.295803 14.6256 0.301446 14.6689C0.308971 14.746 0.312735 14.8269 0.329665 14.904L0.314615 14.7949C0.335308 14.9624 0.356 15.1317 0.376692 15.2991C0.401147 15.4928 0.418077 15.6885 0.450056 15.8803C0.476391 16.0421 0.497082 16.2058 0.519656 16.3675C0.542229 16.5293 0.566683 16.7005 0.589256 16.866C0.615592 17.0504 0.640048 17.2347 0.664502 17.4191L0.655096 17.3438C0.656977 17.3626 0.660738 17.3815 0.662619 17.3984C0.662619 17.436 0.668263 17.4736 0.687075 17.5056C0.698361 17.5395 0.717172 17.5696 0.745388 17.5959C0.794297 17.6448 0.873305 17.6806 0.942906 17.6787C1.01251 17.6768 1.08963 17.6523 1.14042 17.5959C1.19121 17.5395 1.22319 17.4736 1.22319 17.3984L1.2326 17.3927Z" fill="var(--fill-0, #212322)"/>
</g>
</svg>
