<svg preserveAspectRatio="none" width="100%" height="100%" overflow="visible" style="display: block;" viewBox="0 0 12.5297 15.4062" fill="none" xmlns="http://www.w3.org/2000/svg">
<path id="Vector" d="M0.0126971 13.3939C0.00141045 13.5293 -0.00235132 13.6648 0.0014109 13.8002L0.0804201 13.6102C0.0484412 13.6422 0.0183425 13.6874 0.00893695 13.7306C-0.00234971 13.7833 0.00141251 13.8228 0.00893695 13.8755C0.00893695 13.8811 0.00893879 13.8868 0.0108199 13.8924L0.0014109 13.8209C0.00517312 13.8755 0.00141067 13.9319 0.00705401 13.9864C0.0108162 14.0372 0.0145817 14.088 0.0221061 14.1388C0.0296305 14.1934 0.035273 14.2498 0.0446785 14.3044L0.0785371 14.0523C0.0296282 14.1351 0.020222 14.2329 0.0484387 14.3251C0.0503198 14.3345 0.0540836 14.342 0.0559647 14.3514C0.0597269 14.3683 0.0653716 14.3834 0.0691339 14.4003C0.0785394 14.4304 0.0879457 14.4624 0.0992323 14.4925C0.131211 14.5752 0.165069 14.6599 0.208334 14.7389C0.274173 14.8593 0.358826 14.974 0.458525 15.0681C0.522483 15.1283 0.593964 15.1828 0.669208 15.2299L0.492384 15.0004C0.492384 15.0004 0.530004 15.0907 0.531885 15.0944L0.592082 15.1716L0.669208 15.2317C0.669208 15.2317 0.67297 15.2336 0.674852 15.2355C0.678614 15.2374 0.684253 15.2393 0.688015 15.2412C0.697421 15.2449 0.704948 15.2506 0.714353 15.2543C0.761381 15.2769 0.810292 15.2957 0.857319 15.3164C0.893061 15.3314 0.930682 15.3446 0.968304 15.354C1.08117 15.3841 1.19968 15.3992 1.31443 15.4048C1.40472 15.4086 1.49501 15.4048 1.58343 15.3916C1.71887 15.3747 1.85054 15.354 1.9841 15.3183C2.09133 15.2901 2.19667 15.2543 2.30013 15.2129C2.44685 15.1546 2.5917 15.0925 2.73279 15.0229C2.85318 14.9646 2.9698 14.9007 3.08643 14.8329C3.21246 14.7596 3.33662 14.6843 3.45701 14.6053C3.58681 14.5207 3.71472 14.4323 3.84076 14.342C4.00441 14.2235 4.16619 14.1012 4.32609 13.977C4.35807 13.9507 4.39192 13.9263 4.4239 13.8999L4.33361 13.9695C4.41826 13.9131 4.49727 13.8416 4.57627 13.7758C4.62706 13.7344 4.67785 13.6911 4.72864 13.6479C4.83398 13.5594 4.93745 13.4691 5.04091 13.377C5.25535 13.1851 5.46604 12.9895 5.67484 12.7901C5.89305 12.5813 6.10561 12.3668 6.3163 12.1505C6.52698 11.9342 6.74896 11.6971 6.95964 11.4658C7.17033 11.2344 7.38853 10.9861 7.59733 10.7434C7.80614 10.5008 8.01871 10.2449 8.22375 9.99097C8.45512 9.70693 8.67897 9.41723 8.90094 9.12566C9.09846 8.86607 9.29221 8.60271 9.48221 8.33748C9.6722 8.07224 9.85279 7.81077 10.0315 7.54553C10.2102 7.28029 10.3757 7.02258 10.5413 6.75546C10.7068 6.48834 10.8554 6.24003 11.0059 5.97856C11.1564 5.71709 11.2862 5.4763 11.4179 5.22047C11.542 4.97969 11.6605 4.73703 11.7715 4.49061C11.89 4.22725 12.0048 3.95825 12.1064 3.68737C12.1872 3.4748 12.2606 3.25848 12.3227 3.03839C12.3791 2.84275 12.4261 2.64335 12.46 2.44208C12.4957 2.22387 12.5258 2.00378 12.5296 1.78369C12.5315 1.58617 12.5127 1.38677 12.4732 1.1949C12.4374 1.02184 12.3735 0.848773 12.2888 0.694522C12.238 0.600466 12.1741 0.519579 12.1082 0.436811C12.0687 0.386021 12.0236 0.337112 11.9728 0.295727C11.843 0.188504 11.6587 0.0455398 11.4837 0.0549454L11.7188 0.118902C11.6549 0.0793991 11.5815 0.0568272 11.5082 0.0380161C11.4912 0.0342538 11.4724 0.0286091 11.4555 0.0248469C11.4461 0.0229658 11.4367 0.0210849 11.4273 0.0192038C11.4235 0.0192038 11.4179 0.0192077 11.4141 0.0173266C11.4122 0.0173266 11.4103 0.0173266 11.4066 0.0173266C11.3313 -0.00336561 11.2561 -0.00336561 11.1809 0.0173266C11.1451 0.0323755 11.1112 0.0474225 11.0755 0.0624714L11.3991 0.0210868C11.3991 0.0210868 11.3897 0.0173248 11.384 0.0154437C11.3276 -0.00148634 11.273 -0.00525016 11.2166 0.00791761C11.1602 0.00979872 11.1094 0.0267306 11.0605 0.0568283C11.0116 0.0831639 10.972 0.118906 10.9419 0.164053C10.9043 0.205437 10.8799 0.252461 10.8667 0.307013C10.8423 0.414237 10.8479 0.534628 10.9081 0.630565L10.9739 0.715217C11.0266 0.767888 11.0887 0.803631 11.1583 0.822442C11.1639 0.824323 11.1677 0.826204 11.1733 0.828085L10.9231 0.634331C10.9307 0.653142 10.9419 0.668191 10.9589 0.681358C10.9777 0.713337 11.004 0.737791 11.0341 0.756602C11.0529 0.769769 11.0642 0.781057 11.0811 0.792343C11.0849 0.794224 11.0868 0.796105 11.0906 0.797986C11.0962 0.801749 11.1037 0.807387 11.1094 0.81115C11.1225 0.820555 11.1338 0.829965 11.1451 0.839371L11.0548 0.769771C11.1188 0.81868 11.1752 0.876992 11.2448 0.920257L11.0774 0.752836C11.0774 0.752836 11.147 0.845012 11.1508 0.848774C11.1639 0.861942 11.2316 0.912735 11.2467 0.92214C11.2486 0.92214 11.2505 0.925902 11.2542 0.927783C11.2599 0.931546 11.2636 0.935307 11.2693 0.93907C11.2787 0.946594 11.2881 0.952235 11.2975 0.959759L11.2015 0.886399C11.2693 0.93907 11.3351 0.999262 11.3934 1.0651C11.4103 1.08391 11.4254 1.10273 11.4404 1.12154L11.3652 1.0256C11.4122 1.08768 11.4536 1.15351 11.4875 1.22311C11.4969 1.24381 11.5063 1.2645 11.5157 1.28519L11.4668 1.17044C11.5082 1.26826 11.5383 1.37172 11.5571 1.47706C11.5627 1.50904 11.5684 1.54102 11.5721 1.57112L11.5552 1.44509C11.5665 1.53538 11.574 1.62568 11.574 1.71597C11.574 1.81379 11.5702 1.9116 11.5627 2.00754C11.5571 2.06585 11.5514 2.12417 11.5439 2.18248L11.5608 2.05645C11.5458 2.16179 11.5289 2.26713 11.5063 2.37247C11.4837 2.48346 11.4574 2.59445 11.4273 2.70355C11.3953 2.82018 11.3614 2.93681 11.3238 3.05344C11.2843 3.17571 11.241 3.29798 11.1959 3.41837C11.1508 3.53876 11.0981 3.67044 11.0473 3.79459C11.0398 3.81152 11.0341 3.82657 11.0266 3.8435L11.0736 3.73064C11.0078 3.88865 10.9382 4.04478 10.8648 4.19903C10.7915 4.35328 10.7106 4.5207 10.6297 4.6806C10.5488 4.84049 10.4566 5.01167 10.3682 5.17721C10.2798 5.34275 10.1801 5.51393 10.0823 5.68135C9.98446 5.84877 9.87912 6.02559 9.77378 6.19489C9.66844 6.36419 9.55745 6.54289 9.44647 6.71408C9.33548 6.88526 9.21885 7.06208 9.10222 7.23515C8.98559 7.40821 8.86333 7.58315 8.74105 7.75621C8.61878 7.92927 8.49087 8.1061 8.36483 8.27916C8.2388 8.45222 8.10712 8.62529 7.97544 8.79647C7.94346 8.83785 7.91148 8.87924 7.8795 8.92062L7.95287 8.82468C7.8701 8.93191 7.78545 9.03725 7.70456 9.14447L7.77792 9.04853C7.63872 9.22724 7.49763 9.40407 7.35467 9.58089C7.21171 9.75772 7.07062 9.92701 6.92578 10.1001C6.78093 10.2731 6.63797 10.4387 6.49124 10.6042C6.34451 10.7698 6.19967 10.9315 6.05106 11.0933C5.90245 11.2551 5.76137 11.4056 5.61277 11.5598C5.46416 11.7141 5.32119 11.8608 5.17259 12.0075C5.02398 12.1543 4.88478 12.2897 4.73805 12.4289C4.59132 12.5681 4.454 12.6941 4.30727 12.8239C4.16055 12.9537 4.02699 13.0704 3.88403 13.1889C3.74859 13.3017 3.61315 13.4146 3.47394 13.5237C3.44197 13.55 3.4081 13.5745 3.37612 13.6008L3.46454 13.5312C3.36107 13.6102 3.25762 13.6892 3.15039 13.7645C3.05069 13.836 2.94911 13.9056 2.84565 13.9733C2.74783 14.0372 2.65002 14.0993 2.55032 14.1576C2.45626 14.2122 2.3622 14.2667 2.26439 14.3156C2.17597 14.3627 2.0838 14.4059 1.99163 14.4454C1.98034 14.4492 1.96905 14.4548 1.95965 14.4586L2.05935 14.4172C2.00856 14.4379 1.94648 14.4567 1.90322 14.4831L2.00291 14.4417C1.92391 14.4737 1.84302 14.5038 1.76213 14.5301C1.68689 14.5545 1.60976 14.5752 1.53264 14.5903C1.49125 14.5978 1.45175 14.6053 1.41037 14.611L1.51759 14.5959C1.42353 14.6091 1.32947 14.6129 1.23542 14.6072C1.21096 14.6072 1.18651 14.6035 1.16018 14.5997L1.26364 14.6129C1.1978 14.6035 1.13384 14.5884 1.07176 14.5677C1.05483 14.5621 1.03791 14.5545 1.02098 14.547L1.11315 14.5865C1.10186 14.5828 1.09246 14.5771 1.08117 14.5734C1.07553 14.5715 1.07176 14.5677 1.06612 14.5658C1.06424 14.5658 1.06048 14.5621 1.05859 14.5621L0.966421 14.5226L0.86484 14.5094C0.793358 14.5056 0.731285 14.5339 0.669208 14.5621H1.05672C0.996521 14.5339 0.940089 14.5 0.887418 14.4605L0.962661 14.5188C0.911871 14.4793 0.86484 14.4342 0.823455 14.3871C0.810287 14.3721 0.799006 14.357 0.787719 14.342L0.84415 14.4135C0.787717 14.3401 0.740687 14.2611 0.701184 14.1802C0.688016 14.1557 0.676731 14.1294 0.667326 14.1031L0.701184 14.1821C0.701184 14.1821 0.69366 14.1633 0.689898 14.1539C0.657919 14.0673 0.618419 13.977 0.528125 13.9338L0.644753 14.0504C0.631585 14.0222 0.618415 13.9959 0.607129 13.9676L0.63911 14.0429C0.618418 13.9921 0.597726 13.9413 0.580796 13.8886C0.571391 13.8623 0.561982 13.8341 0.554458 13.8077C0.550696 13.7946 0.545051 13.7795 0.541289 13.7664C0.539408 13.7588 0.537527 13.7513 0.535646 13.7438C0.522478 13.6704 0.471689 13.6065 0.407731 13.5688L0.531885 13.7287C0.499906 13.5989 0.477336 13.4654 0.458525 13.3337C0.451001 13.2848 0.398326 13.2208 0.355061 13.1983C0.309914 13.1738 0.262884 13.1644 0.212094 13.1719C0.165067 13.1776 0.116163 13.1983 0.082303 13.234C0.0409186 13.2792 0.0202252 13.3318 0.016463 13.3939H0.0126971Z" fill="var(--fill-0, #212322)"/>
</svg>
