<svg preserveAspectRatio="none" width="100%" height="100%" overflow="visible" style="display: block;" viewBox="0 0 1.5553 2.61009" fill="none" xmlns="http://www.w3.org/2000/svg">
<path id="Vector" d="M0.258843 2.54071L0.40557 2.33754C0.452597 2.27171 0.493982 2.2021 0.535366 2.13062L0.783668 1.70361C0.864556 1.56253 0.95109 1.42333 1.02822 1.28036L1.25959 0.849585C1.348 0.685928 1.43454 0.524152 1.52295 0.360495C1.55305 0.304062 1.56433 0.238226 1.5474 0.17615C1.53235 0.119716 1.48908 0.0595189 1.43641 0.0331834C1.37998 0.0030856 1.31414 -0.0100831 1.25207 0.00872802C1.19375 0.0275391 1.13732 0.0632795 1.1091 0.119713C0.958613 0.413166 0.806243 0.704741 0.655754 0.998194C0.58051 1.14492 0.51091 1.29541 0.439428 1.44402C0.367946 1.59262 0.298344 1.74311 0.226862 1.89172C0.181715 1.98578 0.134689 2.07983 0.098948 2.17765L0.00677553 2.43348C-0.0176789 2.49932 0.0274663 2.57269 0.0876618 2.59902C0.155382 2.62724 0.221219 2.59902 0.262603 2.54258L0.258843 2.54071Z" fill="var(--fill-0, #212322)"/>
</svg>
