<svg preserveAspectRatio="none" width="100%" height="100%" overflow="visible" style="display: block;" viewBox="0 0 2.40594 0.741776" fill="none" xmlns="http://www.w3.org/2000/svg">
<path id="Vector" d="M0.204491 0.566467C0.323001 0.530726 0.445272 0.504391 0.567544 0.487461L0.514873 0.494987C0.637145 0.478057 0.759419 0.476176 0.883572 0.474295C1.00773 0.472414 1.13188 0.478057 1.25603 0.494987L1.19019 0.485581C1.27296 0.496868 1.35761 0.511917 1.4385 0.532609C1.47988 0.542014 1.52127 0.5533 1.56077 0.566467C1.60027 0.579635 1.64542 0.587159 1.68869 0.598446C1.76957 0.619138 1.85046 0.645474 1.92947 0.675572C1.96897 0.690621 2.01036 0.694382 2.05174 0.703788C2.09312 0.713193 2.13451 0.722601 2.17589 0.735769C2.25114 0.756461 2.3452 0.722599 2.38282 0.651117C2.42044 0.579635 2.41291 0.489343 2.3546 0.429147C2.30757 0.380238 2.25678 0.335092 2.20599 0.291827C2.17966 0.269254 2.15332 0.246679 2.12322 0.23163C2.10629 0.224106 2.09125 0.214699 2.07432 0.207175C2.03293 0.186482 1.99155 0.169555 1.94828 0.150744C1.87492 0.120646 1.79967 0.0867835 1.72255 0.0660913C1.63601 0.043518 1.54384 0.0322332 1.45355 0.0209465C1.15633 -0.0185568 0.849712 -0.00350733 0.560021 0.0773804C0.394483 0.124408 0.230827 0.188364 0.0784567 0.269252C0.0069745 0.306874 -0.0174811 0.40093 0.0126167 0.472412C0.0427145 0.543894 0.127365 0.590922 0.204491 0.566467Z" fill="var(--fill-0, #212322)"/>
</svg>
