<svg preserveAspectRatio="none" width="100%" height="100%" overflow="visible" style="display: block;" viewBox="0 0 16.974 39.2282" fill="none" xmlns="http://www.w3.org/2000/svg">
<g id="Group">
<path id="Vector" d="M16.797 39.041C13.9866 34.9214 10.9693 31.5561 7.00767 28.5275C5.13973 27.0998 3.10624 25.751 1.90798 23.7288C0.418137 21.2156 0.476452 18.1118 0.579913 15.1923C0.722877 11.1103 0.867724 7.0095 1.62769 2.99521C1.83461 1.90416 2.35944 0.57986 3.46742 0.538476C4.23679 0.510259 4.88201 1.19875 5.07012 1.94555C5.25823 2.69235 5.09834 3.47677 4.93092 4.22733C4.04492 8.21153 12.2973 9.64869 13.8173 13.4354" fill="var(--fill-0, white)"/>
<path id="Vector_2" d="M16.9549 38.9497C16.8571 38.786 16.7593 38.6224 16.6615 38.4606L16.684 38.5132C16.6746 38.4643 16.6464 38.4399 16.6257 38.4004C16.6126 38.3759 16.6032 38.3515 16.5919 38.327C16.5693 38.28 16.5486 38.2311 16.526 38.1841C16.4809 38.0881 16.4357 37.9922 16.3906 37.8944L16.4339 38.058C16.4357 38.0336 16.4339 38.0279 16.4301 37.9959C16.4245 37.9527 16.4132 37.9075 16.3906 37.8699C16.3849 37.8605 16.3793 37.853 16.3737 37.8455C16.3605 37.8285 16.3492 37.8097 16.3379 37.7909C16.3153 37.7552 16.2928 37.7213 16.2702 37.6856C16.2251 37.616 16.1799 37.5445 16.1348 37.4749C16.0426 37.3338 15.9504 37.1946 15.8582 37.0535C15.8056 36.9745 15.7529 36.8974 15.7021 36.8184L15.7416 36.9143V36.9049C15.7247 36.8729 15.7115 36.8409 15.6983 36.809C15.6946 36.8033 15.6908 36.7977 15.6871 36.7939C15.6795 36.7826 15.6701 36.7732 15.6626 36.7619C15.6475 36.7412 15.6325 36.7187 15.6193 36.6961C15.5892 36.6509 15.5591 36.6058 15.529 36.5607C15.4688 36.4722 15.4105 36.3838 15.3503 36.2954L15.3936 36.3989V36.3895C15.3767 36.3537 15.3616 36.3199 15.3466 36.2841C15.3428 36.2785 15.339 36.2728 15.3353 36.2691C15.3278 36.2578 15.3184 36.2484 15.3108 36.2371C15.292 36.2127 15.2751 36.1901 15.2582 36.1656C15.2262 36.1224 15.1923 36.0791 15.1603 36.0358C15.0945 35.9493 15.0268 35.8609 14.9591 35.7744C14.8048 35.575 14.6487 35.3756 14.4925 35.1762C14.2235 34.8376 13.9489 34.5008 13.6686 34.1698C13.3883 33.8387 13.1062 33.5114 12.8165 33.1897C12.5268 32.868 12.2371 32.552 11.9399 32.2397C11.6427 31.9275 11.3379 31.6152 11.0294 31.3124C10.7209 31.0095 10.403 30.7085 10.0832 30.4151C9.76343 30.1216 9.4286 29.8244 9.09564 29.5366C8.76268 29.2488 8.41468 28.9629 8.06667 28.6844C7.68857 28.3816 7.30294 28.0844 6.91543 27.7928C6.57119 27.5313 6.22506 27.2736 5.88082 27.0121C5.79617 26.9482 5.7134 26.8842 5.63064 26.8203L5.73974 26.9049C5.33154 26.5889 4.9271 26.2653 4.53771 25.9267C4.14832 25.5881 3.78527 25.242 3.44102 24.8677C3.24727 24.657 3.06104 24.4388 2.88609 24.213L2.97075 24.324C2.62462 23.8763 2.31988 23.3966 2.07157 22.8887C2.00009 22.7439 1.93425 22.5972 1.87217 22.4504L1.92673 22.5802C1.78376 22.2398 1.66149 21.8899 1.55991 21.5343C1.45833 21.1788 1.37368 20.8158 1.30784 20.4508C1.27022 20.242 1.23636 20.0332 1.20814 19.8225L1.22695 19.9655C1.16864 19.5347 1.13102 19.1021 1.10656 18.6694C1.08211 18.2368 1.07082 17.7947 1.06894 17.3583C1.06706 16.9219 1.07458 16.4836 1.08399 16.0453C1.09339 15.607 1.11221 15.1329 1.12914 14.6758C1.14607 14.1773 1.16488 13.6788 1.18557 13.1803C1.20626 12.6818 1.22695 12.1871 1.24953 11.6905C1.2721 11.1939 1.30032 10.6935 1.33042 10.195C1.36051 9.69651 1.39437 9.1999 1.43388 8.70141C1.47338 8.20291 1.51665 7.70818 1.56556 7.21157C1.61446 6.71495 1.6709 6.22398 1.73297 5.73301C1.74802 5.61074 1.76495 5.49035 1.78 5.36808L1.76119 5.51104C1.83267 4.97869 1.91168 4.44822 2.00197 3.91962C2.07722 3.47756 2.14682 3.03174 2.26721 2.60097C2.32364 2.39781 2.39136 2.19841 2.47413 2.00465L2.41958 2.13257C2.52304 1.88802 2.64907 1.651 2.81273 1.44032L2.72808 1.54943C2.8259 1.42339 2.93688 1.30676 3.06292 1.20894L2.95381 1.29359C3.05163 1.21835 3.15509 1.15627 3.26796 1.10736L3.14004 1.16191C3.24727 1.11677 3.35825 1.08667 3.473 1.07162L3.33004 1.09043C3.44478 1.07538 3.56329 1.0735 3.67804 1.09043L3.53508 1.07162C3.65171 1.08855 3.76457 1.12053 3.8718 1.16568L3.74388 1.11113C3.86615 1.1638 3.97902 1.23152 4.08248 1.31052L3.97337 1.22587C4.10129 1.32369 4.21416 1.43844 4.31198 1.56635L4.22733 1.45725C4.33831 1.6021 4.43237 1.76199 4.50197 1.92941L4.44742 1.80149C4.52642 1.9896 4.57345 2.18524 4.60167 2.38652L4.58286 2.24355C4.628 2.57463 4.60919 2.91323 4.56593 3.24431L4.58474 3.09946C4.53959 3.43618 4.46434 3.76725 4.39098 4.10021C4.34772 4.29585 4.3195 4.49901 4.30822 4.6984C4.30069 4.84325 4.30445 4.98998 4.32326 5.13482C4.34583 5.32481 4.37405 5.51104 4.43049 5.69539C4.48692 5.87974 4.56028 6.0528 4.64305 6.2221C4.70701 6.35378 4.78037 6.47982 4.86126 6.60209C5.05878 6.8993 5.29015 7.17771 5.54034 7.42978C5.79053 7.68185 6.04448 7.89629 6.31536 8.10698C6.64455 8.36281 6.98127 8.60547 7.3274 8.83685C7.65095 9.05317 7.98014 9.2601 8.31122 9.46326C8.64229 9.66642 8.99782 9.88086 9.34019 10.0915C9.68255 10.3022 10.0249 10.5129 10.3616 10.7311C10.6983 10.9493 11.0106 11.1619 11.3248 11.3952C11.4 11.4516 11.4734 11.5061 11.5486 11.5645L11.4376 11.4779C11.6483 11.6397 11.8533 11.809 12.049 11.9877C12.2446 12.1664 12.4177 12.3357 12.587 12.5257C12.6792 12.6273 12.7676 12.7345 12.8503 12.8417L12.7657 12.7307C12.8522 12.8436 12.935 12.9602 13.0121 13.0788C13.0892 13.1973 13.1682 13.3101 13.2397 13.4286C13.2792 13.4945 13.3169 13.5622 13.3507 13.6299C13.4297 13.7823 13.6178 13.8839 13.7871 13.8801H13.789C13.6291 13.7578 13.4673 13.6356 13.3074 13.5133C13.315 13.5321 13.3244 13.5528 13.3319 13.5716C13.347 13.6374 13.377 13.6939 13.4222 13.7409C13.4579 13.7955 13.505 13.8387 13.5633 13.8688C13.6197 13.9046 13.6818 13.9253 13.7495 13.929C13.8153 13.9441 13.8831 13.9403 13.9489 13.9196C14.0693 13.8801 14.1859 13.8049 14.248 13.6901L14.2988 13.5716C14.3232 13.4832 14.3232 13.3948 14.2988 13.3064C14.2913 13.2876 14.2837 13.2669 14.2743 13.2481L14.1464 13.7334C14.2687 13.613 14.3327 13.4079 14.2762 13.2405C14.2198 13.0731 14.1539 12.9207 14.0825 12.7646C14.0561 12.7063 14.0298 12.6461 13.9959 12.5897C13.9621 12.5332 13.9263 12.4787 13.8906 12.4241C13.7157 12.1645 13.5181 11.9162 13.3056 11.6848C13.1137 11.476 12.9087 11.2804 12.6961 11.0942C12.4384 10.8703 12.1694 10.6578 11.8947 10.4546C11.6464 10.2703 11.3925 10.0934 11.1348 9.92037C10.8771 9.74731 10.6062 9.57424 10.3372 9.40682C10.0682 9.2394 9.79542 9.07199 9.52265 8.90457C9.24989 8.73715 8.9809 8.57349 8.7119 8.40607C8.4429 8.23865 8.18707 8.075 7.92935 7.90382C7.67164 7.73264 7.44027 7.57086 7.20136 7.39403C7.14493 7.35265 7.09038 7.30939 7.03394 7.268L7.14681 7.35453C6.96058 7.21157 6.77999 7.06296 6.60505 6.90495C6.44139 6.75822 6.28526 6.60397 6.13666 6.44031C6.05765 6.3519 5.9824 6.26161 5.90904 6.16755L5.99557 6.28042C5.85449 6.09795 5.72845 5.90419 5.62499 5.69727C5.59678 5.64084 5.57044 5.58252 5.54598 5.52421L5.60242 5.65777C5.53094 5.48847 5.47638 5.31353 5.44064 5.13294C5.43124 5.08215 5.42183 5.03136 5.41431 4.97869L5.435 5.12542C5.41243 4.95235 5.40678 4.77553 5.41995 4.60059C5.42371 4.5498 5.42936 4.49901 5.43688 4.44633L5.41807 4.59306C5.42936 4.51405 5.44252 4.43693 5.45945 4.3598C5.4952 4.19426 5.53094 4.02873 5.56104 3.86319C5.60054 3.65062 5.63251 3.43618 5.65697 3.22173C5.67578 3.05431 5.68895 2.8869 5.69083 2.71948C5.69083 2.50691 5.67014 2.29999 5.64004 2.0893C5.61935 1.9407 5.58737 1.79209 5.54034 1.64912C5.50648 1.54754 5.46322 1.44784 5.41995 1.35003C5.39362 1.29171 5.3654 1.2334 5.33342 1.17696C5.24877 1.02647 5.14531 0.887272 5.0362 0.753713C4.95532 0.655896 4.86502 0.565603 4.7672 0.486596C4.63741 0.381254 4.50385 0.279675 4.35336 0.208192C4.20287 0.13671 4.04862 0.0708713 3.88685 0.0407735C3.72507 0.0106758 3.55577 -0.0100169 3.39023 0.00503198C3.23974 0.0181998 3.08549 0.0407725 2.94065 0.0896814C2.7958 0.13859 2.66412 0.196907 2.53809 0.274032C2.31988 0.409472 2.12613 0.584413 1.96999 0.785692C1.87406 0.909845 1.78188 1.034 1.70288 1.16756C1.64456 1.26726 1.59001 1.3726 1.54298 1.47794C1.42447 1.73565 1.32477 1.99901 1.24576 2.27177C1.17616 2.51443 1.12538 2.75898 1.08023 3.00729C1.01815 3.34589 0.959836 3.68637 0.905284 4.02685C0.788655 4.75108 0.690838 5.47906 0.606188 6.20705C0.5253 6.89178 0.459462 7.57838 0.401147 8.26687C0.342833 8.95536 0.295804 9.64384 0.256301 10.3342C0.216798 11.0246 0.182937 11.7149 0.152839 12.4053C0.122742 13.0957 0.0982875 13.7861 0.073833 14.4764C0.0512597 15.1085 0.0268049 15.7405 0.011756 16.3745C-0.00329286 17.0084 -0.00517214 17.5915 0.013639 18.1991C0.0324501 18.8067 0.0757146 19.4049 0.156602 20.0031C0.241252 20.6352 0.354119 21.2635 0.532825 21.8767C0.71153 22.4899 0.942908 23.0787 1.23636 23.6393C1.52981 24.1999 1.88158 24.7021 2.2785 25.1837C2.64343 25.6258 3.04787 26.0358 3.473 26.4215C3.89813 26.8071 4.35336 27.1777 4.81235 27.5332C5.30708 27.9151 5.80746 28.2875 6.30784 28.6638C6.53733 28.8349 6.76494 29.008 6.99068 29.1829L6.88346 29.1002C7.17691 29.3278 7.46848 29.5592 7.75629 29.7924C7.86916 29.8846 7.98014 29.9786 8.09677 30.0652L7.98955 29.9824C8.47676 30.3812 8.95456 30.7894 9.42296 31.2089C9.89135 31.6284 10.3315 32.0422 10.7717 32.473C11.2119 32.9038 11.6427 33.3421 12.064 33.7917C12.4854 34.2413 12.8917 34.6946 13.2905 35.1573C13.6893 35.6201 14.09 36.1054 14.4756 36.5926C14.5226 36.6528 14.5697 36.7111 14.6167 36.7713L14.5471 36.6829C14.5565 36.6942 14.5659 36.7074 14.5734 36.7187C14.5885 36.7375 14.6017 36.7563 14.6167 36.7751C14.6524 36.8203 14.6957 36.8654 14.7484 36.8917L14.66 36.824C14.7822 36.9651 14.9045 37.1081 15.0249 37.251L14.9628 37.1701C14.9722 37.1814 14.9816 37.1946 14.9892 37.2059C15.0023 37.2228 15.0155 37.2416 15.0287 37.2586C15.0475 37.2886 15.07 37.3131 15.1001 37.33C15.1152 37.3432 15.1321 37.3564 15.1491 37.3658L15.0682 37.3037C15.3221 37.6103 15.5742 37.9188 15.8206 38.2311L15.7679 38.1634C15.7773 38.1765 15.7868 38.1916 15.798 38.2048C15.8168 38.2311 15.8357 38.2574 15.8564 38.2819C15.8959 38.3251 15.9617 38.359 16.02 38.3722L15.877 38.2894C15.9429 38.3552 16.0106 38.4192 16.0764 38.485C16.1103 38.517 16.1423 38.5509 16.1761 38.5828C16.21 38.6148 16.2457 38.6468 16.2758 38.6826L16.2401 38.6374C16.274 38.6863 16.3041 38.7315 16.3567 38.7634L16.3116 38.7296C16.4282 38.8782 16.5448 39.0268 16.6615 39.1754C16.6878 39.2074 16.7499 39.23 16.7913 39.2281C16.8326 39.2262 16.8684 39.2149 16.9022 39.1886C16.9737 39.134 16.9963 39.0324 16.9493 38.9534L16.9549 38.9497Z" fill="var(--fill-0, #212322)"/>
</g>
</svg>
