<svg preserveAspectRatio="none" width="100%" height="100%" overflow="visible" style="display: block;" viewBox="0 0 2.56901 0.638443" fill="none" xmlns="http://www.w3.org/2000/svg">
<path id="Vector" d="M0.123462 0.363262L0.943626 0.496823C1.10352 0.523158 1.26341 0.549492 1.42519 0.568303L1.84091 0.620974C1.91804 0.63038 1.99705 0.634144 2.07417 0.637906C2.13437 0.641669 2.20209 0.624737 2.26228 0.615331L2.37703 0.598402L2.43911 0.572066C2.46921 0.555136 2.49366 0.532563 2.51247 0.504346C2.54633 0.459199 2.57079 0.402764 2.56891 0.34445C2.56326 0.227821 2.49178 0.124361 2.37515 0.090501C2.30743 0.0716898 2.24159 0.0491169 2.17387 0.0321868C2.1212 0.019019 2.06101 0.0190179 2.00645 0.0133745C1.96883 0.00961229 1.93121 0.00584948 1.89547 0.00396836C1.75627 -0.00167498 1.61518 0.00208931 1.47598 0.000208198C1.19757 -0.00167292 0.919172 0.00961309 0.640767 0.0171376L0.166727 0.0303039C0.0820766 0.032185 0.0124746 0.0923805 0.00118795 0.177031C-0.0082176 0.252275 0.0388101 0.348214 0.121579 0.361382L0.123462 0.363262Z" fill="var(--fill-0, #212322)"/>
</svg>
