<svg preserveAspectRatio="none" width="100%" height="100%" overflow="visible" style="display: block;" viewBox="0 0 18.8395 36.5222" fill="none" xmlns="http://www.w3.org/2000/svg">
<g id="Group">
<path id="Vector" d="M0.449939 36.4865C0.589141 36.4094 0.728343 36.3304 0.865664 36.2514L0.78854 36.2833C0.85626 36.2664 0.914574 36.2231 0.974769 36.1874C1.01427 36.1648 1.05189 36.1404 1.0914 36.1178C1.16664 36.0727 1.24189 36.0256 1.31713 35.9786C1.4695 35.8845 1.61999 35.7886 1.7686 35.6927L1.68019 35.7303C1.72533 35.7134 1.76672 35.6964 1.80622 35.6682C1.82127 35.6569 1.8382 35.6456 1.85513 35.6344C1.88711 35.6118 1.91909 35.5892 1.95106 35.5685C2.01314 35.5252 2.07334 35.482 2.13541 35.4387C2.25957 35.3503 2.38184 35.2619 2.50411 35.1735C2.77499 34.976 3.04399 34.7728 3.30358 34.5621C3.5406 34.3721 3.77386 34.1765 4.00336 33.979C4.23285 33.7815 4.46235 33.5764 4.6862 33.3695C4.91005 33.1626 5.13014 32.9538 5.34647 32.7412C5.5628 32.5286 5.77913 32.3104 5.98981 32.0903C6.20049 31.8702 6.40554 31.6483 6.6087 31.4225C6.81186 31.1968 7.01125 30.9673 7.20689 30.7359C7.40252 30.5046 7.59628 30.2657 7.78439 30.0249C7.9932 29.7596 8.19635 29.4925 8.39763 29.2216C8.57822 28.9752 8.75693 28.7269 8.92999 28.4767C9.10305 28.2265 9.27235 27.9745 9.43601 27.7186C9.59966 27.4628 9.76144 27.2051 9.91945 26.9455C10.0775 26.6859 10.2317 26.4207 10.3803 26.1536C10.5289 25.8864 10.6738 25.6212 10.8149 25.3522C10.9559 25.0832 11.0933 24.8086 11.2249 24.5339C11.3566 24.2593 11.4845 23.9846 11.6068 23.7062C11.7441 23.3958 11.8777 23.0836 12.0056 22.7694C12.1204 22.4873 12.2295 22.2051 12.3348 21.9211C12.4401 21.637 12.5417 21.3492 12.6377 21.0614C12.7336 20.7736 12.8258 20.482 12.9142 20.1886C13.0026 19.8951 13.0835 19.6054 13.1606 19.312C13.2377 19.0185 13.3111 18.7213 13.3788 18.4241C13.4465 18.1269 13.5086 17.8315 13.5669 17.5324C13.6252 17.2333 13.6779 16.9342 13.7249 16.6351C13.7644 16.3868 13.8002 16.1366 13.8322 15.8864C13.8585 15.6833 13.8811 15.4801 13.9018 15.277C13.9243 15.0531 13.945 14.8311 13.9638 14.6073C13.9845 14.3684 14.0033 14.1295 14.0203 13.8925C14.0391 13.6385 14.0579 13.3846 14.0748 13.1306C14.0918 12.8767 14.1087 12.602 14.1256 12.3387C14.1425 12.0753 14.1576 11.7932 14.1745 11.5204C14.1915 11.2476 14.2065 10.9598 14.2216 10.6795C14.2366 10.3992 14.2516 10.1152 14.2667 9.83116C14.2817 9.54711 14.2968 9.26118 14.3137 8.97525C14.3307 8.68932 14.3457 8.41092 14.3645 8.12875C14.3833 7.84658 14.4003 7.57194 14.4191 7.29354C14.4379 7.01513 14.4586 6.74801 14.4811 6.47525C14.5037 6.20249 14.5244 5.95042 14.5489 5.68895C14.5733 5.42747 14.5978 5.18481 14.626 4.93274C14.6523 4.70325 14.6787 4.47563 14.7106 4.24802L14.6937 4.36841C14.7351 4.05426 14.784 3.74012 14.8404 3.42974C14.8931 3.14381 14.9533 2.85788 15.0267 2.57571C15.0944 2.31612 15.1696 2.05841 15.275 1.81198L15.2298 1.92108C15.3182 1.71228 15.4273 1.511 15.5665 1.33042L15.4951 1.42259C15.5854 1.30596 15.6888 1.19874 15.8054 1.10656L15.7133 1.17805C15.8261 1.09152 15.9484 1.02003 16.0782 0.9636L15.9691 1.00874C16.0895 0.957955 16.2174 0.922213 16.3472 0.905283L16.2268 0.922215C16.334 0.909048 16.4431 0.907167 16.5504 0.922215L16.43 0.905283C16.5203 0.918451 16.6087 0.941025 16.6933 0.976766L16.5842 0.931619C16.6651 0.965479 16.7404 1.01063 16.81 1.06518L16.7178 0.993696C16.7987 1.05577 16.8683 1.12914 16.9304 1.21003L16.8589 1.11785C16.9548 1.24388 17.0301 1.38497 17.0921 1.52981L17.047 1.42071C17.1561 1.6803 17.2294 1.95494 17.2878 2.22959C17.3329 2.43651 17.3686 2.64719 17.4025 2.856C17.4232 2.99144 17.4439 3.12876 17.4627 3.26608L17.4477 3.14757C17.4834 3.40716 17.5135 3.66863 17.5417 3.93011C17.5718 4.21604 17.5944 4.50385 17.617 4.79166C17.6395 5.0964 17.6602 5.40114 17.6772 5.70776C17.6941 6.01438 17.7129 6.33793 17.7261 6.65208C17.7392 6.96622 17.7543 7.28037 17.7656 7.59452C17.7769 7.90866 17.7863 8.21152 17.7938 8.51814C17.8013 8.80971 17.8069 9.10316 17.8126 9.39474C17.8164 9.66185 17.8239 9.93085 17.8295 10.198C17.8333 10.4331 17.8352 10.6682 17.8352 10.9015C17.8352 11.0934 17.8352 11.2871 17.8314 11.479C17.8314 11.5185 17.8314 11.5599 17.8295 11.5994C17.8276 11.669 17.8408 11.733 17.8728 11.7932C17.8935 11.8552 17.9273 11.9098 17.9762 11.9549C18.0214 12.0038 18.0759 12.0377 18.138 12.0584C18.1982 12.0904 18.2622 12.1035 18.3318 12.1017C18.4616 12.096 18.597 12.0527 18.6873 11.9549C18.7776 11.8571 18.8322 11.7367 18.834 11.5994C18.8416 11.2947 18.8397 10.988 18.8378 10.6833C18.834 10.2845 18.8265 9.88759 18.8152 9.48879C18.8021 9.02604 18.7776 8.56329 18.7531 8.10241C18.7268 7.61144 18.6986 7.12047 18.6647 6.6295C18.6309 6.13853 18.5933 5.65321 18.55 5.166C18.5105 4.71265 18.4635 4.2593 18.4164 3.80784C18.3732 3.38271 18.3205 2.95946 18.2565 2.53809C18.2076 2.21642 18.1474 1.89851 18.0609 1.58436C18.0233 1.44892 17.98 1.31537 17.9273 1.18557C17.8615 1.02379 17.7919 0.862018 17.6922 0.717172C17.6339 0.632522 17.5699 0.549756 17.5003 0.47263C17.4307 0.395505 17.348 0.333427 17.2652 0.27135C17.2106 0.229965 17.1523 0.194226 17.0902 0.164128C16.9981 0.118981 16.9021 0.0794759 16.8024 0.0531403C16.7027 0.0268048 16.5974 0.0136381 16.4939 0.0042325C16.4281 -0.00141083 16.3604 -0.00141083 16.2945 0.0042325C16.1215 0.0174003 15.9484 0.0474976 15.7848 0.109574C15.6211 0.171651 15.4612 0.245014 15.3182 0.344713C15.1753 0.444412 15.0398 0.559161 14.9232 0.69272C14.8009 0.833803 14.6899 0.986172 14.5978 1.14983C14.5056 1.31348 14.4285 1.49219 14.3608 1.66902C14.2554 1.9399 14.1783 2.22206 14.1106 2.50423C14.0222 2.87481 13.9526 3.24915 13.8942 3.62349C13.8209 4.09753 13.7607 4.57345 13.708 5.05125C13.6553 5.52905 13.6121 6.03131 13.5726 6.52228C13.5312 7.04147 13.4954 7.56254 13.4635 8.08172C13.4315 8.60091 13.3995 9.15583 13.3713 9.69383C13.3431 10.2318 13.3167 10.7585 13.2904 11.2909C13.2641 11.8233 13.2396 12.3217 13.2114 12.8353C13.1851 13.3112 13.1587 13.7871 13.123 14.2612C13.091 14.6844 13.0553 15.1077 13.0082 15.529C12.9894 15.7077 12.9669 15.8846 12.9443 16.0633L12.9593 15.9485C12.901 16.3755 12.8295 16.8026 12.7486 17.2258C12.6583 17.698 12.5568 18.1682 12.442 18.6366C12.3273 19.105 12.2012 19.5715 12.062 20.0324C11.9228 20.4933 11.7723 20.9523 11.6106 21.4075C11.4488 21.8627 11.2757 22.3086 11.0914 22.7544C11.0688 22.8108 11.0444 22.8654 11.0218 22.9199L11.065 22.8183C10.8732 23.2736 10.67 23.7232 10.4556 24.1671C10.2411 24.611 10.0154 25.0493 9.77837 25.482C9.54135 25.9147 9.29304 26.3417 9.03533 26.7612C8.77762 27.1806 8.50862 27.5945 8.22833 28.0027C7.94805 28.4109 7.66024 28.8097 7.36114 29.201C7.3254 29.248 7.28778 29.2969 7.25204 29.3439L7.31787 29.2593C7.00749 29.6618 6.68582 30.0569 6.35475 30.4425C6.02367 30.8281 5.68883 31.2025 5.34083 31.5693C4.99282 31.9361 4.63353 32.2954 4.26483 32.6434C3.89613 32.9914 3.51991 33.33 3.13428 33.6573C2.94241 33.821 2.74678 33.979 2.55114 34.1407C2.3555 34.3025 2.16175 34.4605 1.96235 34.6148C1.91344 34.6543 1.86265 34.6919 1.81374 34.7314L1.89087 34.6712C1.68395 34.8311 1.47514 34.9854 1.2701 35.1434L1.34347 35.0869C1.20991 35.1904 1.07447 35.292 0.939028 35.3936C0.871308 35.4444 0.803588 35.4933 0.733987 35.5441C0.700127 35.5685 0.666267 35.593 0.630525 35.6193C0.581617 35.655 0.506372 35.6927 0.470631 35.7397L0.53647 35.6889C0.406673 35.783 0.276877 35.877 0.14708 35.9692C0.0831222 36.0143 0.0323316 36.0689 0.00975826 36.146C-0.00905285 36.2175 -0.00152771 36.3116 0.0398567 36.3755C0.0812412 36.4395 0.141437 36.494 0.216682 36.5128C0.291926 36.5316 0.374694 36.5222 0.446176 36.4827L0.449939 36.4865Z" fill="var(--fill-0, #212322)"/>
</g>
</svg>
