<svg preserveAspectRatio="none" width="100%" height="100%" overflow="visible" style="display: block;" viewBox="0 0 25.749 42.9729" fill="none" xmlns="http://www.w3.org/2000/svg">
<g id="Vector">
<path d="M9.81789 27.4196C9.79908 27.3312 9.78403 27.2447 9.77086 27.1544L9.78027 27.2258C9.77463 27.1863 9.77086 27.1468 9.7671 27.1073L9.7276 27.2541C9.75205 27.207 9.77462 27.1525 9.77086 27.0979C9.77086 27.0678 9.76334 27.034 9.75581 27.0039C9.75205 26.9851 9.74829 26.9681 9.74453 26.9493C9.73888 26.9117 9.73324 26.8759 9.7276 26.8383L9.73888 26.9192C9.70879 26.6972 9.69938 26.4734 9.70879 26.2514L9.69562 26.3436C9.71443 26.274 9.70878 26.2006 9.71255 26.1291C9.71443 26.0821 9.71819 26.037 9.72007 25.9899C9.7276 25.8997 9.737 25.8075 9.74829 25.7172L9.73512 25.815C9.75205 25.6946 9.77651 25.5742 9.7972 25.4538C9.81789 25.3334 9.84423 25.2112 9.87432 25.0927C9.93264 24.8519 10.006 24.6149 10.0907 24.3816C10.1377 24.2499 10.1885 24.1201 10.243 23.9922L10.2035 24.0863C10.3578 23.7194 10.5384 23.3677 10.7246 23.0159C10.9108 22.6641 11.1046 22.3161 11.2946 21.9644C11.4846 21.6126 11.6708 21.2627 11.8382 20.9015C12.0207 20.5084 12.1824 20.1058 12.3198 19.6939C12.4458 19.312 12.553 18.9245 12.6508 18.5332C12.7487 18.1419 12.8352 17.7469 12.9198 17.3538C13.0045 16.9606 13.091 16.5599 13.1851 16.1668C13.2697 15.8094 13.3638 15.4538 13.4409 15.0927C13.5124 14.7616 13.5782 14.4305 13.6554 14.0994C13.7325 13.7684 13.8152 13.4636 13.9281 13.157C13.9545 13.0836 13.9827 13.0122 14.0147 12.9388L13.9733 13.0366C14.0974 12.7413 14.2536 12.461 14.4492 12.207L14.3852 12.2898C14.5489 12.0772 14.7389 11.8854 14.9514 11.7198L14.8687 11.7838C15.0342 11.6559 15.2129 11.5505 15.4048 11.4697L15.307 11.511C15.5007 11.4301 15.7039 11.3756 15.9127 11.3474L15.8036 11.3624C16.0406 11.3304 16.2833 11.3323 16.5222 11.3624L16.4131 11.3474C16.5297 11.3624 16.6444 11.3944 16.7517 11.4396L16.652 11.3982C16.778 11.4508 16.8946 11.5223 17.0019 11.6051L16.9172 11.5393C17.0583 11.6502 17.1843 11.78 17.2953 11.9211L17.2295 11.8365C17.3574 12.002 17.4646 12.1826 17.5474 12.3745L17.5041 12.2729C17.6 12.5005 17.6527 12.7413 17.6866 12.9839L17.6715 12.8692C17.7186 13.221 17.7242 13.5784 17.7223 13.9339C17.7204 14.2894 17.7091 14.6769 17.6866 15.0475C17.664 15.4181 17.6339 15.7755 17.6 16.1386C17.5662 16.5016 17.5304 16.8609 17.4966 17.2221C17.4627 17.5833 17.4326 17.9369 17.4101 18.2962C17.3875 18.6555 17.3743 19.0073 17.3762 19.3628C17.3781 19.7183 17.3931 20.0739 17.4289 20.4275C17.4684 20.8207 17.5267 21.2119 17.6151 21.5957C17.6922 21.938 17.7957 22.2729 17.9161 22.6021C18.0365 22.9313 18.1663 23.2416 18.3092 23.5558C18.439 23.8398 18.5801 24.1201 18.7287 24.3948C18.8773 24.6694 19.0391 24.9478 19.2065 25.2168C19.3739 25.4858 19.5414 25.7604 19.7182 26.0276C19.895 26.2947 20.0812 26.5656 20.2693 26.8289C20.4575 27.0923 20.655 27.3556 20.8544 27.6133C21.0782 27.903 21.3021 28.1908 21.5316 28.4768C21.7347 28.7326 21.9417 28.9847 22.1486 29.2386C22.3555 29.4926 22.5587 29.739 22.7656 29.9892C22.9725 30.2394 23.1681 30.4802 23.3694 30.7266C23.5707 30.973 23.7626 31.2138 23.9563 31.4583C24.0485 31.575 24.1407 31.6916 24.231 31.8101L24.1482 31.7029C24.2517 31.8364 24.3532 31.97 24.4548 32.1054C24.5301 32.2051 24.6072 32.303 24.6843 32.4008C24.7106 32.4328 24.7351 32.4647 24.7614 32.4967C24.7878 32.5287 24.8103 32.5663 24.8404 32.5945L24.7596 32.4892C24.7596 32.4892 24.7727 32.508 24.7802 32.5174C24.8122 32.5776 24.8574 32.6265 24.9138 32.6641C24.9646 32.7093 25.0229 32.7413 25.0906 32.7563C25.1602 32.7789 25.2279 32.7808 25.2976 32.7657C25.3672 32.7619 25.4311 32.7413 25.4913 32.7036C25.6023 32.6322 25.7001 32.5249 25.7302 32.3932L25.749 32.2559C25.749 32.1619 25.7246 32.0753 25.6775 31.9945C25.5553 31.8289 25.4499 31.6502 25.3164 31.4922L25.3991 31.5994C25.1339 31.2552 24.863 30.9147 24.5884 30.5799C24.3307 30.2657 24.0692 29.9553 23.8077 29.6449C23.5462 29.3346 23.2716 29.0129 23.0045 28.6969C22.7374 28.3808 22.4608 28.0535 22.1937 27.7281C21.9266 27.4027 21.6614 27.0753 21.4037 26.7443C21.3717 26.7029 21.3397 26.6634 21.3077 26.622L21.383 26.7198C21.304 26.6182 21.2268 26.5167 21.1478 26.4151L21.2231 26.5129C20.8657 26.0501 20.5195 25.5761 20.1941 25.0889C19.8687 24.6017 19.5884 24.1182 19.3288 23.6103C19.1858 23.3301 19.0504 23.0441 18.9281 22.7544L18.9733 22.8617C18.7381 22.303 18.5444 21.7273 18.4259 21.131C18.3901 20.9523 18.36 20.7736 18.3356 20.593L18.3506 20.7115C18.2998 20.324 18.2716 19.9328 18.266 19.5415C18.2603 19.1502 18.2697 18.759 18.2923 18.3696C18.3149 17.9802 18.3487 17.5795 18.3845 17.1845C18.4202 16.7894 18.4616 16.3906 18.4955 15.9918C18.5293 15.593 18.5613 15.1867 18.5801 14.7823C18.5989 14.3778 18.6046 13.9659 18.5895 13.5558C18.582 13.3658 18.5707 13.1739 18.5481 12.9858C18.5199 12.7601 18.4879 12.5344 18.4221 12.3143C18.3318 12.0095 18.1888 11.7161 17.997 11.4621C17.8897 11.3192 17.7769 11.1818 17.6452 11.0614C17.5135 10.9411 17.363 10.8263 17.2012 10.7435C17.0395 10.6608 16.857 10.5874 16.6745 10.5592C16.4544 10.5272 16.2344 10.5084 16.0124 10.5216C15.8149 10.5329 15.6136 10.5592 15.4217 10.61C15.2487 10.6551 15.0812 10.721 14.9195 10.7962C14.7927 10.8555 14.6715 10.9265 14.5561 11.0059C14.4301 11.0927 14.311 11.1897 14.199 11.2928C14.0763 11.4044 13.9627 11.5252 13.8584 11.6533C13.8572 11.6548 13.856 11.6563 13.8548 11.6578C13.7344 11.8083 13.6196 11.9644 13.5199 12.1299C13.3393 12.4328 13.202 12.7601 13.091 13.093C12.9857 13.4053 12.9067 13.727 12.8352 14.0468C12.7637 14.3666 12.6941 14.7202 12.6189 15.055C12.5361 15.4256 12.4383 15.7924 12.3536 16.163C12.2633 16.5581 12.1806 16.955 12.094 17.3519C12.0075 17.7488 11.9191 18.1438 11.8175 18.5351C11.7159 18.9264 11.6031 19.3139 11.4695 19.6957C11.4037 19.8801 11.3341 20.0644 11.2569 20.245L11.2983 20.1491C11.1328 20.5404 10.9428 20.9203 10.7434 21.2966C10.544 21.6728 10.3352 22.0434 10.1358 22.4196C9.9364 22.7958 9.737 23.2003 9.56582 23.6047C9.39464 24.0091 9.2592 24.4004 9.1595 24.8143C9.0598 25.2281 9.00525 25.6777 9.01466 26.116C9.01466 26.1893 9.01089 26.2759 9.03347 26.3455L9.0203 26.2533C9.03535 26.4301 9.05792 26.607 9.0899 26.78C9.10307 26.8534 9.12 26.9249 9.13881 26.9982C9.14822 27.034 9.15762 27.0697 9.16891 27.1054C9.17455 27.1243 9.18019 27.1412 9.18395 27.16C9.19148 27.192 9.19712 27.2183 9.2197 27.2503C9.24979 27.2973 9.28554 27.3293 9.33256 27.3613L9.2291 27.2578C9.27801 27.3744 9.33444 27.4892 9.39652 27.6002C9.45295 27.6999 9.58087 27.7394 9.68621 27.6942C9.79532 27.6472 9.84423 27.5362 9.81977 27.4215L9.81789 27.4196Z" fill="var(--fill-0, #212322)"/>
<path fill-rule="evenodd" clip-rule="evenodd" d="M6.8873 16.6466C6.86844 16.8437 6.8493 17.0421 6.82705 17.239L6.83646 17.2427C6.83082 17.2954 6.81765 17.3368 6.78191 17.3744C6.74805 17.4101 6.69725 17.4271 6.65023 17.429C6.6032 17.4308 6.55053 17.4064 6.51855 17.3744C6.48093 17.3368 6.46964 17.2935 6.464 17.2427C6.44229 17.0507 6.41762 16.8572 6.39262 16.6649C6.38412 16.6357 6.38044 16.6043 6.37934 16.5768V16.5467C6.37878 16.5416 6.37804 16.5364 6.37729 16.531C6.37554 16.5185 6.3737 16.5053 6.3737 16.4922C6.37182 16.4733 6.36994 16.455 6.36806 16.4367C6.36618 16.4183 6.3643 16.4 6.36242 16.3812C6.33872 16.1341 6.31199 15.887 6.28495 15.64C6.27299 15.6072 6.27159 15.5667 6.27027 15.5282C6.26979 15.5142 6.26932 15.5006 6.26836 15.4876C6.26773 15.4795 6.2669 15.4713 6.26606 15.4632C6.26439 15.4469 6.26272 15.4306 6.26272 15.4143L6.25143 15.2676C6.22688 14.9291 6.20069 14.5922 6.17439 14.2539L6.17209 14.2244C6.16303 14.1593 6.15975 14.0924 6.1565 14.0263C6.15507 13.9971 6.15364 13.9681 6.15173 13.9395C6.14797 13.8567 6.14233 13.774 6.13669 13.6912C6.13266 13.6277 6.12863 13.5646 6.12461 13.5017C6.10611 13.212 6.08784 12.9259 6.07085 12.6246C6.05186 12.2881 6.03605 11.9579 6.0234 11.6165C6.02226 11.5858 6.02114 11.555 6.02006 11.5241C6.00689 11.1498 5.99748 10.7811 5.98996 10.3992C5.9874 10.2693 5.98527 10.1394 5.98366 10.0096C5.98053 9.75778 5.97931 9.50624 5.98055 9.25553C5.98243 8.87554 5.98808 8.49368 5.99936 8.11557C6.01065 7.73747 6.02758 7.3556 6.05203 6.98503C6.07649 6.61445 6.10659 6.24387 6.14797 5.87517C6.19124 5.48014 6.24391 5.0851 6.30787 4.69195C6.3643 4.34395 6.43014 3.99783 6.50914 3.65359C6.59191 3.28677 6.68409 2.91995 6.80636 2.56254C6.93616 2.1788 7.09793 1.79881 7.31426 1.45457C7.43089 1.27022 7.56445 1.0934 7.70929 0.92974C7.84473 0.77737 7.9971 0.649455 8.15888 0.529064C8.29056 0.433127 8.43164 0.348477 8.58025 0.278876C8.75895 0.194226 8.94518 0.122743 9.13705 0.0757153C9.24992 0.0474987 9.36467 0.0324499 9.47942 0.017401C9.55842 0.00799546 9.64119 0.00235133 9.71832 0.000470216C9.79544 -0.0014109 9.87257 0.00235216 9.9497 0.0117577C10.0626 0.0249255 10.1773 0.039974 10.2883 0.0681906C10.3635 0.0870018 10.435 0.111456 10.5065 0.141553C10.6118 0.184819 10.7172 0.229966 10.8131 0.290161C10.9091 0.350357 10.9994 0.419959 11.084 0.493322C11.1423 0.542231 11.1969 0.596783 11.2477 0.655098C11.3681 0.792419 11.4772 0.941026 11.5562 1.10468C11.5839 1.1622 11.6101 1.21995 11.6342 1.27876C11.6787 1.38726 11.7162 1.49933 11.7443 1.62011C11.7836 1.78918 11.8073 1.96136 11.8212 2.13382C11.7232 2.15971 11.6269 2.19166 11.5325 2.22911C11.363 2.30725 11.204 2.40575 11.0544 2.51793C11.0149 2.55033 10.9762 2.58366 10.9383 2.61786C10.948 2.42229 10.946 2.22543 10.9251 2.02984C10.9036 1.89016 10.8711 1.75275 10.8245 1.62047C10.8174 1.60021 10.8099 1.58007 10.8021 1.56006C10.7605 1.47096 10.7122 1.3857 10.6554 1.30551C10.5908 1.22705 10.5193 1.1554 10.4411 1.09055C10.3711 1.04117 10.2969 0.998049 10.219 0.961767C10.1187 0.924144 10.0145 0.89622 9.90883 0.878796C9.78587 0.867076 9.66231 0.867934 9.54031 0.879938C9.37179 0.906815 9.20625 0.952936 9.04803 1.01505C8.89204 1.08448 8.74384 1.17101 8.60646 1.27161C8.58265 1.29072 8.55929 1.31031 8.53637 1.33035C8.41568 1.43582 8.30695 1.55363 8.20734 1.67878C8.10464 1.81798 8.013 1.96472 7.93093 2.11676C7.86988 2.22985 7.81414 2.34587 7.76306 2.4639C7.68161 2.66485 7.61085 2.87158 7.5494 3.07985C7.43089 3.47864 7.33307 3.89813 7.25407 4.29316C7.17961 4.66543 7.11852 5.03937 7.06607 5.41498C7.06297 5.43991 7.05976 5.46473 7.05655 5.48954C7.05138 5.52952 7.0462 5.56949 7.0415 5.60994C7.00012 5.94477 6.96437 6.27585 6.93616 6.61633C6.90794 6.95681 6.88536 7.29353 6.86843 7.63965C6.8515 7.98578 6.83834 8.33378 6.83082 8.67991C6.82329 9.02603 6.81953 9.37215 6.81953 9.71828C6.81953 10.0644 6.82329 10.4162 6.82893 10.7567C6.83458 11.0971 6.8421 11.447 6.85339 11.78C6.85997 11.9741 6.86463 12.1707 6.86924 12.3651C6.87253 12.5042 6.8758 12.642 6.87972 12.777C6.88284 12.8844 6.88597 12.9935 6.88909 13.1027C6.89538 13.3221 6.90166 13.5416 6.90794 13.7476C6.91735 14.0561 6.92487 14.3665 6.92863 14.675L6.93427 15.1227C6.93616 15.198 6.93616 15.2713 6.93616 15.3447V15.45C6.93616 15.462 6.93636 15.474 6.93655 15.4861C6.93713 15.5214 6.93772 15.5568 6.93335 15.5911C6.93173 15.6589 6.9299 15.7266 6.92675 15.7943C6.92299 15.9316 6.91735 16.0689 6.9117 16.2043C6.90982 16.2382 6.90841 16.2721 6.907 16.3059C6.90559 16.3398 6.90418 16.3736 6.90229 16.4075C6.90229 16.4235 6.90135 16.4395 6.90041 16.4555C6.89947 16.4715 6.89853 16.4875 6.89853 16.5034C6.89792 16.5154 6.89756 16.5274 6.8972 16.5395C6.89611 16.5756 6.89501 16.6122 6.8873 16.6466ZM8.55579 1.30972C8.56131 1.30546 8.56684 1.30123 8.57239 1.29701L8.55579 1.30972ZM9.46813 0.888355C9.47578 0.887323 9.48345 0.886335 9.49111 0.88539L9.46813 0.888355ZM9.97603 0.886474L9.96098 0.884531C9.966 0.885157 9.97102 0.885805 9.97603 0.886474ZM10.4933 1.12914L10.4821 1.12056C10.4859 1.1234 10.4896 1.12626 10.4933 1.12914ZM10.6137 1.24953C10.6201 1.25764 10.6263 1.26581 10.6325 1.27404L10.6137 1.24953Z" fill="var(--fill-0, #212322)"/>
<path fill-rule="evenodd" clip-rule="evenodd" d="M4.43228 16.7969C4.44169 17.1599 4.45109 17.5249 4.45862 17.8879L4.44922 17.8936C4.44922 17.9688 4.41724 18.0346 4.36645 18.0911C4.31566 18.1475 4.23853 18.172 4.16893 18.1738C4.09933 18.1757 4.02032 18.14 3.97141 18.0911C3.94319 18.0647 3.92438 18.0346 3.9131 18.0008C3.89545 17.9708 3.88939 17.9358 3.88871 17.9006L3.88869 17.8996C3.86488 17.7201 3.84092 17.5407 3.81528 17.3612C3.80035 17.2518 3.78461 17.1398 3.76913 17.0298C3.76119 16.9734 3.75333 16.9175 3.74568 16.8627C3.73967 16.8197 3.7338 16.7765 3.72792 16.7333C3.7117 16.614 3.69541 16.4942 3.67608 16.3755C3.65476 16.2476 3.64013 16.118 3.6255 15.9884C3.61818 15.9236 3.61087 15.8588 3.60272 15.7942C3.59237 15.7105 3.58202 15.6263 3.57168 15.5422C3.56502 15.488 3.55836 15.4338 3.5517 15.3797C3.54155 15.3266 3.53689 15.272 3.53232 15.2183C3.53076 15.2001 3.52922 15.182 3.52747 15.1641C3.52225 15.124 3.51863 15.0824 3.51514 15.0421L3.5143 15.0324C3.51054 14.9882 3.50631 14.9444 3.50208 14.9007C3.49784 14.857 3.49361 14.8132 3.48985 14.769C3.45599 14.4041 3.42401 14.0373 3.39391 13.6723C3.36381 13.3074 3.3356 12.9406 3.31114 12.5794C3.28669 12.2182 3.26411 11.8533 3.25095 11.4921C3.23778 11.131 3.22837 10.7679 3.22649 10.4086C3.22461 10.0493 3.22837 9.68815 3.23778 9.33074C3.24719 8.97333 3.266 8.61404 3.29045 8.25851C3.3149 7.90298 3.34876 7.54557 3.39203 7.19192C3.43906 6.80065 3.49549 6.40938 3.56321 6.01999C3.62529 5.66634 3.69865 5.31833 3.7833 4.96657C3.78996 4.93889 3.79669 4.91125 3.80349 4.88364L3.80363 4.88307C3.80377 4.88252 3.8039 4.88198 3.80403 4.88144C3.88353 4.55886 3.9727 4.24042 4.07299 3.91879C4.08083 3.89365 4.08873 3.86855 4.09669 3.84348C4.19948 3.51969 4.31222 3.20168 4.43793 2.88042C4.57337 2.5343 4.71821 2.18629 4.9082 1.86462C5.01166 1.68968 5.13018 1.52602 5.25997 1.36989C5.36532 1.24386 5.48006 1.12911 5.60798 1.02753C5.76035 0.907137 5.92024 0.794271 6.09519 0.713384C6.27013 0.632496 6.45072 0.561014 6.64071 0.530916C6.75546 0.512105 6.87397 0.495176 6.98871 0.495176C7.10346 0.495176 7.22009 0.510224 7.33296 0.529036C7.50602 0.557252 7.67532 0.62309 7.83145 0.703978C7.89353 0.735956 7.95184 0.771698 8.00827 0.813082C8.09292 0.875159 8.17757 0.939117 8.2547 1.0106C8.35954 1.10632 8.45211 1.21555 8.53637 1.33035C8.41568 1.43582 8.30695 1.55363 8.20734 1.67878C8.10464 1.81798 8.013 1.96472 7.93093 2.11676C7.87958 2.01287 7.81972 1.91247 7.75135 1.81854C7.68313 1.73689 7.60756 1.66107 7.52545 1.59352C7.46484 1.55122 7.4008 1.51356 7.33375 1.48141C7.26396 1.45549 7.19199 1.43522 7.11834 1.42159C7.03532 1.41367 6.95171 1.41349 6.86867 1.42105C6.76577 1.43994 6.66565 1.46909 6.56761 1.50642C6.45374 1.55989 6.34513 1.62433 6.24255 1.69745C6.10748 1.80783 5.98807 1.93387 5.87917 2.07042C5.69245 2.32722 5.54761 2.61234 5.42105 2.90454C5.30455 3.18506 5.19809 3.47198 5.10008 3.7589C5.03271 3.95693 4.96879 4.15716 4.90867 4.35837C4.8026 4.71337 4.70836 5.07138 4.62792 5.42556C4.59771 5.55857 4.56891 5.69201 4.54153 5.82581C4.4547 6.25023 4.38227 6.67821 4.32506 7.10727L4.34199 6.985C4.3307 7.06965 4.31942 7.1543 4.31001 7.23895C4.22536 7.93496 4.17645 8.63285 4.15388 9.33451C4.13131 10.0362 4.13507 10.7284 4.15764 11.4413C4.18022 12.1543 4.21031 12.8672 4.25358 13.5783L4.25558 13.6098C4.27749 13.9549 4.2995 14.3017 4.32506 14.6468C4.32945 14.7064 4.33363 14.7659 4.33782 14.8255C4.34617 14.9446 4.35453 15.0638 4.36456 15.1829C4.37704 15.331 4.38305 15.4805 4.38903 15.6291C4.39026 15.6597 4.39149 15.6903 4.39278 15.7209C4.39578 15.7921 4.39998 15.8637 4.40418 15.9353C4.41051 16.0433 4.41686 16.1514 4.41912 16.2589L4.41935 16.2702C4.42304 16.4452 4.42676 16.6219 4.43228 16.7969ZM5.93341 1.99818L5.89929 2.04307C5.91051 2.02801 5.92188 2.01304 5.93341 1.99818ZM7.05267 1.41128C7.06005 1.41223 7.06741 1.41325 7.07476 1.41433L7.05267 1.41128ZM7.58691 1.63889L7.55796 1.61689C7.56771 1.62411 7.57736 1.63144 7.58691 1.63889ZM8.68171 5.68515L8.66812 5.78937C8.67255 5.75463 8.67708 5.71989 8.68171 5.68515ZM8.66666 10.5911L8.67239 10.6344C8.67046 10.6199 8.66855 10.6055 8.66666 10.5911ZM3.88869 17.8996C3.88866 17.8976 3.88864 17.8956 3.88864 17.8936C3.88778 17.8858 3.88652 17.8776 3.88523 17.8693C3.88458 17.8651 3.88392 17.8608 3.8833 17.8565L3.88869 17.8996Z" fill="var(--fill-0, #212322)"/>
<path d="M16.684 42.2579L16.6615 42.2052L16.6747 42.2272C16.6675 42.21 16.6578 42.1957 16.648 42.181C16.6404 42.1697 16.6326 42.1582 16.6257 42.1451C16.6169 42.1287 16.6098 42.1124 16.6027 42.0961C16.5992 42.088 16.5956 42.0798 16.5919 42.0717C16.5806 42.0482 16.5698 42.0242 16.5589 42.0002C16.5481 41.9762 16.5373 41.9522 16.526 41.9287L16.5255 41.9276C16.4924 41.8573 16.4593 41.787 16.4263 41.716C16.4278 41.7242 16.429 41.7324 16.4301 41.7406C16.4339 41.7726 16.4357 41.7782 16.4339 41.8027L16.3906 41.639C16.4025 41.6648 16.4144 41.6904 16.4263 41.716C16.4198 41.6806 16.4089 41.6451 16.3906 41.6146C16.3849 41.6052 16.3793 41.5976 16.3737 41.5901C16.3605 41.5732 16.3492 41.5544 16.3379 41.5356C16.3266 41.5177 16.3153 41.5003 16.3041 41.4829C16.2928 41.4655 16.2815 41.4481 16.2702 41.4302C16.2476 41.3954 16.2251 41.3602 16.2025 41.3249C16.1799 41.2896 16.1573 41.2543 16.1348 41.2195C16.0887 41.149 16.0426 41.0789 15.9965 41.0089L15.9954 41.0072C15.9497 40.9377 15.904 40.8682 15.8582 40.7982C15.8432 40.7756 15.8281 40.7531 15.8131 40.7308L15.8129 40.7304C15.7756 40.6749 15.7385 40.6197 15.7024 40.5635C15.7143 40.5922 15.7264 40.6209 15.7416 40.6496V40.659L15.7024 40.5635L15.6983 40.5536C15.6946 40.548 15.6908 40.5423 15.6871 40.5386C15.6833 40.5329 15.6791 40.5278 15.6748 40.5226C15.6706 40.5174 15.6664 40.5122 15.6626 40.5066C15.6475 40.4859 15.6325 40.4633 15.6193 40.4408L15.529 40.3053C15.4989 40.2611 15.4693 40.2169 15.4397 40.1727C15.411 40.1298 15.3822 40.087 15.3531 40.0441C15.366 40.0743 15.3791 40.1035 15.3936 40.1341V40.1435L15.3503 40.0401L15.3531 40.0441L15.3466 40.0288C15.345 40.0264 15.3434 40.024 15.3418 40.0217C15.3396 40.0187 15.3374 40.0159 15.3353 40.0138C15.3315 40.0081 15.3273 40.0029 15.3231 39.9978C15.3188 39.9926 15.3146 39.9874 15.3108 39.9818C15.292 39.9573 15.2751 39.9347 15.2582 39.9103C15.2422 39.8887 15.2257 39.867 15.2093 39.8454C15.1928 39.8238 15.1763 39.8021 15.1603 39.7805C15.0945 39.694 15.0268 39.6055 14.9591 39.519C14.805 39.3199 14.6491 39.1208 14.4932 38.9217L14.4925 38.9208C14.2235 38.5822 13.9489 38.2455 13.6686 37.9144C13.3883 37.5834 13.1062 37.256 12.8165 36.9344C12.5268 36.6127 12.2371 36.2967 11.9399 35.9844C11.6427 35.6721 11.3379 35.3599 11.0294 35.057C10.7209 34.7542 10.403 34.4532 10.0832 34.1597C9.76343 33.8663 9.4286 33.5691 9.09564 33.2813C8.76268 32.9934 8.41468 32.7075 8.06667 32.4291C7.68857 32.1263 7.30294 31.829 6.91543 31.5375C6.74375 31.4071 6.5716 31.2776 6.39945 31.1481L6.39813 31.1471C6.22553 31.0173 6.05294 30.8875 5.88082 30.7568C5.80026 30.6959 5.7214 30.6351 5.64262 30.5742L5.73974 30.6496C5.70734 30.6245 5.67497 30.5994 5.64262 30.5742C5.26743 30.2821 4.89619 29.9831 4.53771 29.6714C4.14832 29.3328 3.78527 28.9867 3.44102 28.6123C3.25187 28.4067 3.06975 28.1939 2.89844 27.9739L2.97075 28.0687C2.94644 28.0373 2.92233 28.0057 2.89844 27.9739C2.89621 27.971 2.89412 27.9681 2.8919 27.9652C2.57824 27.5473 2.30085 27.1024 2.07157 26.6334C2.00975 26.5081 1.95214 26.3814 1.89754 26.2546C1.90717 26.2781 1.9169 26.3015 1.92673 26.3249L1.87217 26.1951C1.88056 26.2149 1.88901 26.2347 1.89754 26.2546C1.76705 25.9363 1.65451 25.6101 1.55991 25.279C1.45833 24.9235 1.37368 24.5604 1.30784 24.1955C1.27268 24.0003 1.24064 23.8052 1.21358 23.6085L1.22695 23.7102C1.22237 23.6763 1.21791 23.6424 1.21358 23.6085L1.2113 23.5906C1.16179 23.1994 1.12876 22.8067 1.10656 22.4141C1.08211 21.9814 1.07082 21.5394 1.06894 21.1029C1.06706 20.6665 1.07458 20.2282 1.08399 19.7899C1.09213 19.4104 1.10733 19.004 1.12226 18.605L1.12914 18.4205C1.14607 17.922 1.16488 17.4235 1.18557 16.925C1.20626 16.4265 1.22695 15.9318 1.24953 15.4351C1.2721 14.9385 1.30032 14.4382 1.33042 13.9397C1.36051 13.4412 1.39437 12.9446 1.43388 12.4461C1.47338 11.9476 1.51665 11.4528 1.56556 10.9562C1.61446 10.4596 1.6709 9.96864 1.73297 9.47767C1.7405 9.41653 1.74849 9.35587 1.75649 9.2952C1.76224 9.25156 1.76799 9.20791 1.77357 9.16409C1.76942 9.19462 1.76529 9.22516 1.76119 9.2557L1.78 9.11273C1.77789 9.12989 1.77574 9.147 1.77357 9.16409C1.84177 8.66249 1.91686 8.16254 2.00197 7.66428C2.0099 7.61772 2.01776 7.57113 2.02562 7.52451C2.09244 7.12848 2.1595 6.73103 2.26721 6.34562C2.31799 6.16282 2.3779 5.98306 2.4497 5.80773C2.4429 5.82303 2.4362 5.83837 2.42959 5.85375L2.41958 5.87722C2.42289 5.86939 2.42623 5.86156 2.42959 5.85375L2.47222 5.7538C2.46458 5.77173 2.45708 5.7897 2.4497 5.80773C2.53786 5.60921 2.64204 5.41692 2.77046 5.2411C2.75606 5.25856 2.74194 5.27622 2.72808 5.29408L2.81107 5.18712C2.79727 5.20493 2.78373 5.22293 2.77046 5.2411C2.84234 5.15395 2.92094 5.07216 3.00694 4.99909C2.98903 5.01172 2.97133 5.02477 2.95381 5.03825L3.06292 4.9536C3.04392 4.96835 3.02526 4.98352 3.00694 4.99909C3.06991 4.95466 3.13538 4.91546 3.20431 4.88148C3.18274 4.88925 3.16132 4.89761 3.14004 4.90657L3.26796 4.85202C3.24641 4.86136 3.2252 4.87118 3.20431 4.88148C3.26928 4.85806 3.3356 4.84003 3.40326 4.82736C3.37873 4.82931 3.3543 4.83191 3.33004 4.83509L3.47191 4.81642C3.44888 4.81946 3.42599 4.82311 3.40326 4.82736C3.46618 4.82236 3.52973 4.82158 3.59273 4.82592C3.57362 4.8223 3.5544 4.81908 3.53508 4.81628L3.64494 4.83073C3.65601 4.83202 3.66704 4.83347 3.67804 4.83509L3.64494 4.83073C3.6276 4.82872 3.61018 4.82713 3.59273 4.82592C3.66472 4.83957 3.73513 4.85897 3.80349 4.88364L3.80363 4.88307C3.78397 4.87357 3.76406 4.86447 3.74388 4.85578L3.80403 4.88144C3.88353 4.55886 3.9727 4.24042 4.07299 3.91879C4.08083 3.89365 4.08873 3.86855 4.09669 3.84348C4.02799 3.81891 3.95815 3.7987 3.88685 3.78544C3.72507 3.75534 3.55577 3.73465 3.39023 3.7497C3.23974 3.76286 3.08549 3.78543 2.94065 3.83434C2.7958 3.88325 2.66412 3.94157 2.53809 4.01869C2.31988 4.15413 2.12613 4.32907 1.96999 4.53035C1.87406 4.6545 1.78188 4.77866 1.70288 4.91222C1.64456 5.01192 1.59001 5.11726 1.54298 5.2226C1.42447 5.48031 1.32477 5.74367 1.24576 6.01643C1.17616 6.25909 1.12538 6.50364 1.08023 6.75194C1.01815 7.09054 0.959836 7.43102 0.905284 7.7715C0.788655 8.49573 0.690838 9.22372 0.606188 9.95171C0.5253 10.6364 0.459462 11.323 0.401147 12.0115C0.342833 12.7 0.295804 13.3885 0.256301 14.0789C0.216798 14.7692 0.182937 15.4596 0.152839 16.15C0.122742 16.8403 0.0982875 17.5307 0.073833 18.2211C0.0700929 18.3258 0.0663012 18.4305 0.0625091 18.5353C0.0434142 19.0626 0.0243115 19.5902 0.011756 20.1191C-0.00329286 20.7531 -0.00517214 21.3362 0.013639 21.9438C0.0324501 22.5514 0.0757146 23.1496 0.156602 23.7478C0.241252 24.3798 0.354119 25.0081 0.532825 25.6214C0.71153 26.2346 0.942908 26.8234 1.23636 27.384C1.52981 27.9445 1.88158 28.4468 2.2785 28.9284C2.64343 29.3704 3.04787 29.7805 3.473 30.1661C3.89813 30.5518 4.35336 30.9223 4.81235 31.2779C5.20001 31.5771 5.59114 31.8705 5.98302 32.1645L5.98331 32.1648C6.09145 32.2459 6.19964 32.3271 6.30784 32.4084C6.53733 32.5796 6.76494 32.7527 6.99068 32.9276L6.88346 32.8448C7.17691 33.0725 7.46848 33.3038 7.75629 33.5371C7.7807 33.557 7.80502 33.577 7.82934 33.5971L7.83051 33.598C7.8866 33.6442 7.94263 33.6903 7.99955 33.7353L7.98955 33.7271L8.09677 33.8098C8.06397 33.7855 8.03162 33.7606 7.99955 33.7353C8.48329 34.1315 8.95776 34.5369 9.42296 34.9536C9.89135 35.3731 10.3315 35.7869 10.7717 36.2177C11.2119 36.6484 11.6427 37.0867 12.064 37.5363C12.4854 37.9859 12.8917 38.4393 13.2905 38.902C13.6893 39.3648 14.09 39.8501 14.4756 40.3373C14.4991 40.3674 14.5226 40.397 14.5462 40.4267C14.5501 40.4316 14.554 40.4364 14.5579 40.4414L14.5471 40.4276C14.5508 40.432 14.5544 40.4366 14.5579 40.4414C14.5585 40.4421 14.559 40.4428 14.5595 40.4435L14.5735 40.4611C14.5879 40.4793 14.6023 40.4976 14.6167 40.516L14.5735 40.4611L14.5595 40.4435C14.5645 40.4503 14.5693 40.4571 14.5734 40.4633C14.5768 40.4676 14.5801 40.4718 14.5834 40.476C14.5945 40.4906 14.605 40.5052 14.6167 40.5198C14.6313 40.5383 14.6472 40.5568 14.6645 40.574L14.66 40.5687L14.7484 40.6364C14.7173 40.6208 14.6895 40.5987 14.6645 40.574C14.7796 40.7067 14.8945 40.8411 15.008 40.9756C15.0017 40.9671 14.9954 40.9586 14.9892 40.9505C14.9861 40.946 14.9828 40.9412 14.9793 40.9363L14.9628 40.9148C14.9685 40.9216 14.9741 40.929 14.9793 40.9363L15.0249 40.9957C15.0196 40.9894 15.0142 40.9832 15.0089 40.9769C15.0155 40.9858 15.0221 40.9947 15.0287 41.0032C15.0424 41.0251 15.0581 41.0441 15.0772 41.0593L15.0682 41.0484L15.1491 41.1104C15.1321 41.101 15.1152 41.0879 15.1001 41.0747C15.092 41.0701 15.0843 41.0649 15.0772 41.0593C15.3123 41.3432 15.5457 41.6288 15.7745 41.9175C15.7723 41.9142 15.7701 41.9111 15.7679 41.908L15.8206 41.9757C15.8053 41.9563 15.7899 41.9369 15.7745 41.9175C15.7818 41.9281 15.7894 41.9393 15.798 41.9494C15.8168 41.9758 15.8357 42.0021 15.8564 42.0265C15.8736 42.0454 15.8959 42.0625 15.9203 42.0769C15.9058 42.0627 15.8914 42.0484 15.877 42.0341L16.02 42.1168C15.9872 42.1094 15.9519 42.0954 15.9203 42.0769C15.9391 42.0953 15.9579 42.1136 15.9767 42.1319L15.9769 42.1321C16.0103 42.1645 16.0436 42.1968 16.0764 42.2297C16.0934 42.2457 16.1098 42.2621 16.1263 42.2786C16.1428 42.2951 16.1592 42.3115 16.1761 42.3275L16.1927 42.3431C16.2142 42.3631 16.2358 42.3834 16.2559 42.4049C16.2507 42.3974 16.2454 42.3898 16.2401 42.3821L16.2758 42.4272C16.2694 42.4196 16.2628 42.4122 16.2559 42.4049C16.2749 42.4318 16.2939 42.4571 16.3179 42.479L16.3567 42.5081C16.3423 42.4993 16.3295 42.4896 16.3179 42.479L16.3116 42.4742L16.6615 42.9201C16.6878 42.952 16.7499 42.9746 16.7913 42.9727C16.8326 42.9709 16.8684 42.9596 16.9022 42.9332C16.9737 42.8787 16.9963 42.7771 16.9493 42.6981L16.9549 42.6943L16.9539 42.6926C16.8608 42.5369 16.7678 42.3812 16.6747 42.2272C16.6786 42.2364 16.6818 42.2465 16.684 42.2579Z" fill="var(--fill-0, #212322)"/>
<path fill-rule="evenodd" clip-rule="evenodd" d="M14.4608 5.36353L14.4511 5.4373C14.4543 5.41269 14.4575 5.3881 14.4608 5.36353ZM13.6939 3.33217L13.7027 3.40154C13.7011 3.39012 13.6995 3.37871 13.6978 3.36732C13.6966 3.3556 13.6953 3.34388 13.6939 3.33217ZM13.6939 3.33217L13.6876 3.28303C13.6898 3.29941 13.6919 3.31579 13.6939 3.33217ZM13.5613 2.83979C13.5697 2.85767 13.5778 2.8757 13.5856 2.89389L13.5428 2.79394C13.5491 2.80916 13.5553 2.82444 13.5613 2.83979ZM13.389 2.54594C13.4023 2.56195 13.4153 2.57816 13.428 2.59455L13.3584 2.50425C13.3688 2.51803 13.379 2.53193 13.389 2.54594ZM13.1677 2.32533L13.223 2.36881C13.2131 2.36126 13.2032 2.35383 13.1932 2.34653C13.1848 2.33936 13.1763 2.3323 13.1677 2.32533ZM13.1677 2.32533L13.1346 2.29921C13.1458 2.30775 13.1568 2.31646 13.1677 2.32533ZM12.8817 2.16747L12.9653 2.20327C12.9502 2.19684 12.935 2.19064 12.9198 2.18467C12.9072 2.17878 12.8945 2.17305 12.8817 2.16747ZM12.8817 2.16747L12.8599 2.15813C12.8672 2.16119 12.8745 2.16431 12.8817 2.16747ZM12.579 2.08626C12.5622 2.08416 12.5454 2.08227 12.5285 2.08058C12.5124 2.07803 12.4962 2.07567 12.48 2.07348L12.579 2.08626ZM12.579 2.08626C12.5849 2.08699 12.5907 2.08775 12.5966 2.08853L12.579 2.08626ZM12.0204 2.08781L12.1169 2.07536C12.1004 2.07753 12.0839 2.07989 12.0674 2.08242C12.0517 2.08406 12.0361 2.08586 12.0204 2.08781ZM12.0204 2.08781L12.0003 2.09041C12.007 2.08951 12.0137 2.08865 12.0204 2.08781ZM11.5769 2.20922C11.5621 2.2157 11.5473 2.22233 11.5325 2.22911C11.5197 2.23419 11.507 2.23938 11.4942 2.24466L11.5769 2.20922ZM11.5769 2.20922C11.5845 2.20594 11.592 2.20271 11.5996 2.19951L11.5769 2.20922ZM11.0927 2.48699C11.0798 2.49721 11.0671 2.50752 11.0544 2.51793C11.0455 2.52461 11.0366 2.53134 11.0277 2.53811L11.0927 2.48699ZM11.0927 2.48699C11.1005 2.4808 11.1083 2.47464 11.1161 2.46851L11.0927 2.48699ZM10.5259 3.05773L10.5499 3.0272C10.5452 3.03323 10.5405 3.03928 10.5359 3.04534C10.5325 3.04946 10.5292 3.05359 10.5259 3.05773ZM10.5259 3.05773L10.4803 3.11561C10.4954 3.09618 10.5106 3.07689 10.5259 3.05773ZM9.77667 4.39505L9.78808 4.36843C9.78675 4.37162 9.78541 4.37481 9.78407 4.378C9.7816 4.38368 9.77913 4.38937 9.77667 4.39505ZM9.77667 4.39505L9.74293 4.47377C9.75409 4.4475 9.76533 4.42126 9.77667 4.39505ZM9.743 4.47549L9.71472 4.54149C9.72415 4.51973 9.73357 4.4977 9.743 4.47549ZM8.89791 7.66702C8.89993 7.65109 8.90194 7.63511 8.90396 7.61898L8.88891 7.73373C8.89186 7.71149 8.89486 7.68925 8.89791 7.66702Z" fill="var(--fill-0, #212322)"/>
<path d="M11.6342 1.27876C11.6787 1.38726 11.7162 1.49933 11.7443 1.62011C11.7836 1.78918 11.8073 1.96136 11.8212 2.13382C11.9022 2.11243 11.9844 2.09518 12.0674 2.08242C12.0517 2.08406 12.0361 2.08586 12.0204 2.08781L12.0003 2.09041C12.007 2.08951 12.0137 2.08865 12.0204 2.08781L12.1169 2.07536C12.1004 2.07753 12.0839 2.07989 12.0674 2.08242C12.2205 2.06639 12.3754 2.0652 12.5285 2.08058C12.5124 2.07803 12.4962 2.07567 12.48 2.07348L12.579 2.08626C12.5849 2.08699 12.5907 2.08775 12.5966 2.08853L12.579 2.08626C12.5622 2.08416 12.5454 2.08227 12.5285 2.08058C12.6627 2.10174 12.7941 2.13545 12.9198 2.18467C12.9072 2.17878 12.8945 2.17305 12.8817 2.16747L12.8599 2.15813C12.8672 2.16119 12.8745 2.16431 12.8817 2.16747L12.9653 2.20327C12.9502 2.19684 12.935 2.19064 12.9198 2.18467C13.0159 2.22955 13.1068 2.28323 13.1932 2.34653C13.1848 2.33936 13.1763 2.3323 13.1677 2.32533L13.1346 2.29921C13.1458 2.30775 13.1568 2.31646 13.1677 2.32533L13.223 2.36881C13.2131 2.36126 13.2032 2.35383 13.1932 2.34653C13.2644 2.40711 13.3297 2.47452 13.389 2.54594C13.379 2.53193 13.3688 2.51803 13.3584 2.50425L13.428 2.59455C13.4153 2.57816 13.4023 2.56195 13.389 2.54594C13.4552 2.63867 13.5129 2.73662 13.5613 2.83979C13.5553 2.82444 13.5491 2.80916 13.5428 2.79394L13.5856 2.89389C13.5778 2.8757 13.5697 2.85767 13.5613 2.83979C13.6273 3.00923 13.6712 3.18671 13.6978 3.36732C13.6966 3.3556 13.6953 3.34388 13.6939 3.33217L13.6876 3.28303C13.6898 3.29941 13.6919 3.31579 13.6939 3.33217L13.7027 3.40154C13.7011 3.39012 13.6995 3.37871 13.6978 3.36732C13.7367 3.72885 13.7134 4.09177 13.682 4.45308C13.6644 4.66955 13.6398 4.88552 13.6152 5.1015C13.5923 5.30218 13.5694 5.50288 13.5522 5.70401C13.5108 6.16301 13.4863 6.62576 13.4769 7.08663C13.4675 7.5475 13.4732 8.00649 13.4901 8.46737C13.507 8.92824 13.5409 9.38723 13.5898 9.84434C13.6425 10.3334 13.7102 10.8225 13.7948 11.3078C13.8149 11.4232 13.8361 11.5383 13.8584 11.6533C13.9627 11.5252 14.0763 11.4044 14.199 11.2928C14.311 11.1897 14.4301 11.0927 14.5561 11.0059C14.5181 10.7792 14.484 10.5516 14.4532 10.324L14.4683 10.4312C14.3799 9.77474 14.3234 9.11447 14.3009 8.45232C14.2783 7.79393 14.2952 7.13366 14.3441 6.47715C14.3681 6.13813 14.4045 5.79911 14.4478 5.46293L14.4494 5.45054C14.4499 5.44612 14.4505 5.44171 14.4511 5.4373C14.4543 5.41269 14.4575 5.3881 14.4608 5.36353L14.4511 5.4373C14.4647 5.33769 14.4791 5.23819 14.4935 5.1387C14.5658 4.6357 14.638 4.13337 14.615 3.62351C14.6075 3.44857 14.5868 3.27363 14.5586 3.09868C14.536 2.96513 14.5059 2.83345 14.4626 2.70741C14.3517 2.38198 14.1842 2.08477 13.9435 1.83646C13.8983 1.78943 13.8494 1.74428 13.7967 1.7029C13.7196 1.64082 13.6406 1.57875 13.5559 1.52608C13.4167 1.43955 13.2644 1.37371 13.1101 1.31915C12.9878 1.27589 12.8599 1.24579 12.7301 1.22886C12.5608 1.20629 12.3953 1.18936 12.226 1.195C12.0277 1.20357 11.8279 1.23045 11.6342 1.27876Z" fill="var(--fill-0, #212322)"/>
<path d="M8.56696 6.7856C8.51805 7.43835 8.50489 8.08921 8.5237 8.74948C8.5417 9.38121 8.59225 10.0095 8.67239 10.6344L8.67442 10.6495C8.67505 10.6541 8.67568 10.6587 8.67628 10.6633C8.70751 10.8936 8.74368 11.1231 8.78404 11.3524C8.7759 11.1446 8.76922 10.9371 8.76288 10.7285C8.74783 10.2337 8.74783 9.74652 8.76664 9.25743C8.78545 8.76834 8.82307 8.28302 8.88139 7.79769C8.88515 7.76759 8.88891 7.73797 8.89267 7.70834L8.89791 7.66702C8.89486 7.68925 8.89186 7.71149 8.88891 7.73373L8.90396 7.61898L8.89791 7.66702C8.95527 7.24945 9.03127 6.83527 9.12593 6.42448C9.22563 5.99182 9.34602 5.56293 9.49087 5.14344C9.57363 4.90454 9.66205 4.6694 9.75986 4.43615L9.743 4.47549C9.73357 4.4977 9.72415 4.51973 9.71472 4.54149L9.743 4.47549C9.7543 4.44889 9.76538 4.42196 9.77667 4.39505L9.74293 4.47377C9.75409 4.4475 9.76533 4.42126 9.77667 4.39505L9.78808 4.36843L9.78407 4.378C9.94301 4.01241 10.1214 3.6546 10.3411 3.32065C10.4027 3.22559 10.4677 3.13381 10.5359 3.04534L10.5259 3.05773L10.4803 3.11561C10.4954 3.09618 10.5106 3.07689 10.5259 3.05773L10.5499 3.0272L10.5359 3.04534C10.6593 2.89249 10.7931 2.74881 10.9383 2.61786C10.948 2.42229 10.946 2.22543 10.9251 2.02984C10.9036 1.89016 10.8711 1.75275 10.8245 1.62047C10.6845 1.70853 10.5519 1.80951 10.4239 1.91359C10.1662 2.12615 9.95174 2.37822 9.75234 2.64534C9.57176 2.888 9.4175 3.14759 9.2783 3.41471C9.16031 3.64246 9.05433 3.87721 8.95597 4.11459C8.92122 4.32476 8.88142 4.53421 8.84161 4.74272C8.77366 5.08981 8.71631 5.43868 8.66812 5.78937L8.66707 5.79767C8.6669 5.79907 8.66672 5.80049 8.66654 5.80192C8.66638 5.8032 8.66621 5.80448 8.66604 5.80574C8.62467 6.13236 8.59209 6.45898 8.56696 6.7856Z" fill="var(--fill-0, #212322)"/>
<path d="M8.5237 8.74948C8.50489 8.08921 8.51805 7.43835 8.56696 6.7856C8.59209 6.45898 8.62467 6.13236 8.66604 5.80574C8.66621 5.80448 8.66638 5.8032 8.66654 5.80192C8.66672 5.80049 8.6669 5.79907 8.66707 5.79767C8.6674 5.7949 8.66774 5.79213 8.66812 5.78937C8.67255 5.75463 8.67708 5.71989 8.68171 5.68515L8.66812 5.78937C8.71631 5.43868 8.77366 5.08981 8.84161 4.74272C8.88142 4.53421 8.92122 4.32476 8.95597 4.11459C8.91947 4.20268 8.88403 4.29113 8.84941 4.37972C8.72901 4.68822 8.61991 5.00048 8.52585 5.31839C8.33586 5.95232 8.19666 6.59942 8.10073 7.25405C7.99915 7.94442 7.93895 8.63855 7.91826 9.33456C7.89757 10.0306 7.91074 10.6814 7.95964 11.353C7.96772 11.4638 7.97645 11.5748 7.98581 11.6859C8.22452 11.8436 8.46255 11.9955 8.7119 12.1507C8.75113 12.1751 8.79036 12.1995 8.8296 12.2238C8.82931 12.2194 8.82901 12.2151 8.82872 12.2108C8.80913 11.9225 8.79521 11.6373 8.78404 11.3524C8.74368 11.1231 8.70751 10.8936 8.67628 10.6633L8.68359 10.719C8.68113 10.7004 8.67869 10.6818 8.67628 10.6633L8.67442 10.6495C8.67373 10.6444 8.67304 10.6394 8.67239 10.6344C8.59225 10.0095 8.5417 9.38121 8.5237 8.74948Z" fill="var(--fill-0, #212322)"/>
<path d="M8.0858 12.6874C8.12441 12.8401 8.16507 12.9925 8.20762 13.1442C8.23686 13.2484 8.26699 13.3524 8.29797 13.456C8.34876 13.6291 8.40331 13.8021 8.46539 13.9714C8.52746 14.1407 8.5933 14.3138 8.66102 14.485C8.66948 14.5047 8.67748 14.525 8.68547 14.5452C8.69347 14.5654 8.70147 14.5856 8.70993 14.6054C8.71567 14.6199 8.72134 14.6346 8.72702 14.6494C8.74925 14.7071 8.77176 14.7655 8.80022 14.8179L8.79531 14.8061C8.78213 14.7779 8.76992 14.7489 8.75884 14.7182L8.79531 14.8061C8.82018 14.8593 8.8485 14.9093 8.87923 14.9609C8.88675 14.9731 8.89381 14.9854 8.90086 14.9976C8.90792 15.0098 8.91497 15.022 8.9225 15.0343C8.92626 15.0399 8.93002 15.046 8.93378 15.0521C8.93754 15.0583 8.94131 15.0644 8.94507 15.07C8.94745 15.074 8.94983 15.0777 8.95222 15.0813C8.94621 15.067 8.94134 15.052 8.93754 15.0362C8.93378 15.0267 8.93002 15.0155 8.92626 15.0061L9.08991 15.2186C9.04665 15.1979 9.00903 15.1584 8.98081 15.1208C8.97042 15.106 8.9612 15.0946 8.95222 15.0813C8.96405 15.1094 8.98029 15.1347 9.0015 15.1584C9.02595 15.1979 9.05981 15.228 9.1012 15.2506C9.11348 15.2578 9.12668 15.2643 9.14052 15.2701C9.13415 15.2113 9.12697 15.1527 9.11841 15.0945L9.1297 15.1848C9.07423 14.7574 9.02867 14.3272 8.9832 13.8978C8.97623 13.8321 8.96927 13.7663 8.96227 13.7006C8.91006 13.2102 8.86339 12.7179 8.8296 12.2238C8.79036 12.1995 8.75113 12.1751 8.7119 12.1507C8.46255 11.9955 8.22452 11.8436 7.98581 11.6859C8.01391 12.0192 8.04762 12.3535 8.0858 12.6874Z" fill="var(--fill-0, #212322)"/>
<path d="M9.37584 15.2863C9.46049 15.2581 9.54515 15.2055 9.58841 15.1227C9.63168 15.0399 9.65801 14.9365 9.62415 14.848L9.62388 14.8474C9.63215 14.9016 9.6337 14.9564 9.61286 15.0079V14.8179C9.61653 14.8271 9.62021 14.8381 9.62388 14.8474C9.62009 14.8225 9.61488 14.7977 9.60976 14.7734C9.60691 14.7599 9.6041 14.7465 9.60157 14.7333C9.59781 14.7154 9.59452 14.698 9.59123 14.6806C9.58794 14.6632 9.58465 14.6458 9.58088 14.628C9.57953 14.6198 9.57828 14.6117 9.57703 14.6035C9.5731 14.5779 9.56921 14.5525 9.56207 14.5283C9.55737 14.5104 9.55173 14.4925 9.54608 14.4746C9.54044 14.4568 9.53479 14.4389 9.53009 14.421C9.48871 14.2856 9.44921 14.1501 9.41159 14.0147C9.37396 13.8793 9.33634 13.7419 9.3006 13.6046C9.28192 13.5329 9.2617 13.4616 9.24155 13.3906C9.22314 13.3257 9.2048 13.2611 9.18773 13.1964C9.10936 12.9041 9.03851 12.609 8.97373 12.3127C8.92566 12.2831 8.87762 12.2535 8.8296 12.2238C8.86339 12.7179 8.91006 13.2102 8.96227 13.7006C8.96927 13.7663 8.97623 13.8321 8.9832 13.8978C9.02867 14.3272 9.07423 14.7574 9.1297 15.1848L9.11841 15.0945C9.12697 15.1527 9.13415 15.2113 9.14052 15.2701C9.21357 15.3005 9.30468 15.3101 9.37584 15.2863Z" fill="var(--fill-0, #212322)"/>
<path d="M8.81715 11.5354C8.80583 11.4744 8.79479 11.4134 8.78404 11.3524C8.79521 11.6373 8.80913 11.9225 8.82872 12.2108L8.8296 12.2238C8.87762 12.2535 8.92566 12.2831 8.97373 12.3127C8.91723 12.0542 8.86536 11.7948 8.81715 11.5354Z" fill="var(--fill-0, #212322)"/>
</g>
</svg>
