<svg preserveAspectRatio="none" width="100%" height="100%" overflow="visible" style="display: block;" viewBox="0 0 50.1526 56.998" fill="none" xmlns="http://www.w3.org/2000/svg">
<g id="Group">
<path id="Vector" d="M16.4359 16.3524C16.0995 12.7172 15.7604 9.08194 15.424 5.44399C17.1277 7.99137 19.0158 10.3081 21.0613 12.3672C21.9647 8.90831 22.6267 5.40058 23.0363 1.91184C23.9804 4.99094 24.9217 8.06733 25.8658 11.1464C27.9167 8.05105 29.8266 4.79561 31.5764 1.41539C31.5764 5.07775 31.4109 8.78623 31.0745 12.5164C33.158 9.74116 35.4151 7.20192 37.7916 4.95296C37.0211 7.86929 36.2534 10.7856 35.4829 13.7047C37.8323 12.3889 40.2223 11.3309 42.6205 10.5523C41.1338 13.8213 39.6797 17.112 38.2609 20.4217C40.8544 19.673 43.4479 19.2986 45.9817 19.3067C43.9172 21.9002 41.8554 24.4937 39.791 27.0872C41.6167 28.0855 46.4727 29.3226 48.3799 30.1175C45.6263 31.653 39.9347 33.145 37.3222 35.2556C38.4806 37.038 43.6595 40.0493 44.9915 41.601C42.4685 41.9374 32.8731 41.1778 30.3475 41.5142C29.9405 41.5685 30.8521 40.2663 30.456 40.2365C28.4512 40.0791 32.4825 39.6152 32.2709 40.2826C31.4787 42.7757 29.7805 48.5242 28.9883 51.0174C28.0144 47.9491 27.0378 44.8809 26.0639 41.8126C23.8936 46.2888 21.7206 50.7651 19.5503 55.2413C19.477 51.7498 19.4011 48.2557 19.3278 44.7642C16.048 47.7484 12.7681 50.7325 9.48556 53.7167C10.3699 50.1791 11.2543 46.6415 12.1387 43.1039C9.28752 44.1999 6.4363 45.2932 3.58779 46.3892C5.73095 43.1229 7.8714 39.8566 10.0146 36.5904C7.24744 35.9935 4.47761 35.3994 1.71049 34.8026C4.29585 32.7761 6.95174 30.972 9.65104 29.4148C8.08029 27.0167 6.51226 24.6185 4.94151 22.2203C7.64081 21.8785 10.3075 21.8812 12.8983 22.2312C11.5175 19.6323 9.96573 17.2178 8.26205 15.0177C10.842 15.5358 13.4246 16.054 16.0046 16.5722" fill="var(--fill-0, #FFE08A)"/>
<path id="Vector_2" d="M17.1846 16.3525C17.1738 15.4328 17.1629 14.5132 17.1521 13.5908L17.1168 13.8485C17.1901 13.6288 17.1575 13.466 17.1466 13.2544C17.1412 13.1215 17.1494 12.9831 17.1521 12.8502L17.1629 12.077C17.1683 11.5507 17.1765 11.0217 17.1819 10.4954L17.0056 11.1465C17.1439 10.8725 17.228 10.5985 17.1982 10.2947C17.1901 10.1943 17.1819 10.0939 17.1738 9.99083L17.1331 9.3506L17.049 8.03757C16.992 7.17217 16.9215 6.30948 16.8455 5.44679L14.1951 6.1657C15.0442 7.4516 15.9584 8.69409 16.9161 9.90131L16.6882 9.60832C17.6946 10.9539 18.8557 12.2018 20.0413 13.3928C20.7982 14.1551 22.1817 13.8105 22.453 12.7552C23.1502 10.0587 23.7063 7.3268 24.1106 4.57325C24.2408 3.68885 24.3574 2.80446 24.4605 1.91464L21.6608 2.29444C22.4015 4.69261 23.1394 7.0935 23.88 9.49167C24.0889 10.1699 24.2978 10.8481 24.5066 11.5263C24.6721 12.0662 25.1143 12.4595 25.6786 12.5355C26.2429 12.6115 26.7637 12.3429 27.0812 11.8627C28.6926 9.41842 30.2009 6.90631 31.6035 4.33723C32.0023 3.60476 32.4038 2.87228 32.7972 2.13438L30.163 1.4209C30.1304 4.12563 30.0436 6.83035 29.832 9.52694C29.7723 10.3001 29.7045 11.076 29.6285 11.8491L29.6828 11.4504C29.6312 11.8085 29.5987 12.1666 29.5634 12.5246L29.6177 12.9262C29.6638 13.1242 29.7533 13.2951 29.889 13.4416C30.0816 13.6912 30.3583 13.9109 30.673 13.9842C30.9388 14.0439 31.2101 14.0439 31.476 13.9842C31.8829 13.8919 32.1406 13.6017 32.3794 13.2897C32.4309 13.2219 32.4825 13.154 32.5367 13.0862L32.3007 13.3928C33.8769 11.3554 35.5724 9.41028 37.3819 7.57367C37.8811 7.06637 38.3911 6.5672 38.9092 6.07889L36.2696 4.54341C35.6619 6.81679 35.0081 9.0766 34.4032 11.35C34.2323 11.9902 34.0613 12.6332 33.8877 13.2734C33.7141 13.9136 33.9555 14.6081 34.4818 15.0123C35.0081 15.4166 35.7325 15.4681 36.3212 15.1426C37.645 14.4074 39.0096 13.7373 40.404 13.1459L40.0052 13.3141C41.009 12.8909 42.029 12.5111 43.068 12.1747C42.436 11.3527 41.8066 10.5334 41.1745 9.71141C40.0079 12.2588 38.8631 14.817 37.7427 17.3834C37.4253 18.1104 37.1079 18.8375 36.7959 19.5672C36.6765 19.8467 36.5626 20.1152 36.5626 20.4272C36.5626 20.807 36.6982 21.1624 36.9288 21.4581C37.3385 21.9898 38.0574 22.2584 38.7166 22.0685C40.0758 21.6778 41.4566 21.3821 42.8592 21.1922L42.4061 21.2519C43.5943 21.0946 44.788 21.0132 45.9871 21.0159C45.5856 20.0447 45.1841 19.0762 44.7826 18.105C43.1739 20.1234 41.5651 22.1417 39.9591 24.1628C39.5034 24.7352 39.0449 25.3077 38.5891 25.8828C38.3775 26.0971 38.231 26.3467 38.1496 26.637C38.0791 26.8648 38.0682 27.09 38.1198 27.3179C38.1876 27.8306 38.467 28.3108 38.9364 28.5658C40.0486 29.1708 41.2857 29.5641 42.4821 29.9684C43.6784 30.3726 44.9996 30.7822 46.2557 31.2027C46.8064 31.3872 47.3571 31.5771 47.8942 31.8023L47.4737 31.6259L47.5009 31.6368V28.6038C46.904 28.9293 46.2828 29.2088 45.6588 29.4746L46.0793 29.2983C43.418 30.4214 40.6265 31.2922 38.0818 32.6785C37.3738 33.0637 36.7172 33.5114 36.0879 34.0187L35.8139 34.374C35.6864 34.5748 35.6158 34.7945 35.605 35.0278C35.5561 35.3995 35.5995 35.8254 35.8139 36.1483C36.389 37.0245 37.1838 37.7136 37.995 38.3592C39.0232 39.1785 40.0893 39.9463 41.1501 40.7167C41.6546 41.083 42.1592 41.4519 42.653 41.8344L42.2976 41.5604C42.8076 41.9538 43.3312 42.358 43.7544 42.849L44.9969 39.8459C44.2671 39.9408 43.5211 39.9354 42.7886 39.9327C41.7198 39.9327 40.6482 39.9001 39.5793 39.8649C37.3195 39.7943 35.0624 39.6831 32.8026 39.6696C32.317 39.6668 31.8314 39.6696 31.3485 39.6858C31.1586 39.6913 30.9687 39.7021 30.7788 39.7157C30.6323 39.7265 30.456 39.7754 30.3122 39.7564L30.7788 39.8188H30.7679C30.909 39.8757 31.0474 39.9327 31.1884 39.9924C31.1803 39.9924 31.1749 39.987 31.1694 39.9815L31.5248 40.2555C31.5248 40.2555 31.514 40.2447 31.5113 40.2393L31.7853 40.5946L31.7798 40.5838L31.9562 41.0043C31.9562 41.0043 31.948 40.9799 31.948 40.9663L32.0104 41.4329C32.0104 41.4112 32.0104 41.3895 32.0104 41.3678L31.948 41.8344C31.9941 41.5251 32.1786 41.2484 32.2492 40.9446C32.4119 40.2338 32.2844 39.5637 31.7798 39.0158C31.4299 38.636 30.9415 38.5166 30.4505 38.4705C30.3637 38.4623 30.2742 38.4542 30.1874 38.4433L30.654 38.5057C30.5726 38.4949 30.4885 38.484 30.4125 38.4515L30.833 38.6278C30.833 38.6278 30.8168 38.6197 30.8086 38.6142L31.164 38.8882C31.164 38.8882 31.1586 38.8828 31.1559 38.8801L31.4299 39.2355C31.4299 39.2355 31.4272 39.2301 31.4244 39.2274L31.6008 39.6478C31.6008 39.6478 31.6008 39.6424 31.6008 39.6397L31.6632 40.1063C31.6415 40.2582 31.6225 40.4156 31.6008 40.5702C31.5411 40.7059 31.4814 40.8469 31.4244 40.9853C31.4244 40.9853 31.4244 40.9799 31.4272 40.9772L31.1532 41.3325C31.1532 41.3325 31.1613 41.3244 31.164 41.3217L30.8086 41.5957C30.8086 41.5957 30.833 41.5794 30.8493 41.574L30.4288 41.7503C30.5509 41.6988 30.6893 41.6825 30.8195 41.6662L30.3529 41.7286C30.8168 41.6689 31.3024 41.6472 31.769 41.7096L31.3024 41.6472C31.419 41.6635 31.5384 41.6852 31.6469 41.7286L31.2264 41.5523C31.2644 41.5686 31.2996 41.5875 31.3322 41.612L30.9768 41.338C30.9904 41.3488 31.0039 41.3624 31.0175 41.3759L30.7435 41.0206C30.7435 41.0206 30.7571 41.0423 30.7625 41.0558L30.5862 40.6353C30.5862 40.6353 30.5943 40.6597 30.5943 40.6733L30.5319 40.2067C30.5319 40.2067 30.5319 40.2257 30.5319 40.2365L30.5943 39.7699C30.5563 40.0195 30.437 40.2772 30.3637 40.5187C30.2633 40.8415 30.163 41.1671 30.0626 41.4926C29.832 42.2413 29.6068 42.9928 29.3789 43.7416C28.9015 45.3177 28.4267 46.8966 27.9466 48.4701C27.7349 49.1591 27.5233 49.8509 27.3063 50.5373H30.6974C29.9378 48.1445 29.1782 45.7518 28.4213 43.359C28.207 42.6835 27.9927 42.008 27.7784 41.3325C27.564 40.657 27.0215 40.1633 26.3107 40.0683C25.9879 40.0249 25.6976 40.0629 25.3965 40.1877C25.0655 40.3261 24.7155 40.5757 24.5528 40.9093C22.8599 44.3926 21.1698 47.8732 19.477 51.3566C18.9941 52.3495 18.5139 53.3397 18.031 54.3326L21.3353 55.2278C21.2783 52.5014 21.2214 49.775 21.1671 47.0485C21.1508 46.2835 21.1346 45.5158 21.1183 44.7507C21.1047 44.0345 20.6842 43.4025 20.025 43.123C19.3658 42.8436 18.6197 43.0009 18.0799 43.492C15.5216 45.8142 12.9634 48.1391 10.4079 50.4613C9.68356 51.1205 8.95923 51.7771 8.2349 52.439L11.219 54.1752C11.9 51.4217 12.5836 48.6681 13.2645 45.9173C13.4599 45.1305 13.6552 44.3438 13.8478 43.5571C13.9997 42.9413 13.8478 42.2956 13.3948 41.8426C13.175 41.6255 12.9173 41.4736 12.6189 41.3895C12.3069 41.3054 11.9949 41.3054 11.6829 41.3895C9.46382 42.2495 7.24198 43.1067 5.02286 43.9667C4.39348 44.2109 3.76681 44.4523 3.13742 44.6965C3.79394 45.5483 4.44774 46.4002 5.10425 47.2547C6.76995 44.7019 8.44378 42.1545 10.1149 39.6072C10.5842 38.8882 11.0563 38.1721 11.5256 37.4531C12.117 36.5498 11.5527 35.1336 10.4893 34.9058C7.72216 34.3116 4.95233 33.7175 2.18521 33.1234L2.94753 36.0153C3.10216 35.8932 3.25679 35.7739 3.41414 35.6518L3.06418 35.9231C4.93063 34.4826 6.8649 33.1343 8.8697 31.8918C9.42041 31.55 9.97655 31.219 10.5381 30.8934C11.314 30.4431 11.6667 29.3118 11.1566 28.5333C9.5859 26.1351 8.01515 23.7396 6.4444 21.3415L4.95776 23.9322C7.59737 23.5986 10.275 23.5877 12.9146 23.9377C13.2238 23.9377 13.5141 23.859 13.7827 23.7044C14.0404 23.5524 14.2466 23.3463 14.3985 23.0885C14.7186 22.5433 14.6915 21.903 14.3985 21.355C13.3405 19.3665 12.1604 17.4404 10.8501 15.6092C10.4106 14.9961 9.95485 14.3938 9.49095 13.797L7.82254 16.6618C10.4052 17.1799 12.9851 17.6954 15.5678 18.2135C16.0235 18.3058 16.4766 18.2813 16.8862 18.0399C17.2416 17.831 17.5807 17.4241 17.6729 17.0171C17.7733 16.5804 17.7516 16.0866 17.4993 15.6987C17.2687 15.3379 16.9106 14.9988 16.4766 14.912C13.8966 14.3938 11.314 13.8729 8.73406 13.3548C8.34612 13.2761 7.98802 13.2843 7.61907 13.4416C7.29082 13.58 6.9707 13.8187 6.79979 14.1442C6.65872 14.4128 6.58005 14.7058 6.56648 15.0096C6.55834 15.2457 6.60718 15.4654 6.71298 15.6689C6.7808 15.8805 6.90017 16.0649 7.06836 16.2196L7.10634 16.2684L6.83777 15.9212C8.17792 17.6601 9.396 19.4913 10.4947 21.393C10.8175 21.9518 11.1295 22.5188 11.4334 23.0885C11.9271 22.2258 12.4236 21.3659 12.9173 20.5032C10.2777 20.1505 7.6028 20.1586 4.96047 20.4896C4.64849 20.4896 4.36093 20.5683 4.09235 20.7256C3.83463 20.8776 3.62845 21.0837 3.47382 21.3442C3.17541 21.8542 3.14285 22.5731 3.47382 23.0831C5.04186 25.4813 6.6126 27.8795 8.18063 30.2803L8.79917 27.9201C6.63973 29.1654 4.55354 30.5381 2.54602 32.0193C1.85696 32.5266 1.17874 33.0475 0.505949 33.5738C0.291633 33.7908 0.142425 34.0431 0.0610394 34.3361C-0.0203465 34.6426 -0.0203465 34.9492 0.0610394 35.2557C0.21296 35.8119 0.690423 36.3382 1.26826 36.463C4.03538 37.0598 6.8025 37.6566 9.57233 38.2534L8.53602 35.7061C6.86219 38.2534 5.19106 40.8008 3.51723 43.3509C3.04519 44.0671 2.57586 44.786 2.10382 45.5022L1.92749 45.9173L1.86509 46.3812C1.86509 46.7691 2.00616 47.1326 2.23947 47.4365C2.42937 47.6834 2.64911 47.8515 2.93668 47.9736C3.26764 48.1147 3.72069 48.1961 4.07065 48.0604C6.2952 47.2113 8.51703 46.3622 10.7416 45.5158L12.6297 44.7941C11.9081 44.0725 11.1865 43.3509 10.4649 42.6293C9.77038 45.3801 9.07588 48.1283 8.3841 50.8791C8.18606 51.6658 7.98803 52.4498 7.78999 53.2366C7.68961 53.6299 7.72216 54.026 7.87951 54.3977C8.02329 54.7395 8.27016 55.0732 8.60927 55.2522C8.88869 55.4014 9.19253 55.4828 9.50994 55.4964C9.97655 55.5181 10.4377 55.2766 10.7714 54.9728C13.3324 52.6533 15.8825 50.323 18.438 47.9953C19.1623 47.3361 19.8866 46.6769 20.611 46.0176L17.5726 44.7589C17.6323 47.4853 17.6919 50.2117 17.7516 52.9382C17.7679 53.7032 17.7842 54.4709 17.8032 55.236C17.8113 55.6347 17.9415 55.9956 18.183 56.3103C18.4081 56.6032 18.7337 56.861 19.1053 56.9451C19.4173 57.0156 19.7374 57.0156 20.0494 56.9451C20.4401 56.8555 20.9311 56.4947 21.1101 56.1312C22.7975 52.6452 24.4849 49.1619 26.1723 45.6758C26.6525 44.6829 27.1327 43.69 27.6156 42.6971L24.39 42.2766C25.1523 44.6694 25.9146 47.0594 26.6742 49.4521C26.8885 50.1276 27.1056 50.8031 27.3199 51.4786C27.4365 51.8503 27.6427 52.1541 27.9493 52.3929C28.2558 52.6316 28.6302 52.789 29.0154 52.77C29.3274 52.7564 29.6258 52.675 29.9025 52.5285C30.2986 52.3196 30.5807 51.891 30.711 51.4786C31.5167 48.9448 32.2627 46.3947 33.0359 43.8528C33.2231 43.2315 33.413 42.613 33.6029 41.9918C33.6843 41.7259 33.7684 41.46 33.8497 41.1942C33.885 41.083 33.9203 40.969 33.9555 40.8578C34.0478 40.5648 34.0722 40.2799 34.0315 39.9788C33.9474 39.3603 33.5974 38.8557 33.0576 38.541C32.808 38.3972 32.534 38.3077 32.2519 38.2643C31.7283 38.1856 31.221 38.1476 30.6947 38.1883C29.9839 38.2426 29.2243 38.3131 28.6899 38.8476C28.1256 39.4118 28.0035 40.3152 28.4077 41.007C28.6546 41.4302 29.0534 41.7096 29.5146 41.8507C29.832 41.9484 30.1738 41.9484 30.5021 41.9918L30.0355 41.9294C30.0355 41.9294 30.0544 41.9348 30.0626 41.9375L29.6421 41.7612C29.6421 41.7612 29.6584 41.7693 29.6638 41.7747L29.3084 41.5007L29.3165 41.5089L29.0425 41.1535C29.0425 41.1535 29.0534 41.1671 29.0561 41.1752L28.8798 40.7547C28.8852 40.7683 28.8879 40.7818 28.8906 40.7954L28.8282 40.3288C28.8309 40.3586 28.8282 40.3885 28.8282 40.4183L28.8906 39.9517C28.8608 40.1633 28.7604 40.3613 28.6845 40.5594C28.5163 40.9989 28.4539 41.4817 28.5841 41.9402C28.8364 42.8219 29.6801 43.3373 30.5645 43.2478C30.7462 43.2288 30.9253 43.218 31.107 43.2098C32.1434 43.1583 33.1824 43.1827 34.2214 43.2044C36.8149 43.2641 39.4084 43.3997 42.0019 43.4377C43.0002 43.4513 44.023 43.4865 45.0186 43.3563C45.3306 43.3156 45.629 43.2804 45.9057 43.1149C46.2367 42.9223 46.4781 42.6239 46.6246 42.2739C46.7521 41.9755 46.7874 41.6852 46.744 41.3624C46.6897 40.9609 46.5269 40.6625 46.2611 40.3532C45.6914 39.694 44.9481 39.1704 44.2617 38.6468C43.4858 38.0554 42.6882 37.4884 41.8988 36.9133C41.4376 36.5769 40.9764 36.2351 40.5234 35.8851L40.8788 36.1591C40.1246 35.5758 39.3324 34.9682 38.741 34.2113L39.015 34.5667C38.9635 34.4988 38.9147 34.431 38.8685 34.3605L38.5945 36.4928C38.6325 36.4602 38.6732 36.4304 38.7139 36.3978L38.3585 36.6718C39.5549 35.7495 40.9656 35.1201 42.3491 34.5368L41.9286 34.7132C43.9497 33.8613 46.0251 33.1451 48.0299 32.2499C48.4612 32.0573 48.8871 31.8565 49.2968 31.6232C49.5437 31.4821 49.7824 31.238 49.9262 30.9938C50.1269 30.652 50.1866 30.2613 50.1351 29.8734C50.0916 29.5587 49.9831 29.2956 49.7905 29.0433C49.7118 28.9103 49.6088 28.8073 49.4758 28.7286C49.3049 28.5739 49.1069 28.4681 48.879 28.4139C47.981 28.0504 47.0451 27.7764 46.1173 27.4915C44.9833 27.1443 43.8439 26.8079 42.7208 26.4226C42.1647 26.23 41.6085 26.032 41.066 25.8014L41.4756 25.975C41.207 25.8611 40.9412 25.7417 40.6862 25.6006C40.8028 26.4959 40.9167 27.3911 41.0334 28.2837C42.6394 26.2626 44.2454 24.2415 45.8542 22.2231C46.3099 21.6507 46.7657 21.0756 47.2214 20.5032C47.4059 20.2726 47.5795 20.042 47.6609 19.7517C47.764 19.3801 47.7233 18.9921 47.5741 18.6422C47.3137 18.0236 46.7006 17.595 46.0169 17.595C43.2607 17.5896 40.4908 18.0128 37.8431 18.7751L39.7638 21.2736C39.97 20.788 40.1816 20.3051 40.385 19.8195L40.2141 20.2265C41.1989 17.926 42.2026 15.6336 43.2227 13.3466C43.513 12.6956 43.8059 12.0418 44.1016 11.3907C44.2237 11.1194 44.3295 10.8481 44.3295 10.5443C44.3295 10.1699 44.1939 9.81993 43.9687 9.52965C43.787 9.29363 43.5726 9.13086 43.2986 9.0142C42.9677 8.87314 42.558 8.81345 42.2081 8.93011C39.5983 9.78737 37.0726 10.9213 34.6799 12.2696L37.1106 14.1388C37.4063 13.0048 37.702 11.8736 37.995 10.7396C38.288 9.60561 38.5538 8.44179 38.8441 7.29696C39.0069 6.65401 39.1778 6.01106 39.346 5.36812C39.5142 4.72517 39.2402 3.91131 38.619 3.58305C37.9977 3.2548 37.23 3.33076 36.7037 3.82992C34.7965 5.64754 33.0277 7.59809 31.3946 9.66258C30.852 10.3489 30.3176 11.0434 29.7994 11.7488L32.6181 12.5111C32.8487 9.6246 32.9816 6.72726 33.0223 3.82992C33.0332 3.02149 33.0332 2.21577 33.0223 1.40734C33.0142 0.807794 32.591 0.181123 31.9833 0.0427672C31.7337 -0.014203 31.4787 -0.014203 31.2318 0.0427672C30.9171 0.116014 30.5346 0.400865 30.3854 0.693855C29.0643 3.32262 27.5857 5.87542 26.0177 8.36312C25.5809 9.05761 25.136 9.74396 24.6803 10.4276L27.2548 10.764C26.5223 8.36312 25.7925 5.96223 25.0601 3.56135C24.8539 2.88313 24.6477 2.20492 24.4415 1.5267C24.2354 0.848488 23.587 0.411716 22.8789 0.506666C22.5805 0.547359 22.2712 0.669439 22.0596 0.897319L21.8372 1.18488C21.707 1.40734 21.6446 1.64607 21.6419 1.90379C21.5985 2.27274 21.5523 2.64169 21.5008 3.01064L21.5523 2.63084C21.2241 5.07784 20.7765 7.50585 20.2122 9.90945C20.0494 10.6012 19.8785 11.2903 19.6995 11.9767L22.1112 11.3391C20.7222 9.93387 19.4309 8.43365 18.2237 6.87104L18.4488 7.16403C17.8357 6.36645 17.2443 5.55259 16.68 4.71974C16.501 4.45659 16.2948 4.26127 15.9991 4.13648C15.7034 4.01169 15.3724 3.96828 15.074 4.06594C14.838 4.1419 14.6291 4.26398 14.4473 4.43218C14.2086 4.64921 13.997 5.11039 14.0296 5.43865L14.1299 6.44784C14.1733 6.87918 14.1788 7.34308 14.2819 7.76357L14.233 7.39191C14.2981 7.93177 14.3632 8.46892 14.4284 9.00878L14.526 9.81721C14.5776 10.2404 14.5531 10.802 14.8109 11.1411L14.6807 10.8318C14.8597 11.7271 15.0415 12.6196 15.2178 13.5148L15.1825 13.249C15.207 13.5121 15.2069 13.7888 15.3453 14.0221C15.2341 13.8322 15.2938 13.9462 15.3128 14.0411L15.348 14.2392L15.4809 14.9961C15.5705 15.5115 15.66 16.027 15.7495 16.5451C15.8146 16.9113 16.2351 17.1284 16.5715 17.0823C16.9323 17.0334 17.2253 16.7214 17.2226 16.3471L17.1846 16.3525Z" fill="var(--fill-0, #FFE08A)"/>
</g>
</svg>
