<svg preserveAspectRatio="none" width="100%" height="100%" overflow="visible" style="display: block;" viewBox="0 0 37.0489 54.3366" fill="none" xmlns="http://www.w3.org/2000/svg">
<path id="Vector" d="M0 41.9616C8.07749 37.2043 11.5762 29.8411 12.9625 20.5691C13.6849 15.7347 12.9475 10.7911 15.2406 6.47396C15.6412 6.91603 16.4294 7.12859 16.8301 7.57065C16.7492 6.54732 17.2101 5.51459 17.4584 4.51949C17.7067 3.5225 17.8064 2.55373 18.7677 2.19444C19.7289 1.83514 20.9949 2.27156 21.3147 3.24786C20.487 2.3073 20.8952 0.59173 22.0558 0.121452C23.2165 -0.346945 24.7026 0.604896 24.7609 1.85584C24.9189 1.15042 25.929 0.956665 26.5366 1.34982C27.1442 1.74297 27.4245 2.47284 27.6427 3.16133C29.4129 8.75763 29.4731 14.8825 27.8139 20.5108C27.1687 22.6985 26.2601 24.8806 26.3579 27.1587C28.2861 24.8091 30.2819 22.518 32.3455 20.287C32.8892 19.6982 33.4554 19.1019 34.1796 18.7557C34.9038 18.4115 35.5998 18.8084 36.23 19.305C37.2684 20.1214 37.1894 21.3159 36.7078 22.5462C34.1796 28.9852 29.6311 34.4009 24.9904 39.5326C20.0224 45.0273 10.125 54.3366 10.125 54.3366" fill="var(--fill-0, white)"/>
</svg>
