<svg preserveAspectRatio="none" width="100%" height="100%" overflow="visible" style="display: block;" viewBox="0 0 8.85314 9.66193" fill="none" xmlns="http://www.w3.org/2000/svg">
<path id="Vector" d="M1.879 0.0357701C1.52911 0.233287 1.2112 0.494759 0.947847 0.797617C0.861316 0.899197 0.778552 1.00454 0.699545 1.11177L0.752216 1.04217C0.673209 1.13434 0.61301 1.24344 0.554696 1.35066C0.509549 1.43155 0.468168 1.51432 0.428665 1.59897C0.33649 1.79837 0.255601 2.00341 0.191643 2.21222C0.135209 2.39656 0.0938225 2.58279 0.0656058 2.77278C0.0317458 2.99664 0.00729208 3.22049 0.00164875 3.4481C-0.00963791 3.86759 0.0373903 4.29272 0.131446 4.70092C0.174711 4.88903 0.231144 5.07526 0.300745 5.25585C0.387276 5.48347 0.486974 5.7092 0.599841 5.92553C0.810525 6.3262 1.07952 6.69678 1.37674 7.03914C1.65326 7.35705 1.96177 7.64486 2.29472 7.90445C2.65966 8.19038 3.04153 8.44809 3.44785 8.67006C3.85417 8.89204 4.31316 9.09331 4.76651 9.25133C5.00353 9.3341 5.24618 9.40558 5.49073 9.46578C5.77478 9.53538 6.06259 9.5824 6.35416 9.61815C6.60247 9.64824 6.85078 9.66517 7.10097 9.66141C7.22512 9.66141 7.34927 9.64636 7.47154 9.62943C7.63332 9.60874 7.79697 9.58993 7.95499 9.54666C8.10359 9.50528 8.2522 9.46013 8.3914 9.39429L8.28795 9.43755C8.36319 9.41686 8.44408 9.3736 8.51744 9.33786C8.56071 9.31716 8.6115 9.29836 8.651 9.27014L8.55883 9.30964L8.56823 9.30588C8.66417 9.2739 8.74882 9.21558 8.79961 9.12717C8.84852 9.0444 8.86921 8.92213 8.83911 8.82808C8.80901 8.73402 8.7507 8.64373 8.6604 8.5967C8.57011 8.54968 8.461 8.52334 8.36131 8.5572L8.3519 8.56096L8.45536 8.54779C8.37447 8.54779 8.28606 8.57225 8.20518 8.58165L8.31428 8.56661C8.22963 8.57789 8.13934 8.57977 8.05657 8.60046L8.17131 8.58541C8.11112 8.58917 8.05281 8.60046 7.99261 8.60987L8.10924 8.59482C7.98885 8.61175 7.87034 8.61927 7.74994 8.62868C7.62955 8.63809 7.50728 8.65126 7.38689 8.65502C7.2665 8.65878 7.14235 8.65878 7.02007 8.66066C6.8978 8.66254 6.77741 8.6569 6.65702 8.64937C6.51782 8.63997 6.3805 8.6268 6.2413 8.60799L6.37297 8.62492C5.84438 8.55344 5.3252 8.41612 4.82482 8.23177C4.70067 8.18662 4.57839 8.13771 4.458 8.08692L4.57463 8.13583C4.08178 7.92703 3.60586 7.67684 3.16192 7.37586C3.03588 7.29121 2.91361 7.20092 2.79322 7.10875L2.88916 7.18211C2.5562 6.92439 2.24582 6.63659 1.96929 6.32056C1.89217 6.23215 1.81692 6.14185 1.74544 6.0478L1.81692 6.13997C1.59495 5.85216 1.39556 5.54366 1.23378 5.21635C1.18863 5.12417 1.14537 5.03012 1.10398 4.93418L1.14724 5.03764C1.02873 4.75547 0.938441 4.46202 0.882007 4.16293C0.865077 4.07828 0.851915 3.99175 0.840628 3.90522L0.855675 4.0162C0.81429 3.70017 0.804886 3.38038 0.827459 3.06248C0.834984 2.97406 0.842507 2.88377 0.855675 2.79536L0.840628 2.9007C0.882013 2.58655 0.949728 2.27617 1.05319 1.97708C1.08141 1.89243 1.11339 1.80966 1.14913 1.72689L1.11339 1.81154C1.13972 1.74946 1.16794 1.68738 1.19804 1.6253C1.23942 1.54065 1.28645 1.45789 1.32219 1.36948L1.28833 1.45036C1.39367 1.23592 1.51782 1.03088 1.66455 0.840885L1.62129 0.897316C1.77366 0.701681 1.94484 0.522978 2.13671 0.364964C2.17433 0.332985 2.20067 0.261504 2.19878 0.212595C2.1969 0.163686 2.18186 0.12042 2.15364 0.0827979C2.0878 -0.0018521 1.97117 -0.024427 1.87712 0.0282441L1.879 0.0357701Z" fill="var(--fill-0, #212322)"/>
</svg>
