<svg preserveAspectRatio="none" width="100%" height="100%" overflow="visible" style="display: block;" viewBox="0 0 27.5291 36.5292" fill="none" xmlns="http://www.w3.org/2000/svg">
<g id="Group">
<path id="Vector" d="M15.7696 8.09868C18.6552 7.00952 20.0171 3.8248 21.9961 1.99636C21.9961 1.99636 22.7579 1.00313 23.627 0.679583C24.4961 0.356032 25.5608 0.391772 26.2568 1.00501C27.1183 1.7631 27.1484 3.09117 26.9265 4.21607C26.4562 6.60132 25.177 8.7439 23.8076 10.7529C20.1883 16.0595 15.8035 20.7924 11.4355 25.5027C9.55629 27.5287 7.67706 29.5565 5.70378 31.4922C4.0089 33.157 2.24442 34.754 0.344494 36.1818" fill="var(--fill-0, white)"/>
<path id="Vector_2" d="M15.8468 8.37887C16.0142 8.33749 16.1817 8.2867 16.3453 8.23027L16.003 8.13997H16.0048C16.0293 8.16067 16.0538 8.17948 16.0782 8.19829C16.1196 8.22462 16.1647 8.23967 16.2118 8.24155C16.2437 8.25096 16.2757 8.25096 16.3077 8.24155C16.3547 8.23967 16.3999 8.22462 16.4413 8.19829C16.5786 8.13057 16.7178 8.06661 16.8532 7.99325C16.9887 7.91988 17.1185 7.84464 17.2464 7.76375C17.3197 7.71861 17.3912 7.6697 17.4627 7.62079L17.3668 7.66029C17.4138 7.64336 17.4589 7.62455 17.4984 7.59633C17.5154 7.58505 17.5304 7.57188 17.5474 7.56059C17.5775 7.53802 17.6057 7.51733 17.6339 7.49475C17.7185 7.43079 17.8032 7.36496 17.8841 7.29912C18.0007 7.20506 18.1136 7.10912 18.2246 7.00943C18.4465 6.81191 18.6572 6.60311 18.8623 6.38678C19.0673 6.17045 19.2686 5.94472 19.4604 5.71334C19.6523 5.48196 19.8404 5.24683 20.0248 5.01169C20.2091 4.77655 20.3878 4.54329 20.5703 4.30815C20.7528 4.07301 20.9315 3.8454 21.1158 3.61966C21.3002 3.39393 21.4789 3.18137 21.6689 2.97068C21.8589 2.76 22.0451 2.56624 22.2464 2.37813C22.284 2.34239 22.3178 2.31041 22.3498 2.27091C22.395 2.21447 22.442 2.15992 22.4909 2.10725C22.6583 1.91914 22.837 1.74232 23.0289 1.57866C23.0853 1.52975 23.1437 1.48272 23.202 1.43758L23.1098 1.50906C23.3148 1.35105 23.5349 1.20996 23.7757 1.10838L23.6666 1.15541C23.9111 1.05195 24.1726 0.986111 24.436 0.950369L24.3137 0.967299C24.5733 0.933439 24.8367 0.929676 25.0962 0.963536L24.9721 0.946606C25.1809 0.974823 25.3859 1.02749 25.5797 1.11026L25.4687 1.06323C25.6286 1.13095 25.781 1.21937 25.9202 1.32471L25.8242 1.25135C25.9578 1.35481 26.0782 1.4752 26.1817 1.60876L26.1083 1.51282C26.2249 1.66519 26.3209 1.83073 26.3942 2.00755L26.3472 1.89469C26.4488 2.13735 26.5127 2.39318 26.5466 2.65277L26.5297 2.52486C26.5729 2.85029 26.5729 3.18137 26.5447 3.5068C26.5372 3.60085 26.5259 3.69491 26.5146 3.78896L26.5315 3.66105C26.4826 4.02222 26.4036 4.37963 26.3114 4.7314C26.2118 5.11138 26.0932 5.48573 25.9578 5.85442C25.8826 6.06135 25.7998 6.26639 25.7151 6.46955L25.764 6.35292C25.5383 6.88527 25.2825 7.40446 25.006 7.91236C24.7294 8.42026 24.4285 8.92063 24.1162 9.40972C23.8039 9.89881 23.471 10.3917 23.138 10.8751C22.8051 11.3586 22.4345 11.8777 22.0733 12.3706C21.7121 12.8634 21.3472 13.3507 20.9766 13.8341C20.9315 13.8943 20.8844 13.9526 20.8393 14.0128L20.9145 13.915C20.623 14.2912 20.3276 14.6674 20.0304 15.0399C19.7332 15.4123 19.4322 15.7829 19.1294 16.1497C18.8265 16.5166 18.5237 16.8815 18.2151 17.2445C17.9066 17.6076 17.5944 17.9744 17.2802 18.3356C16.9661 18.6968 16.6557 19.0523 16.3416 19.4097C16.0274 19.7671 15.7076 20.1245 15.3897 20.4801C15.0718 20.8356 14.7501 21.1892 14.4285 21.5429C14.1068 21.8965 13.787 22.2464 13.4653 22.5963C13.1437 22.9462 12.8182 23.2998 12.4947 23.6497C12.1711 23.9996 11.8457 24.3514 11.5222 24.7013C11.1986 25.0512 10.8562 25.4199 10.5233 25.7791C10.1903 26.1384 9.8442 26.5109 9.50184 26.8758C9.15948 27.2408 8.82088 27.6019 8.4804 27.9631C8.13992 28.3243 7.79191 28.6873 7.44579 29.0466C7.09966 29.4059 6.74978 29.7633 6.39989 30.1189C6.05 30.4744 5.69447 30.8243 5.34083 31.1761C4.98718 31.5278 4.6561 31.8514 4.30809 32.1824C3.96009 32.5135 3.61209 32.8408 3.26032 33.1644C2.90855 33.4879 2.54738 33.8077 2.18432 34.1238C1.82127 34.4398 1.45445 34.7483 1.08199 35.0511C0.993579 35.1226 0.908928 35.1979 0.822397 35.2731C0.779131 35.3126 0.733985 35.3502 0.69072 35.3897C0.668146 35.4086 0.647453 35.4292 0.62488 35.4481C0.577852 35.4894 0.543994 35.5252 0.506372 35.5835L0.570329 35.5007C0.491322 35.5628 0.419839 35.6343 0.346476 35.702C0.310735 35.7359 0.273113 35.7697 0.237371 35.8017C0.21856 35.8186 0.199749 35.8356 0.180938 35.8544C0.173413 35.8619 0.164009 35.8694 0.156485 35.877C0.101933 35.9277 0.0774778 35.9804 0.0530234 36.05L0.214799 35.8393C0.19975 35.8506 0.184699 35.8619 0.171531 35.8732C0.130147 35.8958 0.0981701 35.9259 0.0737157 35.9635C0.0417368 35.9973 0.0210442 36.0368 0.0116387 36.0839C-0.0109346 36.1685 -0.00152862 36.2795 0.0473803 36.3548C0.0962891 36.43 0.16777 36.4958 0.258064 36.5165C0.348357 36.5372 0.455581 36.5372 0.528944 36.4808C0.543993 36.4695 0.559041 36.4582 0.572209 36.4469L0.395384 36.494C0.470628 36.4883 0.527061 36.4789 0.594781 36.4394C0.604187 36.4338 0.613594 36.4281 0.623 36.4225C0.645573 36.4093 0.666263 36.3961 0.688837 36.3811C0.732102 36.3548 0.775368 36.3265 0.818634 36.3002C0.861899 36.2739 0.905165 36.2456 0.948431 36.2174C1.01803 36.1723 1.08387 36.1253 1.14783 36.0745L0.969123 36.1779C1.02744 36.1572 1.07258 36.1365 1.12149 36.1027C1.14219 36.0876 1.16288 36.0745 1.18545 36.0594C1.22684 36.0293 1.2701 36.0011 1.31149 35.971C1.42435 35.892 1.53346 35.8149 1.64068 35.7283L1.55227 35.7979C1.75167 35.6493 1.94354 35.4894 2.13729 35.3314C2.30471 35.196 2.47025 35.0587 2.63579 34.9195C2.96498 34.6448 3.29041 34.3645 3.61208 34.0805C3.93375 33.7964 4.25542 33.5068 4.57333 33.2152C4.89124 32.9236 5.2035 32.632 5.51389 32.3348C5.82427 32.0376 6.14594 31.7272 6.45632 31.4187C6.76671 31.1102 7.08838 30.7848 7.40252 30.465C7.71667 30.1452 8.02517 29.8273 8.33367 29.5056C8.64218 29.184 8.95256 28.8585 9.26106 28.5331C9.56956 28.2077 9.87242 27.8841 10.1772 27.5587C10.4819 27.2332 10.7885 26.9041 11.0933 26.5749C11.398 26.2457 11.6933 25.9278 11.9924 25.6042C12.2915 25.2807 12.5737 24.9759 12.8653 24.6618C13.1568 24.3476 13.4447 24.0354 13.7325 23.7231C14.0203 23.4108 14.3118 23.0929 14.6015 22.7769C14.8912 22.4609 15.179 22.1448 15.4668 21.8269C15.7547 21.509 16.0387 21.1949 16.3227 20.877C16.6068 20.5591 16.8927 20.2374 17.1749 19.9157C17.4571 19.5941 17.7373 19.2743 18.0157 18.9526C18.2942 18.6309 18.5744 18.3036 18.851 17.9782C19.1275 17.6528 19.4021 17.3236 19.6749 16.9944C19.9476 16.6652 20.2166 16.3379 20.4838 16.0049C20.7509 15.6719 21.018 15.3371 21.2814 15.0023C21.5673 14.6373 21.8495 14.2724 22.1297 13.9018C22.3875 13.5613 22.6433 13.219 22.8954 12.8747C23.1474 12.5305 23.3957 12.1862 23.6403 11.8382C23.8848 11.4902 24.1256 11.1441 24.3626 10.7942C24.5996 10.4443 24.8122 10.1208 25.0285 9.77842C25.2449 9.43606 25.4574 9.08617 25.6587 8.73252C25.86 8.37887 26.0519 8.02146 26.2306 7.65653C26.4243 7.26149 26.603 6.85706 26.7667 6.44698C26.9153 6.07263 27.0488 5.69265 27.1617 5.30514C27.2746 4.91763 27.3667 4.55081 27.4307 4.16707C27.4947 3.78332 27.5342 3.41274 27.5285 3.03276C27.5248 2.82395 27.5041 2.61703 27.4759 2.41011C27.4533 2.24833 27.4213 2.08844 27.3743 1.93231C27.3178 1.74232 27.2426 1.55609 27.1523 1.37926C27.062 1.20244 26.9473 1.04254 26.8212 0.890173C26.6952 0.737803 26.5353 0.602363 26.3716 0.481972C26.208 0.361581 26.018 0.273169 25.8261 0.194162C25.6681 0.130204 25.5026 0.0850568 25.3352 0.054959C25.1263 0.0192179 24.9157 -0.00335417 24.7031 0.000408046C24.4905 0.00417027 24.2761 0.0305059 24.0673 0.0681281C23.8961 0.100107 23.7268 0.145254 23.5631 0.203568C23.375 0.271288 23.1907 0.354055 23.0195 0.457517C22.8483 0.560978 22.6865 0.683252 22.5285 0.809286C22.3066 0.987992 22.1015 1.18551 21.9096 1.39807C21.8062 1.51282 21.7084 1.63321 21.6124 1.75548L21.6839 1.66331C21.3528 1.97181 21.0481 2.30853 20.7584 2.65654C20.4311 3.04781 20.1207 3.45224 19.8122 3.85856C19.6467 4.07677 19.4811 4.29498 19.3137 4.51131L19.3814 4.4229C19.1971 4.65992 19.0109 4.89694 18.8209 5.12831C18.7456 5.22049 18.6629 5.3089 18.5951 5.40484L18.6629 5.31643C18.471 5.5478 18.2735 5.77353 18.0684 5.99174C17.8634 6.20995 17.6508 6.41688 17.427 6.61439C17.3009 6.72538 17.173 6.8326 17.0413 6.93418L17.1222 6.87211C17.1109 6.88151 17.0978 6.89092 17.0865 6.89844C17.0808 6.9022 17.0752 6.90596 17.0695 6.90973L16.9887 6.9718C16.9661 7.00002 16.9435 7.03012 16.9209 7.06022L16.983 6.97933C16.9586 7.00002 16.9322 7.01883 16.9078 7.03952L16.9887 6.97745C16.7686 7.14863 16.5372 7.30476 16.2964 7.44584C16.2268 7.48723 16.1572 7.52673 16.0838 7.56247C15.9766 7.61514 15.8976 7.75623 15.9051 7.87285V7.87662C15.9635 7.77504 16.0218 7.67346 16.0801 7.57188C15.9334 7.66593 15.7829 7.75247 15.6286 7.83147C15.5684 7.86345 15.5101 7.93869 15.4951 8.00641C15.48 8.07413 15.4838 8.13433 15.5101 8.19641C15.5665 8.32996 15.7114 8.40145 15.8544 8.36571L15.8468 8.37887Z" fill="var(--fill-0, #212322)"/>
</g>
</svg>
