<svg preserveAspectRatio="none" width="100%" height="100%" overflow="visible" style="display: block;" viewBox="0 0 7.89115 23.5367" fill="none" xmlns="http://www.w3.org/2000/svg">
<g id="Group">
<path id="Vector" d="M0.163882 20.8844C1.04048 16.1591 1.63491 7.49278 2.51151 2.76555C2.66388 1.94914 2.96109 1.09512 3.69097 0.698206C4.70865 0.145159 5.51188 0.579696 6.01602 1.06126C7.2425 2.23319 7.06568 4.2742 7.18043 5.96531C7.47764 10.3878 7.57734 18.7851 6.91895 23.1681" fill="var(--fill-0, white)"/>
<path id="Vector_2" d="M0.325792 20.9291C0.408561 20.6018 0.485684 20.2744 0.559048 19.9452C0.581621 19.8474 0.602314 19.7496 0.624888 19.6518L0.600432 19.712C0.634292 19.6631 0.639936 19.5897 0.651223 19.5314C0.660629 19.49 0.670034 19.4468 0.677558 19.4054C0.69637 19.3207 0.713301 19.2361 0.732112 19.1495C0.769734 18.9746 0.805473 18.7978 0.841214 18.6228C0.861906 18.5212 0.882599 18.4178 0.903291 18.3162L0.869432 18.3952C0.918341 18.3087 0.923984 18.1977 0.939033 18.0999C0.950319 18.0246 0.961607 17.9494 0.972894 17.8741C0.995467 17.7199 1.01992 17.5656 1.04249 17.4095C1.08952 17.0935 1.13467 16.7775 1.17981 16.4595C1.2306 16.104 1.27763 15.7466 1.32466 15.3911C1.36793 15.0562 1.41119 14.7214 1.45446 14.3847C1.49772 14.048 1.54099 13.7037 1.58237 13.3632C1.58802 13.3219 1.59366 13.2786 1.59742 13.2372L1.58237 13.3482C1.5993 13.2523 1.60683 13.1544 1.61811 13.0585C1.62564 12.9983 1.63128 12.9381 1.63881 12.8779C1.65197 12.7556 1.66702 12.6353 1.68019 12.513C1.70841 12.2684 1.73474 12.022 1.76296 11.7775C1.81751 11.2903 1.87207 10.803 1.9285 10.3177C1.98493 9.83239 2.0376 9.35647 2.09403 8.87679C2.15047 8.39711 2.20502 7.93435 2.26334 7.46408C2.32165 6.9938 2.3762 6.56491 2.4364 6.11532C2.44392 6.06077 2.45145 6.0081 2.45709 5.95354L2.44204 6.06829C2.47966 5.78236 2.51916 5.49832 2.56055 5.21239C2.60193 4.92646 2.63956 4.67063 2.68094 4.39975C2.72233 4.12887 2.76183 3.8862 2.80509 3.62849C2.8446 3.38959 2.88786 3.15069 2.93301 2.91179C2.99133 2.60329 3.06469 2.29667 3.17756 2.00321C3.19072 1.96747 3.20577 1.92985 3.22082 1.89411L3.17567 1.99945C3.2622 1.79253 3.37131 1.59501 3.50675 1.41819L3.43715 1.50848C3.53685 1.38057 3.64971 1.26394 3.77763 1.16612L3.68734 1.23572C3.82278 1.13226 3.97327 1.05137 4.1294 0.983651L4.02217 1.0288C4.18207 0.961079 4.34949 0.91405 4.52255 0.889595L4.40404 0.904645C4.547 0.885834 4.69185 0.885833 4.83481 0.902763L4.7163 0.885834C4.87055 0.906526 5.02104 0.949791 5.16401 1.00999L5.0549 0.96484C5.22797 1.0382 5.38974 1.1379 5.54023 1.25265L5.44805 1.18117C5.6324 1.32413 5.79794 1.49155 5.9409 1.6759L5.86754 1.58184C6.03496 1.80005 6.1704 2.04272 6.27762 2.29667L6.2306 2.1838C6.36604 2.50735 6.45633 2.84783 6.51653 3.19396C6.53534 3.29554 6.55039 3.39712 6.56355 3.50058L6.54662 3.37454C6.59365 3.72255 6.6181 4.07055 6.63503 4.42044C6.65196 4.77033 6.66137 5.11645 6.67642 5.46446C6.68771 5.75979 6.7084 6.05512 6.72721 6.35046C6.74414 6.61758 6.75919 6.88658 6.77236 7.15369C6.78741 7.4415 6.80057 7.72931 6.81186 8.01901C6.82503 8.32563 6.83631 8.63225 6.8476 8.94075C6.85889 9.24925 6.86829 9.58221 6.8777 9.902C6.8871 10.2218 6.89463 10.5698 6.90027 10.9046C6.90592 11.2395 6.91156 11.5894 6.9172 11.9317C6.92284 12.2741 6.92661 12.6296 6.93037 12.9795C6.93413 13.3294 6.93601 13.6887 6.93601 14.0423C6.93601 14.396 6.93601 14.7515 6.93413 15.1051C6.93225 15.4588 6.92849 15.8143 6.92284 16.168C6.9172 16.5216 6.90968 16.8659 6.90215 17.2139C6.89463 17.5619 6.88334 17.8967 6.87017 18.2391C6.85701 18.5814 6.84196 18.9069 6.83067 19.2398C6.81938 19.5728 6.80622 19.8794 6.79117 20.1992C6.77612 20.519 6.75919 20.8124 6.73662 21.1172C6.71404 21.405 6.68959 21.6909 6.66325 21.9787C6.65009 22.1142 6.63692 22.2515 6.62187 22.3869C6.60682 22.5224 6.58613 22.6484 6.58048 22.7782C6.5786 22.8403 6.57484 22.9005 6.57108 22.9625C6.57108 22.9926 6.56732 23.0209 6.56543 23.051C6.56543 23.066 6.56544 23.0811 6.56355 23.098C6.56355 23.1055 6.56355 23.113 6.56355 23.1187C6.56355 23.1544 6.55603 23.1582 6.57672 23.2221C6.58236 23.2428 6.60494 23.2974 6.61623 23.3143L6.58048 23.034C6.5786 23.0491 6.57672 23.0622 6.57484 23.0773C6.55979 23.1262 6.55791 23.1732 6.5692 23.2221C6.57108 23.271 6.58613 23.3162 6.61246 23.3576C6.65573 23.4328 6.74226 23.5043 6.82879 23.525C6.92096 23.5457 7.02631 23.5419 7.10908 23.4893L7.18244 23.4328C7.22758 23.3877 7.25768 23.335 7.27649 23.2729C7.27837 23.2579 7.28026 23.2447 7.28214 23.2297L7.18808 23.3896C7.24828 23.3425 7.27838 23.2616 7.29531 23.1883C7.29907 23.1695 7.30471 23.1507 7.30847 23.13C7.31788 23.0923 7.3254 23.0547 7.33481 23.0171C7.34421 22.9795 7.35174 22.9419 7.36114 22.9042C7.37807 22.8309 7.38748 22.7575 7.39688 22.6823L7.38184 22.7895C7.39877 22.703 7.40629 22.6127 7.41758 22.5242C7.4251 22.4678 7.43263 22.4114 7.44015 22.3531C7.4552 22.2383 7.46837 22.1255 7.48153 22.0107C7.50975 21.7699 7.53609 21.5291 7.55866 21.2884C7.57183 21.1454 7.58688 21.0043 7.59816 20.8613L7.58312 20.9723C7.60005 20.8858 7.60569 20.7955 7.61321 20.709C7.61885 20.6582 7.62262 20.6055 7.62826 20.5547C7.63767 20.4475 7.64707 20.3422 7.65648 20.2349C7.67529 20.0186 7.69222 19.8004 7.70915 19.5841C7.74489 19.1307 7.76746 18.6774 7.78816 18.224C7.80885 17.7707 7.82578 17.2835 7.84083 16.8132C7.85588 16.3429 7.86528 15.8501 7.87469 15.3704C7.88409 14.8907 7.88785 14.3978 7.88973 13.9106C7.89162 13.4234 7.89162 12.9438 7.88973 12.4603C7.88785 11.9769 7.87845 11.516 7.86904 11.0438C7.85964 10.5717 7.84835 10.1334 7.83518 9.67814C7.82202 9.22291 7.80697 8.81283 7.79004 8.38018C7.77311 7.9795 7.75618 7.57694 7.7336 7.17627C7.71479 6.81321 7.6941 6.45204 7.66965 6.09087C7.63955 5.63752 7.6245 5.18229 7.60569 4.72706C7.585 4.20788 7.54926 3.69057 7.47401 3.17703C7.44015 2.94753 7.39689 2.71992 7.33857 2.49795C7.27085 2.24211 7.17868 1.99569 7.07145 1.75491C6.98116 1.55551 6.87205 1.36552 6.74038 1.19057C6.58613 0.985533 6.42247 0.795541 6.22495 0.631884C6.02744 0.468228 5.83932 0.330907 5.61735 0.229327C5.48568 0.169131 5.35212 0.112698 5.21292 0.0750756C5.07371 0.0374534 4.9157 0.0148792 4.76521 0.00359251C4.60532 -0.00769416 4.44919 0.00923612 4.29117 0.0318095C4.15761 0.0506206 4.02782 0.0844799 3.90178 0.129627C3.73436 0.189822 3.56695 0.263186 3.41269 0.355361C3.28478 0.432486 3.16439 0.524661 3.05528 0.62436C2.97251 0.699604 2.89539 0.784254 2.82579 0.872666C2.73361 0.991176 2.6452 1.11157 2.56995 1.24325C2.4364 1.47838 2.33482 1.73421 2.25393 1.99381C2.12978 2.3926 2.06394 2.80645 1.99622 3.21841C1.93038 3.60404 1.87018 3.99155 1.81375 4.37718C1.77989 4.61231 1.74415 4.84745 1.71405 5.08447L1.7291 4.96784C1.6689 5.39862 1.61247 5.82939 1.55792 6.26017C1.50337 6.69094 1.45634 7.08409 1.40743 7.49605C1.35852 7.90802 1.30773 8.35572 1.25882 8.7865C1.20991 9.21727 1.16101 9.66309 1.11398 10.1014C1.06695 10.5397 1.01804 10.993 0.969131 11.4389C0.920222 11.8847 0.873194 12.3324 0.824285 12.7801C0.775376 13.2278 0.733991 13.668 0.688845 14.1119C0.643698 14.5559 0.602314 14.9829 0.557168 15.4193C0.512021 15.8557 0.470637 16.2658 0.42549 16.689C0.380344 17.1123 0.338958 17.4998 0.29193 17.9061C0.280644 18.0021 0.269358 18.0961 0.258072 18.192L0.269358 18.1018C0.269358 18.113 0.265595 18.1224 0.265595 18.1337C0.254308 18.2109 0.246784 18.2504 0.265595 18.3275L0.254309 18.2391C0.227973 18.5833 0.199757 18.9257 0.169659 19.268C0.162135 19.3602 0.152729 19.4543 0.143324 19.5465L0.15273 19.4787C0.143324 19.5408 0.128276 19.6029 0.147087 19.6631L0.137681 19.5972C0.105702 19.9396 0.0718423 20.2838 0.032339 20.6262C0.0210523 20.7165 0.0116471 20.8068 0.000360436 20.899C-0.00340178 20.9366 0.0229327 20.993 0.0492683 21.0175C0.0756038 21.0419 0.107582 21.0589 0.145204 21.0645C0.226092 21.0758 0.308863 21.025 0.329555 20.9441L0.325792 20.9291Z" fill="var(--fill-0, #212322)"/>
</g>
</svg>
