<svg preserveAspectRatio="none" width="100%" height="100%" overflow="visible" style="display: block;" viewBox="0 0 8.46879 15.9258" fill="none" xmlns="http://www.w3.org/2000/svg">
<g id="Group">
<path id="Vector" d="M1.14216 15.6423C0.45179 11.3985 -0.208478 6.8763 1.50898 2.93349C1.87579 2.09263 2.37617 1.26306 3.15871 0.785261C3.94125 0.305578 5.06051 0.283006 5.70385 0.939513C6.44313 1.69384 6.27571 2.9128 6.13839 3.96058C5.62108 7.90715 6.31333 12.0023 8.09851 15.5595" fill="var(--fill-0, white)"/>
<path id="Vector_2" d="M1.34125 15.6425C1.33373 15.4356 1.32809 15.2287 1.32057 15.0218L1.31116 15.097C1.33561 15.0349 1.31868 14.9691 1.31116 14.9051L1.32057 14.9804C1.30364 14.8148 1.2867 14.6474 1.26977 14.4819C1.25096 14.2881 1.2378 14.0925 1.20958 13.9006L1.22087 13.9909C1.15691 13.4981 1.10612 13.0014 1.05344 12.5067C1.00077 12.012 0.953748 11.5154 0.919888 11.0169C0.886028 10.5184 0.869097 10.0293 0.854048 9.53456C0.838999 9.03983 0.838997 8.55262 0.857808 8.06353C0.876619 7.57444 0.914244 7.08912 0.972559 6.60379C0.980083 6.5436 0.987607 6.48528 0.995131 6.42509L0.980085 6.53984C1.0384 6.09966 1.1174 5.66324 1.2171 5.23058C1.3168 4.79793 1.43719 4.36903 1.58204 3.94955C1.66481 3.71064 1.75322 3.4755 1.85103 3.24225L1.80589 3.34759C1.83034 3.29116 1.8548 3.23284 1.87926 3.17453L1.8341 3.27987C2.0034 2.88108 2.1934 2.4898 2.4323 2.12675C2.49814 2.02517 2.56774 1.92735 2.6411 1.8333L2.5715 1.92171C2.75773 1.68093 2.96842 1.46084 3.20732 1.27461L3.11891 1.34421C3.29573 1.20877 3.48572 1.09214 3.69076 1.00561L3.58542 1.05075C3.78482 0.967985 3.99362 0.909672 4.20807 0.881455L4.09144 0.896504C4.28895 0.870169 4.49024 0.868286 4.68775 0.894621L4.57112 0.879572C4.73854 0.902145 4.9022 0.94353 5.05645 1.00937L4.95111 0.964224C5.0809 1.01878 5.20129 1.08838 5.31416 1.17491L5.22575 1.10531C5.33673 1.18996 5.43455 1.29154 5.5192 1.40064L5.4496 1.31035C5.54177 1.43262 5.6189 1.5643 5.6791 1.70538L5.63395 1.60004C5.71484 1.79379 5.76563 1.99883 5.79385 2.20764L5.77879 2.08913C5.83146 2.47852 5.80701 2.86979 5.77315 3.25918C5.73929 3.67678 5.67909 4.09251 5.64335 4.51012C5.60197 4.96911 5.57752 5.43186 5.56811 5.89273C5.5587 6.35361 5.56435 6.8126 5.58128 7.27347C5.59821 7.73434 5.63207 8.19333 5.68098 8.65044C5.73365 9.13953 5.80137 9.62862 5.88602 10.1139C5.96502 10.5673 6.06096 11.0188 6.17007 11.4646C6.27917 11.9104 6.40709 12.3581 6.54629 12.7983C6.68549 13.2385 6.83974 13.6711 7.00716 14.1C7.10121 14.3446 7.20092 14.5853 7.30438 14.8261C7.34952 14.9315 7.39655 15.0368 7.44358 15.1422C7.49061 15.2475 7.53575 15.3547 7.58842 15.4563C7.61288 15.5033 7.64674 15.5485 7.67683 15.5917C7.69188 15.6143 7.70693 15.6388 7.72386 15.6613C7.73139 15.6726 7.73892 15.6839 7.74644 15.6952C7.75773 15.714 7.77089 15.7291 7.78406 15.746C7.81792 15.7893 7.84802 15.8156 7.89693 15.8476L7.76337 15.714C7.76337 15.714 7.77277 15.7328 7.77653 15.7422C7.81604 15.8231 7.91386 15.889 7.99851 15.9134C8.08692 15.9379 8.20543 15.9266 8.28443 15.8758C8.36344 15.825 8.43304 15.7479 8.45562 15.6538L8.46879 15.556C8.46879 15.4883 8.45185 15.4262 8.41799 15.3679C8.41423 15.3585 8.40859 15.3491 8.40483 15.3397L8.45562 15.5278C8.45562 15.5052 8.45562 15.4996 8.44997 15.4676C8.44433 15.4356 8.44621 15.4262 8.43869 15.4036C8.43492 15.3942 8.43116 15.3848 8.42928 15.3735C8.42175 15.351 8.41423 15.3284 8.40671 15.3058C8.39166 15.2625 8.37661 15.2174 8.36156 15.1741C8.32206 15.0556 8.25998 14.9428 8.20543 14.8299C8.12454 14.6606 8.04553 14.4894 7.97029 14.3163C7.92702 14.2166 7.88376 14.1188 7.84237 14.0191L7.88376 14.1151C7.62228 13.4943 7.39655 12.8604 7.20468 12.2151C7.01281 11.5699 6.85291 10.9153 6.72688 10.255C6.65539 9.88257 6.5952 9.50634 6.54441 9.13012L6.55945 9.23735C6.47104 8.58084 6.41461 7.92057 6.39204 7.25842C6.36946 6.60003 6.3864 5.93976 6.43531 5.28325C6.46164 4.91079 6.50302 4.53833 6.55193 4.16964L6.53688 4.28438C6.61965 3.66738 6.7344 3.05414 6.70618 2.42961C6.69866 2.25466 6.67797 2.07972 6.64975 1.90478C6.62718 1.77122 6.59708 1.63954 6.55381 1.51351C6.44283 1.18808 6.27541 0.89086 6.03463 0.642553C5.98948 0.595525 5.94057 0.550377 5.8879 0.508993C5.81078 0.446916 5.73177 0.384842 5.64712 0.332171C5.50792 0.24564 5.35554 0.1798 5.20129 0.125248C5.07902 0.0819822 4.95111 0.0518838 4.82131 0.0349538C4.65201 0.0123805 4.48647 -0.00454957 4.31717 0.00109376C4.01243 0.0142615 3.70393 0.0706961 3.41989 0.181682C3.26187 0.243758 3.10574 0.31336 2.95901 0.399891C2.80288 0.493947 2.65615 0.604932 2.51507 0.719679C2.25735 0.932245 2.04291 1.18431 1.84351 1.45143C1.66293 1.69409 1.50867 1.95369 1.36947 2.2208C1.20769 2.53307 1.06849 2.8585 0.940577 3.18582C0.820186 3.49432 0.711081 3.80658 0.617026 4.12449C0.427034 4.75842 0.287835 5.40553 0.191899 6.06015C0.0903189 6.75052 0.0301231 7.44465 0.00943089 8.14066C-0.0112613 8.83667 0.00190668 9.48753 0.0508156 10.1591C0.0997244 10.8306 0.173087 11.5078 0.261499 12.1794C0.287835 12.3732 0.314169 12.5688 0.342385 12.7625L0.329216 12.6628C0.374363 13.0052 0.434557 13.3457 0.492872 13.6843C0.519207 13.8385 0.543662 13.9928 0.575641 14.1452C0.60762 14.2975 0.639601 14.4537 0.67158 14.6079C0.68851 14.6926 0.707321 14.7753 0.724251 14.86C0.733656 14.9033 0.743061 14.9446 0.752466 14.9879C0.756228 15.0086 0.761873 15.0293 0.765635 15.05C0.767516 15.0594 0.769397 15.0707 0.771278 15.0801C0.782565 15.1403 0.814543 15.1779 0.852165 15.223L0.780682 15.0989C0.838996 15.2983 0.899192 15.4977 0.957506 15.6971C0.985723 15.793 1.0779 15.8532 1.1776 15.84C1.2773 15.8269 1.35443 15.7441 1.35066 15.6444L1.34125 15.6425Z" fill="var(--fill-0, #212322)"/>
</g>
</svg>
