<svg preserveAspectRatio="none" width="100%" height="100%" overflow="visible" style="display: block;" viewBox="0 0 20.2499 19.1249" fill="none" xmlns="http://www.w3.org/2000/svg">
<path id="Vector" d="M0.245851 5.17162C2.53005 3.45921 4.99327 1.97433 7.5806 0.747492C8.49714 0.313524 9.48529 -0.0969869 10.4949 0.0203016C11.6096 0.149319 12.5357 0.892932 13.3639 1.63654C14.6528 2.78832 15.8749 4.01046 17.0969 5.23026C18.0731 6.20376 19.0661 7.20306 19.6556 8.44163C20.5459 10.3065 20.3955 12.5655 19.4742 14.4163C18.5529 16.2671 16.9203 17.7238 15.0609 18.6715C14.6218 18.8944 14.1563 19.0961 13.6623 19.1219C12.3256 19.1923 11.3041 18.0194 10.483 16.9802C7.36578 13.0323 3.84997 9.38932 0 6.124" fill="var(--fill-0, white)"/>
</svg>
