<svg preserveAspectRatio="none" width="100%" height="100%" overflow="visible" style="display: block;" viewBox="0 0 12 11.9999" fill="none" xmlns="http://www.w3.org/2000/svg">
<path id="Union" fill-rule="evenodd" clip-rule="evenodd" d="M2.57725 0C2.23406 0 1.95586 0.278205 1.95586 0.621389C1.95586 0.964572 2.23406 1.24278 2.57725 1.24278H10.7572V9.42265C10.7572 9.76584 11.0354 10.044 11.3786 10.044C11.7218 10.044 12 9.76584 12 9.42265V0.621389C12 0.278205 11.7218 0 11.3786 0H2.57725ZM0.621392 1.95584C0.278207 1.95584 0 2.23404 0 2.57723V11.3785C0 11.7217 0.278207 11.9999 0.621392 11.9999H9.42275C9.76594 11.9999 10.0441 11.7217 10.0441 11.3785V2.57723C10.0441 2.23404 9.76594 1.95584 9.42275 1.95584H0.621392ZM1.24278 10.7571V3.19861H8.80136V10.7571H1.24278Z" fill="var(--fill-0, #AA0082)"/>
</svg>
