<svg preserveAspectRatio="none" width="100%" height="100%" overflow="visible" style="display: block;" viewBox="0 0 20.1048 20.1459" fill="none" xmlns="http://www.w3.org/2000/svg">
<path id="Union" fill-rule="evenodd" clip-rule="evenodd" d="M0 0.875C0 0.391751 0.391751 0 0.875 0H2.50269C3.27809 0 3.95326 0.552995 4.09072 1.32418L4.09121 1.32692L4.51699 3.66617L19.2315 3.69544C19.4903 3.69596 19.7356 3.81099 19.9014 4.00963C20.0673 4.20826 20.1367 4.47012 20.0911 4.72484L19.0497 10.534C18.8693 11.7793 17.8695 12.8027 16.5732 12.816L16.5579 12.8161L6.17865 12.7955L6.52724 14.7106H16.4657H16.4657C17.9625 14.7106 19.1732 15.9213 19.1732 17.418C19.1732 18.3129 18.7339 19.1088 18.0759 19.6024C18.0329 19.6346 17.9879 19.6623 17.9415 19.6855C17.5188 19.9612 17.0167 20.1254 16.4657 20.1254C14.969 20.1254 13.7583 18.9147 13.7583 17.418C13.7583 17.0808 13.8197 16.7582 13.9321 16.4606H9.24596C9.36325 16.7638 9.42756 17.0936 9.42756 17.4385C9.42756 18.3334 8.98829 19.1294 8.33025 19.6229C8.28727 19.6551 8.24229 19.6828 8.19588 19.706C7.77323 19.9817 7.27112 20.1459 6.72013 20.1459C5.22341 20.1459 4.0127 18.9352 4.0127 17.4385C4.0127 16.6513 4.34759 15.9433 4.88286 15.4488L2.38947 1.75H0.875C0.391751 1.75 0 1.35825 0 0.875ZM16.4657 16.4606C15.9355 16.4606 15.5083 16.8878 15.5083 17.418C15.5083 17.9482 15.9355 18.3754 16.4657 18.3754C16.6775 18.3754 16.8667 18.3088 17.0334 18.1865C17.0539 18.1715 17.0748 18.1576 17.096 18.1446C17.298 17.9622 17.4232 17.6997 17.4232 17.418C17.4232 16.8878 16.996 16.4606 16.4657 16.4606ZM6.72013 16.4811C6.18991 16.4811 5.7627 16.9083 5.7627 17.4385C5.7627 17.9687 6.18991 18.3959 6.72013 18.3959C6.9319 18.3959 7.12114 18.3293 7.28781 18.207C7.30826 18.192 7.32915 18.1781 7.35041 18.1651C7.55244 17.9827 7.67756 17.7202 7.67756 17.4385C7.67756 16.9083 7.25035 16.4811 6.72013 16.4811ZM18.1844 5.44337L4.84126 5.41682L5.86389 11.0374L16.5523 11.0661C16.8739 11.0635 17.2476 10.7924 17.3188 10.2758C17.3204 10.2641 17.3223 10.2525 17.3243 10.2409L18.1844 5.44337Z" fill="var(--fill-0, #212121)"/>
</svg>
