<svg preserveAspectRatio="none" width="100%" height="100%" overflow="visible" style="display: block;" viewBox="0 0 12.104 12.1285" fill="none" xmlns="http://www.w3.org/2000/svg">
<path id="Union" fill-rule="evenodd" clip-rule="evenodd" d="M0 0.625C0 0.279822 0.279822 0 0.625 0H1.58753C2.09735 0 2.54186 0.363539 2.63249 0.871595L2.63283 0.873551L2.86847 2.16814L11.4803 2.18528C11.6651 2.18564 11.8403 2.26781 11.9588 2.40969C12.0773 2.55157 12.1268 2.73862 12.0942 2.92056L11.4787 6.35405C11.3647 7.13476 10.7353 7.78528 9.90946 7.79383L9.89903 7.79392H9.89297L9.88668 7.79389L3.88951 7.77776L4.0572 8.6991H9.84435H9.84456L9.84659 8.6991C10.79 8.7003 11.553 9.46396 11.553 10.4077C11.553 10.9727 11.2757 11.4745 10.861 11.7855C10.8321 11.8072 10.8018 11.826 10.7707 11.842C10.5053 12.0138 10.19 12.1163 9.84435 12.1163C8.89986 12.1163 8.13574 11.3522 8.13574 10.4077C8.13574 10.2488 8.15737 10.095 8.19785 9.9491H5.72425C5.76693 10.0986 5.78977 10.2565 5.78977 10.4198C5.78977 10.9848 5.51251 11.4866 5.09785 11.7976C5.06888 11.8194 5.03864 11.8382 5.00747 11.8542C4.74214 12.0259 4.42684 12.1285 4.08117 12.1285C3.13668 12.1285 2.37256 11.3643 2.37256 10.4198C2.37256 9.94449 2.56611 9.51483 2.8788 9.20527L1.43082 1.25H0.625C0.279822 1.25 0 0.970178 0 0.625ZM9.38574 10.4077C9.38574 10.1536 9.59021 9.9491 9.84435 9.9491C10.0985 9.9491 10.303 10.1536 10.303 10.4077C10.303 10.5391 10.2458 10.6631 10.1517 10.7513C10.1398 10.7589 10.128 10.7669 10.1164 10.7754C10.0351 10.835 9.94527 10.8663 9.84435 10.8663C9.59021 10.8663 9.38574 10.6618 9.38574 10.4077ZM4.08117 9.96124C3.82703 9.96124 3.62256 10.1657 3.62256 10.4198C3.62256 10.674 3.82703 10.8785 4.08117 10.8785C4.18209 10.8785 4.27196 10.8472 4.35325 10.7876C4.36482 10.7791 4.37659 10.7711 4.38853 10.7635C4.48264 10.6753 4.53977 10.5512 4.53977 10.4198C4.53977 10.1657 4.3353 9.96124 4.08117 9.96124ZM3.66493 6.52716L9.89532 6.5439C10.025 6.54255 10.2066 6.42913 10.2424 6.16941C10.2436 6.16109 10.2449 6.1528 10.2464 6.14453L10.7323 3.43379L3.09935 3.41861L3.66493 6.52716Z" fill="var(--fill-0, #212121)"/>
</svg>
