<svg preserveAspectRatio="none" width="100%" height="100%" overflow="visible" style="display: block;" viewBox="0 0 15.75 19.9498" fill="none" xmlns="http://www.w3.org/2000/svg">
<path id="Union" fill-rule="evenodd" clip-rule="evenodd" d="M3.54397 3.54397C4.69263 2.39531 6.25055 1.75 7.875 1.75C9.49945 1.75 11.0574 2.39531 12.206 3.54397C13.3547 4.69263 14 6.25055 14 7.875C14 10.71 12.4146 13.3084 10.7147 15.2633C9.87545 16.2285 9.03394 17.0071 8.40206 17.5442C8.20256 17.7138 8.0246 17.8588 7.875 17.9774C7.7254 17.8588 7.54744 17.7138 7.34794 17.5442C6.71606 17.0071 5.87455 16.2285 5.03528 15.2633C3.33537 13.3084 1.75 10.71 1.75 7.875C1.75 6.25055 2.39531 4.69263 3.54397 3.54397ZM7.37272 19.7915C7.37298 19.7917 7.37322 19.7918 7.875 19.075L8.37678 19.7918C8.0755 20.0027 7.674 20.0024 7.37272 19.7915ZM7.37272 19.7915L7.875 19.075C8.37678 19.7918 8.37768 19.7912 8.37795 19.791L8.37976 19.7897L8.38527 19.7858L8.40377 19.7727C8.41937 19.7615 8.44143 19.7457 8.46952 19.7252C8.5257 19.6842 8.60605 19.6246 8.70712 19.5474C8.90916 19.3929 9.19452 19.1674 9.53544 18.8776C10.2161 18.2991 11.1245 17.459 12.0353 16.4117C13.8354 14.3416 15.75 11.34 15.75 7.875C15.75 5.78642 14.9203 3.78338 13.4435 2.30653C11.9666 0.829685 9.96358 0 7.875 0C5.78642 0 3.78338 0.829685 2.30653 2.30653C0.829685 3.78338 0 5.78642 0 7.875C0 11.34 1.91463 14.3416 3.71472 16.4117C4.62545 17.459 5.53394 18.2991 6.21456 18.8776C6.55548 19.1674 6.84084 19.3929 7.04288 19.5474C7.14395 19.6246 7.2243 19.6842 7.28048 19.7252C7.30857 19.7457 7.33063 19.7615 7.34623 19.7727L7.36473 19.7858L7.37024 19.7897L7.37272 19.7915ZM5.95001 7.87495C5.95001 6.8118 6.81186 5.94995 7.87501 5.94995C8.93816 5.94995 9.80001 6.8118 9.80001 7.87495C9.80001 8.9381 8.93816 9.79995 7.87501 9.79995C6.81186 9.79995 5.95001 8.9381 5.95001 7.87495ZM7.87501 4.19995C5.84537 4.19995 4.20001 5.8453 4.20001 7.87495C4.20001 9.9046 5.84537 11.55 7.87501 11.55C9.90466 11.55 11.55 9.9046 11.55 7.87495C11.55 5.8453 9.90466 4.19995 7.87501 4.19995Z" fill="var(--fill-0, #212121)"/>
</svg>
