<svg preserveAspectRatio="none" width="100%" height="100%" overflow="visible" style="display: block;" viewBox="0 0 20 14.36" fill="none" xmlns="http://www.w3.org/2000/svg">
<g id="Group">
<path id="Vector" d="M18.4 0H1.6C0.729998 0 0.0299988 0.71 0.0299988 1.58V12.78C0.0299988 13.65 0.739998 14.36 1.6 14.36H18.4C19.27 14.36 19.97 13.65 19.97 12.78V1.58C19.97 0.71 19.27 0 18.4 0Z" fill="var(--fill-0, #EBEBEB)"/>
<g id="Group_2">
<g id="Vector_2">
</g>
<g id="Group_3">
<path id="Vector_3" d="M12.06 3.46H7.93V10.89H12.06V3.46Z" fill="var(--fill-0, #FF5F00)"/>
<path id="Vector_4" d="M8.19 7.17C8.19 5.72 8.85 4.35 9.99 3.46C7.94 1.85 4.97 2.2 3.36 4.25C1.75 6.3 2.1 9.27 4.15 10.88C5.86 12.23 8.28 12.23 9.99 10.88C8.85 9.99 8.19 8.62 8.19 7.17Z" fill="var(--fill-0, #EB001B)"/>
<path id="Vector_5" d="M17.64 7.17C17.64 9.78 15.53 11.89 12.92 11.89C11.86 11.89 10.83 11.53 10 10.88C12.05 9.27 12.41 6.3 10.79 4.25C10.56 3.95 10.29 3.69 10 3.46C12.05 1.85 15.02 2.2 16.63 4.25C17.28 5.09 17.64 6.12 17.64 7.17Z" fill="var(--fill-0, #F79E1B)"/>
<path id="Vector_6" d="M17.19 10.1V9.95H17.25V9.92H17.09V9.95H17.15V10.1H17.19ZM17.49 10.1V9.92H17.44L17.38 10.05L17.32 9.92H17.27V10.1H17.3V9.96L17.35 10.08H17.39L17.44 9.96V10.1H17.49V10.1Z" fill="var(--fill-0, #F79E1B)"/>
</g>
</g>
</g>
</svg>
