<svg preserveAspectRatio="none" width="100%" height="100%" overflow="visible" style="display: block;" viewBox="0 0 20 17" fill="none" xmlns="http://www.w3.org/2000/svg">
<path id="Union" fill-rule="evenodd" clip-rule="evenodd" d="M1.75194 14.7043V1.75269H18.2481V14.7043L16.4751 13.8154C16.2281 13.6916 15.9372 13.6916 15.6902 13.8154L13.0413 15.1434L10.3924 13.8154C10.1455 13.6916 9.85455 13.6916 9.60755 13.8154L6.95866 15.1434L4.30976 13.8154C4.06277 13.6916 3.77186 13.6916 3.52487 13.8154L1.75194 14.7043ZM1.63631 0C1.2017 0 0.785286 0.173127 0.478571 0.480661C0.171922 0.788129 0 1.20473 0 1.63871V16.1237C0 16.4275 0.157338 16.7097 0.415779 16.8693C0.67422 17.029 0.996873 17.0433 1.26842 16.9071L3.91731 15.5791L6.56621 16.9071C6.8132 17.031 7.10411 17.031 7.3511 16.9071L10 15.5791L12.6489 16.9071C12.8959 17.031 13.1868 17.031 13.4338 16.9071L16.0827 15.5791L18.7316 16.9071C19.0031 17.0433 19.3258 17.029 19.5842 16.8693C19.8427 16.7097 20 16.4275 20 16.1237V1.63871C20 1.20473 19.8281 0.78813 19.5214 0.480661C19.2147 0.173127 18.7983 0 18.3637 0H1.63631ZM4.562 6.21298C4.562 5.72898 4.95418 5.33663 5.43797 5.33663H14.562C15.0458 5.33663 15.438 5.72898 15.438 6.21298C15.438 6.69697 15.0458 7.08932 14.562 7.08932H5.43797C4.95418 7.08932 4.562 6.69697 4.562 6.21298ZM4.562 9.26243C4.562 8.77843 4.95418 8.38608 5.43797 8.38608H14.562C15.0458 8.38608 15.438 8.77843 15.438 9.26243C15.438 9.74642 15.0458 10.1388 14.562 10.1388H5.43797C4.95418 10.1388 4.562 9.74642 4.562 9.26243Z" fill="var(--fill-0, #212121)"/>
</svg>
