<svg preserveAspectRatio="none" width="100%" height="100%" overflow="visible" style="display: block;" viewBox="0 0 4 7.33333" fill="none" xmlns="http://www.w3.org/2000/svg">
<g id="Frame 3">
<path id="Vector" d="M3.99468 1.95643C3.99468 0.880174 3.09955 0 1.99957 0C0.899583 0 0 0.875817 0 1.95643V5.37691C0 6.45316 0.89513 7.33333 1.99957 7.33333C3.09955 7.33333 3.99914 6.45752 3.99914 5.37691C4.0125 5.00654 3.86999 4.65359 3.60724 4.3878L2.86798 3.66449L3.61169 2.93682C3.87444 2.66231 4.00359 2.31808 3.99468 1.95643ZM0.356271 1.99564C0.356271 1.15033 1.00646 0.418301 1.87042 0.348584C2.29349 0.318083 2.68094 0.444444 2.98822 0.671024C2.88134 0.64488 2.77 0.631808 2.65422 0.631808C1.92386 0.631808 1.30039 1.16776 1.23359 1.85621C1.22913 1.89107 1.22913 1.92593 1.22913 1.96514C1.22468 2.27015 1.34047 2.57516 1.54978 2.82353L1.27367 3.09368L0.405258 3.94336C0.387445 3.96078 0.374084 3.97821 0.360724 3.99564V1.99564H0.356271ZM3.34894 4.62745C3.57607 4.85403 3.67849 5.16776 3.62951 5.48584C3.55825 5.97386 3.10401 6.34423 2.57406 6.34423C2.18661 6.34423 1.83925 6.13508 1.68783 5.80828C1.51415 5.43355 1.55423 5.02832 1.79026 4.72767L2.13317 5.06318C2.28459 5.21569 2.38256 5.40741 2.41373 5.61656C2.42709 5.7037 2.49835 5.76906 2.58742 5.76906C2.6943 5.76906 2.77891 5.67756 2.76555 5.57734C2.72547 5.29412 2.59187 5.03268 2.38256 4.82353L2.02629 4.47495C2.19552 4.30937 2.45381 4.05664 2.60523 3.9085L3.34894 4.62745ZM2.48944 3.53377C2.48499 3.53813 2.48499 3.53813 1.61658 4.3878C1.20687 4.80174 1.10889 5.39869 1.36274 5.95207C1.57204 6.40087 2.0441 6.69281 2.57406 6.69281C2.73883 6.69281 2.89915 6.66231 3.05057 6.61438C2.74328 6.86275 2.34248 7.00654 1.9105 6.98475C1.02873 6.94118 0.356271 6.19608 0.356271 5.33769V4.88889C0.356271 4.62309 0.467605 4.37473 0.654648 4.18736L0.90849 3.939L2.39147 2.48802C2.60078 2.27887 2.72992 2.01743 2.77 1.7342C2.78336 1.62963 2.69875 1.54248 2.59187 1.54248C2.5028 1.54248 2.43155 1.60784 2.41819 1.69499C2.38701 1.90414 2.28904 2.09586 2.13762 2.24837L1.80362 2.57516C1.66111 2.39651 1.58095 2.17865 1.5854 1.9695C1.5854 1.94336 1.5854 1.91721 1.58986 1.88671C1.63885 1.37691 2.1109 0.976035 2.65867 0.976035C3.04166 0.976035 3.38457 1.18519 3.53599 1.50763C3.73194 1.92593 3.66513 2.37908 3.35785 2.68845L2.48944 3.53377Z" fill="var(--fill-0, #AA0082)"/>
</g>
</svg>
